<mxfile host="app.diagrams.net" agent="Mozilla/5.0 (Windows NT 10.0; Win64; x64) AppleWebKit/537.36 (KHTML, like Gecko) Chrome/127.0.0.0 Safari/537.36 Edg/127.0.0.0" version="24.7.6">
  <diagram name="Page-1" id="52b1lF4dUszXcEWWKgWd">
    <mxGraphModel dx="1713" dy="1913" grid="1" gridSize="10" guides="1" tooltips="1" connect="1" arrows="1" fold="1" page="1" pageScale="1" pageWidth="850" pageHeight="1100" backgroundImage="{&quot;src&quot;:&quot;data:image/jpeg;base64,/9j/4AAQSkZJRgABAQAAAQABAAD/2wBDAAUDBAQEAwUEBAQFBQUGBwwIBwcHBw8LCwkMEQ8SEhEPERETFhwXExQaFRERGCEYGh0dHx8fExciJCIeJBweHx7/2wBDAQUFBQcGBw4ICA4eFBEUHh4eHh4eHh4eHh4eHh4eHh4eHh4eHh4eHh4eHh4eHh4eHh4eHh4eHh4eHh4eHh4eHh7/wAARCAQ4B4ADASIAAhEBAxEB/8QAHQABAQACAwEBAQAAAAAAAAAAAAcGCAEEBQIDCf/EAGkQAQABAwICBQIMEAkHCAkCBwABAgMEBQYHEQgSITFBE1EUFRcYMjhhcXSVsdEWIiM3UlNVVld1gZGTlLKzMzVCc5KhwdLhNENicoWjtCQlNlR2gsLiCShEWGODotPwJ2XD8SZGR2Sk/8QAGQEBAQEBAQEAAAAAAAAAAAAAAAECAwQF/8QAMBEBAQACAQMDAwMDBAMBAQAAAAECEQMSITEEQVETImFCcfAygaEUkbHB0eHxBWL/2gAMAwEAAhEDEQA/ANTAHV5AAAAAAAAAAAAAAAAAAAAAAAAAAAAAAAAAAAAAAAAAAAAAAAAAAAAAAAAAAAAAAAAAAAAAAAAAAAAAAAAAAAAAAAAAAAAAAAAAAAAAAAAAAAAAAAAAAAAAAAAAAAAAAAAAAAAAAAAAAAAAAAAAAAAAAAAAAAAAAAAAAAAAAAAAAAAAAAAAAAAAAAAAAAAAAAAAAAAAAAAAAAAAAAAAAAAAAAAAAAAAAAAAAAAAAAAAAAAAAAAAAAAAAAAAAAAAAAAAAAAAAAAAAAAAAAAAAAAAAAAAAAAAAAAAAAAAAAAAAAAAAAAAAAAAAAAAAAAAAAAAAAAAAAAAAAAAAAAAAAAAAAAAAAAAAAAAAAAAAAAAAAAAAAAAAAAAAAAAAAAAAAAAAAAAACX1VTVRVyroronzVUzHyq70frOl6btrem+cjSLGr6noOPbnBxb9HXopmue25NPjyUPh1RY4/cN9z1b0ytB0jL0muirD1K1j+TnH5xznrz40eHLm6TjnTLa819Rl9S4449p2t38tXRsNh9G/bV+15WON+2Jju60W4/tuPi90eNo2Lk27vHPbdNceHkIn/wDiOW3r6a18F7yOA2xrEx5XjxtqOfd/ybn/APxHXr4H7DiPqfHnbMz7uLMf+M2aQwXH1ENj/h42t+rT/ffnc4IbP5/U+Om0pj/Ts1xPym06USFysdH3G1PDz7m2eKW2NdysDEry72Nj0VxX5OiO/v8AyIZE84CzTkBUAAAAAAAAAAAAAAAAAAAAAAAAAAAACauUcxxX7EFg0/hhsnRtvaXm8Rd75Gi6hqtuL+Ng4tiLtdu1PdNzn3MM4p7Kv7G3Jb0+c21qGFl2KMrBzbXdfsV90++sG7Np7X37sXaG+t07m+g6/lYkYNc5NnylvMpsRymu3y7p5edMuN26dG3Frum4G25vV6Loen29PxL12OVd+KO+5y92Xo5McOm6/s+f6fk5bySZb999u0+NMAAed9AAAAAGRcNtrXt57307bdq/GPGXc+qXpjn5O3Ec65/MqWBoHA3cm4o2LotO4MPVblVVjF1e7XE27t+OfsqPNMx4N48WWU3HDm9RjxXVluu/b2iFim7G4aYV2/uXUd86rc0vQttX/Q2bcx6ed69dmeVFFuPdd3W9jbC1/Y+r7l4a6pqtd3Q6Yu5+DqdERXNqf85RMH0stJfVccy1/n27/lJQp9iMPQAAAAAAAAAAAAAAAAAAAAAAAAAAAAAAAAAAAAAAAAAAAAAAAAAAAAAAAAAAAAAAAAAAAAAAAAAAAAAAAAAAAAAAAAAAAAAAAAAAAAAAAAAAAAAAAAAAAAAAAAAAAAAAAAAAAAAAAAAAAAAAAAAAAAAAAAAAAAAAAAAAAAAAAAAAAAAAAAAAAAAAAAyLh9vPW9j696baLXbqm5bm1kY96jr2si3PfRXHjDJt+cX9W3Lt25t3A0TStuaVfri5lWdOtdScif8ATnze4m41OTOY9MvZyy9Px5Z9eWPd8+StfaqPzHk7X2qj8z6O/simZll23fl89Sj7Cj8x1aPsKf6LuW9N1Kujnb03OrjzxYrn+xz6V6r9ys/9Xr+YHS6tH2FP9E6tH2FP9F3fSvVfuVn/AKvX8x6V6r9ys/8AV6/mDa1dDOKY3TvLlER//S2T4e7CE0935Z+VfuhzgZ1rdO8aruDl2+e18imOvZmOc86eyEMo0vVeX8VZ/fP/ALPX5/eZ92q6o7fpXqv3Kz/1ev5j0r1X7lZ/6vX8zTDqDt+leq/crP8A1ev5j0r1X7lZ/wCr1/MDqDt+leq/crP/AFev5j0r1X7lZ/6vX8wOoO36V6r9ys/9Xr+Y9K9V+5Wf+r1/MDqDtXNN1O3TNdWmZ1FMRzmZx64iP6nViecAAAAAAAAAAAc4jvIlX+EkaVtPhdr3ErI0PF1rVMbMt4WFbyaetaxuv33Ko87v7i1XF4m8GNa3Rqmg6dpmubfybVFvNwrPkreTRX325iOzm6zi3PPfy8t9VZnrp+3et/n9kRAcnqAAAAAAHFXsJ95y4q9hPvA2K6QFjyPRb4PR9L2011dnu24lrs2G4+XPKdFzg9zq60xTciPyW4a8pi3l7Cg7H4Pb03bo9vWcSzhYGnXZ6tjIzsmLUXp/0PGU9rjnRPJsJvLZe5+KOzNm6xsW7by9PxNNowr+D6Ii16Ev0T9PPbMRLtxYTLdvd4vVc2XH0yXpl977f/UV3htnW9pa7e0TX8KvEzLXb1J7Yrie6aJ8YeMsPSYqs4dez9tZOo2dS1vRtJixqORbr63Kvn2W5nxmEeY5MZjlZHT03JeXimd/n88j0duaJq249cxND0PCvZuoZVfk7Vm3TzmZ88+aI8ZNt6Jqu49dxdD0TCuZuoZdym3Ys26eczPnnzRHjPg2U1PM270Ztp1aRpFeLq/FDVLEei8rl17enUVR3R5vcjvnvnsc69GOPvWMb129tXgFn7UycTV72r8QMe9F/Vca3VE41FmqO23MeE8p5R5+XPlD3+Ftjhdr/ES3rHD3QNdzNzXJm9bwsnsw9Prnvu3J8KY5zy7ZQrZu2d18T98xpum039S1fULs3srKvTMxREz23blXhEf4LFxH3voPCTaN3hVwvyqburXaeruHX6PZ1XOXKq3bn+r3I7O/m6YctwmnDm9Lhy3qu57dveONyaxsDaW5d1cPNf13L3Lo2t10ZOpaji0R18PPie3qfZxH9XJi2p7q4ebN2FrW2tgX9R1jUddtxZzNSy7fk6Ldj7CiPOj/AOft7apnvGpy2TTGXpOO5b3dfHt28FPsQHN6AABz31REUzVM90R3uFi4RZdG0eEu5N/abpOLqWu4+baw7NzIteVow7c99zq+61hh1XVc+bl+njLJu9p/uj1cTTXNFVE0VR3xXHKXC4a9rF/iZwN1rdO5dNwbOraDm2qcXUMbHizGRRX325iO/kh5nh0+E4eW5y9U1Z2AGXUAAAAHzcnlbqmO+I5tjtzbK4H8Pto7Qyd5aTunUdR13TKc2ucLNiKaOcRNXZPLl3o1I1zFsjWOjDEdX6Dt8T7s5sc/lPTnowfeZvb9dj516k1+UTeptjb2t7m1SnTNA0vI1DKmOfk7Uc+UeeZ7oj31UnVujJT9NTs/fVz3Jz6Pnenwpozc3gxvTF4a+Wsbhr1GKptU1x6LnA/kUUz4z5+TXFj1Zarh6rl+jhuft+P7pPvLY27dnV2adz6HkadTe/g7lXKaKp83WjnHP3GOLvfxN26R0bdy2OIEZdiMnPsRo2PqE/8AKIuRP080RPbEIRC8mEx0z6bmy5JerV1ddvAAw9AAAAAAAAAAAAAAAAAAAAAAAAAAAAAAAAAAAAAAAAAAAAAAAAAAAAAAAAAAAAAAAAAAAAAAAAAAAAAAAAAAAAAAAAAAAAAAAAAAAAAAAAAAAAAAAAAAAAAAAAAAAAAAAAAAAAAAAAAAAAAAAAAAAAAAAAAAAAAAAAAAAAAyLhhZov8AEva9m59NTOr43OP/AJkMdZXwf0jVtc4laHh6JVat51vLoyaLl3+DtxbnrzNXudhJbdSJllMJ1W9ouHHLpAcT9q8Xdx7d0TVsCxp2BleSx7denWq5inqUz3zHOe9hfroOMv3e034qsfMyLeWicLuKHEvWLGl7rz7O8NQvVVUXK7HLAv36I5TRR4xE8vGWv+q4OXpeqZem51uqzk4l6uzeo81cTylcuK4zdZ4/VTlupufvNK966DjN93tN+KrHzHroOM33e034qsfMjAz0x26qtEdKHjPHdr+nR72l2Pmceug4zfd7Tfiqx8yMB0w6qs/roOM33e034qsfMeug4zfd7Tfiqx8yMB0w6qs/roOM33e034qsfMeug4zfd7Tfiqx8yMB0w6qs/roOM33e034qsfMeug4zfd7Tfiqx8yMB0w6qs/roOM33e034qsfMeug4zfd7Tfiqx8yMB0w6quOj9Kbivj6lZvarl6Xq2DE/V8O5gWrcXaPGOtRHOH68ZOHGjbi2tHF3hZjzc0LJ+n1XS7VPO5pt/wDl/SfYc++PDv7kJZ1wZ4m65wy3LGoadPovTcn6nqWm3J+p5Vvx7O6K4jun+ws0dW/LBYmmaecdwvHGjhfoer7cnixwm55e28n6bUdNoj6rp1zx+l74pie+PD3kHiecc47YkSzQArIAAAAAC69FDKrtadxEnLs0Z+l4WgV59zT70RNjIuUT2RX+RhnEPipm7s29j7b0/QdN23oVq55acLT6OUXbnhNU+4zPotU1/Qfxbu8p6v0LXaefu8pQm3/Bws5M5OnfZzvp+K5/U6e7lnnBfZmn7u1nUcnXc25h6Fo2JXnahctRzuV0R/Ip92WBqt0WsnMvcUrO1bONi5eFuLGuYedZya5portdSa5mJjx5R2Lx9MznV4T1E5LxWcfl62FovCfiHgavpWytG1TQddwsS5l4deRlTdozKaI5zExPdPJEoXrXdy8MOGk7j03Ymj6vc3Nd8rp9V/O5dTDo7q+p50Ghvl6e2vP4cvSzLeW969t+fyAOT1AADifYy5KvYguHFm/F/otcJpiJjqZWfb7fc7EPbDaTZ4d764DbJ2rrPE7TtranomTl3b1nIxa7sz5SueUd8RHZ29897zPUZ4Y/h/0T4un++xLpuoYvO9s/JwOiLw5uaXl38K5XqmTRerx65tzX2V8+fLvdW/wj4VWaupc6QWi8+XPs0uufkre7x+0PSdv9GfYOnaHuSzuPT6NXyKrefZszbouc6K55dWZnly7mpe/anTud2ulc1V1zXXM11VzzmZnnMy7229F1PcOvYehaPi1ZWo5t2LVizT3zVPyRHfM+aHQVboizEdIjavP7ZdiP0Va2szvVIztT250ats3tE0OcXWuJ+o2OWZmzTFVvTaZj2Me95vHvnsQfaW3d1cTN8Rp2m039V1nUbs3cnJvTM8uc/TXblXhEPTv7X3Rv3jRrGg6TYuZ+rZWq5HlK65mYt0+UnncuVeERHiqW+t36FwU2rkcM+G2Xby9y5FPU3BuGiI5xX42rc+HLu9z32dab8uOI+7tA4ObPu8LeGeZTka9kU8txa/a9nNfjatz4ebs7o93m11/PMz21TPeTNU1TVVVM1TPOZmeczPnFZtAFZAAAAGX8M+IOubBzsm5pdGPl4mZR5PLwcqjr2r8eHOPP7rEAxyuNljOeGPJj05TcbbZ9/T+kTwbp0nZ8423dz6NPoi/t+1MW7GXEeNHnjzT4T2S1Pz8XLwM6/hZ2NexcvHuTavWbtHKu3XHZMTDu7W1/WNr6/ia9oGfdwdRw6+vavW6vzxMeMT4xPe2I17TNvdJLbNzcm27WPpPEvTrEValpk1cqNRpiPZUef3J8O6fOlt33dMccdfbNNZBn/qLcWvwf61+jj5z1FuLX4P8AWv0cfObTpYAM/wDUW4tfeBrf6OPnPUW4tfeBrf6OPnNnSwAZ/wCotxa+8DW/0cfOeotxa+8DW/0cfObOlPr38BX7zYPpe/8ARrhR/wBm6P2KE6ucFeLU0VR9AGtdsT/m4+dS+mViZOBpHC/CzLNdjKx9Ai1etV99FcRRExP5Ua1qNeAGmB3tE1XU9F1C3qGj6hlYGXR3Xce5NFcfmdEJdFk1qvZ3Pujcm6Mii/uLWszU7luOVv0RcmYo96PB4wFtve1JjJJMZoAFAAAAAAAAAAAAAAAAAAAAAAAAAAAAAAAAAAAAAAAAAAAAAAAAAAAAAAAAAAAAAAAAAAAAAAAAAAAAAAAAAAAAAAAAAAAAAAAAAAAAAAAAAAAAAAAAAAAAAAAAAAAAAAAAAAAAAAAAAAAAAAAAAAAAAAAAAAAAAAAAA7nfv6LrGPgRn3tLzrWJPdkVWK4o/Oa/CbjoACjLOEm8Ktjb9wNxV41WVYtc7eTZieU12645TEe6xMXG3G7jOWGOeNxy8VetIzeBW1d1fR5pu4NX1PIs1zkYWjVY0xNu/Pb2193KJlFNx6rk67uDUdazIiL+fkV5FyI7omuefJ0BrLkuUk1py4fTzjty3bfHcAYdwAAABxM8nd0PStS13WMTR9Gw7mZn5dyLVizbjnNcz/Y2Y1fUtq9GvatjQtMwdN3BxJzrcV6jkXqYuW8Kie3qe5Hmjx75RqTbVqZp92PyHWj3fzLvi9KLfNE88rb21Mqf9PBiPkfv66bdn3n7S/VP8DdJIgPWj3fzHWj3fzL966bdn3n7S/VP8D1027PvP2l+qf4G6up8oD1o938x1o938y/eum3Z95+0v1T/AAPXTbs+8/aX6p/gbpqfKc8GeJ+tcM9yxqOnR6L03J+k1HTq/wCDyrfj2d0VxHdKg8aeGWiaztyeLHCXnmbbyedepabbj6rptz+V9L3xTz748P8AVfr66Xdv3n7R/VH6aN0rN74WVFN/b+3bmn11/wDKsWzi+S8rT3THOPHl507r2019iecdaPpocrnxh4a6Lrm1/VZ4U25yNu5EzXqel0xzu6bd/l9n2HP83vIZE845x2wsu2bABWQAAAGx3Q1u6Vj7Y4n3tcxr2VpdGj9bMs2uyu5a6k9eI92Y5vHo3N0XOUcuHu8P01H/ANx2Oiv9bri9/wBnrn7utr/a/g6WW9rz9E3Rc/B9u/8ATUf/AHHrbO4l9HbZ258Pcm39h7rt6lhzM2a67luYpmaZju6/mmWuQujqr0NzanXrW5NT1m5TNNWdl3MnlPfHXnnyeeCsAAAAAMr0PhrxC13S7Op6LsnXdRwb8c7ORj4lddu5HuSiyMTmInvpiTqUfYR+Zn1HBji1XRExw83Bynz4sxL4r4N8WKKpieHO5Jn3MKuYNr01gnUp81P5lu3/ABy6IPDnl2f89ZfyVo7q+m6jo+qX9M1XCv4OdjV+Tv496jqXLc9/KY8Fi4ge1B4c/jrL+StPgx7IkqPRN9sRtH4Tc/dVpcqPRN9sRtH4Tc/dVrUx8qlxz35ofCvJ3Bs3h1VTO5tZyK72v6zERFdjrzz8hb+x5RP5PfauVTVVM1V1VTMzzmZq5zM+eWQ8Tvrkbl7ZmfTTI7Z/12OTcoj+XAtu30PnylHnpPKUeelU0+h8xcomrlEwpmzODG7dyaDZ1y5k6Xo2Dk/5JVqOTFucj/Ujv5e6uOFzusfLny8uHFOrO6iaj2N5bZ1naOv3tE17F9D5lrlPKJ50V0T3V0T4xPneOmrO1axsym4ACgACpdE6bsdIXankrk2/q9yK+U8uceTnnHvJaqfRL9sLtX+eufu5StTy7e/+M3FXC35uDDxN+6zYx8fU8i1Zt03I5UURcmIiOzwh4fq4cXvwha5+kj5mOcS/rkbm/G+T+8l4Bo3VC9XDi9+ELXP0kfMerhxe/CFrn6SPmT0NL1VQvVw4vfhC1z9JHzHq4cXvwha5+kj5k9DR1VQa+OPF6miZjiFrXOImY+qR8yj9M7NyNQ0nhhn5t+u/lZO34u3rtXfcrmKJmZ9+Wut7+Cr95uRxg4t6xw22Xw3w9M0TRtRt5ugWrldedZ8pNExRR2R5oT3Wd40460e7+Y60e7+ZfvXTbs+8/aX6p/geum3Z95+0v1T/AAXdTU+UA8pR5zylHnXmek7uOZmZ2NsyZ8ZnB/wPXObj+8XZf6h/gbpr8oN5SjznlKPOvPrnNx/eLsv9Q/wPXObj+8XZf6h/gbpr8oN5SjzuetT/APlK8+uc3H94+yv1D/B90dKTdNumKKNm7Qoo8IjD5R8humkD60Knt3hbolraeFuTf+9Le2MfUqevgY9Nib1+7R9nMeEO/vrpBbk3btPP27mbX2vj2M235Ou7ZxPqlHu0eafdepmWNmcW9obY8tvLB2tr2h4NGn5FnUey3dt0d1dE+d14sZd78vH6vPLDp1dS+bJvSccUNj5GyNVxLVOo2NV0rULEZGnZ9mPpL9v+yY8YYipvHLWdtzgbZ2VtXPnVMDbeLct15/hfuVzzr6vuQmScsky1i36bLPPixyz8gDDsAAAAAAAAAAAAAAAAAAAAAAAAAAAAAAAAAAAAAAAAAAAAAAAAAAAAAAAAAAAAAAAAAAAAAAAAAAAAAAAAAAAAAAAAAAAAAAAAAAAAAAAAAAAAAAAAAAAAAAAAAAAAAAAAAAAAAAAAAAAAAAAAAAAAAAAAAAoPR003S9W4yaDhatZs38abldUWrvsLlyI50RPn7fBYeGm6uIW6+kHl7W3Nl12NAi5kW8vAvYUeQ8hRziKO7s59na1y2jpusatujTtN0DynprfyKIxZt1cppr8/Pw5edsvqtjd2sYeZtDB446bm7mixNF3BtYtFqu/MR22vLR3z3x2PTw9Vx1HyvXdGPJvLV3Pffb89vb/ZiGv8KuCtOuZ1NjjfpmFajIr6licWZm12+w5x38u50vUr4N/h80r9UrRLLpqxcu9jZExRftXJt3KKp7aa4nlP9b8vKW/ttH53l932JrXhcvUr4N/h80r9Uk9Svg3+HzSv1SUN8ra+20fnPK2vttH503fk7fC5epXwb/D5pX6pJ6lfBv8AD5pX6pKG+VtfbaPznlbX22j85u/J2+Fy9Svg3+HzSv1ST1K+Df4fNK/VJQ3ytr7bR+c8ra+20fnN35O3wuXqV8G/w+aV+qSepXwb/D5pX6pKG+VtfbaPznlbX22j85u/J2+FwnhXwb5Ty4+aVz8P+R1udH4LbA1rVsbStH45aJm5uVci3ZsW9OuzXXXPhHajWjadn61quLpOk4lzOzsu5Fuxj2o513K5bF5WVofRs2vVp+BVi6txU1Sx/wAoyeyu3pFuuO6Pd+X3u8vZ3Nx3dp9GfScnStt5lvXuJGfZ6tzOuW46unWp8Yp8Jnwjvnx7Gsmfl5WoZ9/P1DJu5WZkXJu3712vnXcrnvmZM/MytRz7+fn5N7Ky8i5N29eu1867lc98zL8VS3YArAAAAAADNuDnEnXOGe5vTLTJjJ0/Ijyeo6fdn6llWvGJjuieXPlP9jP+MvDLQ9Z23VxX4T88rbmRzq1PTaI+q6bc8fpe+KOffHh7yFM34O8Ste4Zbm9M9Ln0Tg5H1PUdPuz9SyrfjEx4Vcu6f7GbG5d9qwiJ5xzjtiRdOMfDPRNb23PFjhPTOTtzJ+n1LTKKfqum3f5X0nm5+Hh7yFRPOOtT3KljkBWQAF86LNVHqe8XKOvHW+h25PLx5dSrtQG1/BUrp0Wv+ivFv/spd+SULtfwVJPdqvoAZAAAAAAKvYtkuJW7Nybe6OHCeNqbg1DTblzEr9Exp9+uiauX2XU83utbfGKauznPLn5mxXE7e+pcI40PZ20NH0+3p1GnWsqrIzMby05Vy5ETXymezl54hvDCZd8r2jlyc2WGUwwx3b/bwk0cV+KE93ELcvxhc+d7Wx+KXEm/vfQcfI33uK9Yu6ljW7luvOrmK6JuxExMc+6Yd3pK6RpuJq229ewtMt6Tka9pVGZm4NujqUWrvPlPKPDmwXhxam9xE23ap5dadWxu/wDnYlnkw6Mulrh5vq4TOe7LulP7YXePw2j93QyPiDRVT0QOHHXjlz1jJmPe5Vsb6VHthd4/DaP3dDLuKVm7Z6IXDDykcuvqN+qn3Ymivkw7/KDKj0TfbEbR+E3P3VaXKj0TfbEbR+E3P3Va1jHyw3ij2cRdzfjTI/blsLv/AHrovC7aWwMXTuGuzdWuaroFvLv38/Apm5NfZE9sd/P3WvfFL64m5/xpkftyqPSp/iHhT/2Vo+WErWL79cTZ/A3w8/UX1PSKw+r9LwZ2DFXnnC7EJF0z1KjxC4w0bt21kaJb4bbM0Xy9VEzmYGF1MijlXE8qZ8OfLkzrfux9S4w6PtfX9j6lpt7ExdLt4d/AvZUWpwq6O/sa6P1xcnJxpqnFyb9ia45T5K5NPP3+TfHnMZZfFcOfiyzyxyxurFV6St/TrGdtbbVjUbWq6hoelUYudl2p68TX4Uc/Hkkp5+f00z3+6GefXlvTXBxfS45hvYAy6AACp9Ev2wu1f565+7lLFT6Jfthdq/z1z93KVqeWF8S/rkbm/G+T+8l4D3+Jf1yNzfjfJ/eS8BUoAIAA+bsc7dUeeJhtDxM2tlcS9pcP7mVqWm7Su4Wj0YljG1S/EXcmvlERXER3RPLs5+drHjXPI5Fm9NHXi3cprqo8/KYnk2K4lbIxuLuq6Tvba27dFsYd7CtWcuxm5UW7mFNHfyifN+TudeHCZbtm3j9VzZcdxky6Zd99b/t/dDd77X1rZu47+g69jRYzLHKv6WedFyie6uifGJeIqnSY3Lo+v7zwcPRMmjOx9H0+3g15sf8AtFdEdsx54hK2OSTHKyO/p888+LHLOaoAy6gAAADiaYnvpcgEe4AAAAAAAAAAAAAAAAAAAAAAAAAAAAAAAAAAAAAAAAAAAAAAAAAAAAAAAAAAAAAAAAAAAAAAAAAAAAAAAAAAAAAAAAAAAAAAAAAAAAAAAAAAAAAAAAAAAAAAAAAAAAAAAAAAAAAAAAAAAAAAAAAAAAAAAAAAAAADMODe6MPZ3EbS9d1GzXcwrU1Wr/k/Z0UVx1JmPdhY9jbe4f8ADviJRxKtcQNA1bRcem7fxsOqrymXNVcTyiI+zjny596J8KtrfRpv7S9uV35x7OTXM37sd9FuiOdfL3eSx7cx+EO+d6Twx0XYV/CuVTdsYmsRf+q+UtxP09fnjs7nfjm8fu1p4PU2zk3hveu+pPHt5dTN6Tebezb963w22bVbruTNM3cSJrmOfZznl3vx9cvqH4NNkfqUfM87J6MXF61k3rdrR8C5bprmKLk6jajrxE9k8ufZzKejDxfmjrzpWk0R/p6rah5n0pMno+uX1D8GmyP1KPmPXL6h+DTZH6lHzPN9bDxc/wCoaJ8b2j1sPFz/AKhonxvaOy9OT0vXL6h+DTZH6lHzHrl9Q/Bpsj9Sj5nm+th4uf8AUNE+N7R62Hi5/wBQ0T43tHY6cnpeuX1D8GmyP1KPmPXL6h+DTZH6lHzPN9bDxc/6honxvac+th4u/c/Rfje0djpyej65fUPwabI/Uo+Z++l8edZ3NquLomDwk2bqGblXPJWLFrB7apn3oeBR0aeL1zIosWtG027VX429UtVRHuzylmudk6H0a9t1abp1zE1filqdjlkZMcqrelW5juj3fl94NX3ZnxV4j6Nwb2pY0jSdvbaxeJWZj88qdMsR5HToq8Zme3ny7Ijx7+7lz081DMy9Qz7+fn5N7Ky8i5N29eu1c67lc98zJqGXl6hn38/Pyb2VmZNybt69dr513K575mX4rJpm3f7ACsgADMuHPDjcm+vRV/SoxcbT8P8AyjUM255Oxbnzc/GfeYaufD7b+bxG4AXtqbazbeNquj6pOXlY12vyVvLt1x9JM190cvDm3xYzLLu4eq5cuLDePbv5+Pyn/EfhvuPYtOJk6lViZum5n+T6hhXPKWLk+bn4SwxauIuk39hcB8PY2v5+Lf13M1f0fRiWb0XfQtqKOXbMeeUVOXGY5dj03Jlyce7d9/Pz+QBh3AAZvwd4la7w03J6Z6ZMZOBkfU9R0+ufqWVb8YmPCeXdLO+NHDfQtX21PFrhV/ynbWTPPUtPoj6rpt2e/wCl8KOc93h70oazjg3xL1zhnuOrUdNpoy8HJp8nn6feq+pZNPux4THhLOmpd9qwbnE+MHOPPDYLL4u8Dr1+vM9QfGqv19sxORbi3Mz3z1IfEcZeDsRy9QDRPz2/mXa6QDrU/ZUnWp+ypX/1ZuD/AOADRP8Ad/MerNwf/ABon+7+ZNmo6XRamPoU4t/Tf/2pd+SULtTHk6e2O5uhwR4j8Pda29v3I0bhNp+jWNP0S5kZtu11OWbaiJ52a+zxS+njNwdmIn1ANE/3fzG+66mkB61P2VJ1qfsqV/8AVm4P/gA0T/d/MerNwf8AwAaJ/u/mNpqIB1qfsqTrU/ZUr/6s3B/8AGif7v5j1ZuD/wCADRP938xs1EA61P2VJ1qfsqV/9Wbg/wDgA0T/AHfzHqzcH/wAaJ/u/mNmogHWp+ypOtT9lSv/AKs3B/8AABon+7+Y9Wbg/wDgA0T/AHfzGzUQDnHnhUds8ct06NoWJo+Th6NrVnCp6mJc1HFi7csR4REz3xDLvVl4P/gA0T/d/MerLwf/AAAaJ/u/max5MsfDny8HHyzWfdG97br1reW4L2ua/meiMy5ER2Ryot0R3UUR4Q7HC+5Rb4k7Zu3KuVEarj85/wDmQsVjjRwZrriMvgDpNVEdkeT8lE/I9Lbmr9GneGv4V2NJ1LYGrW8u1cxb1NznjxXRVExz5c6IieXLt87Nyt71uceOMmOKa9KiJjpCbx5xy55tE/7uhlvFDJrzOiBwzr7JixqV+zPLw5UVw/TpybYr0riza3Lj0xc03cGJRdt3qaucTcojlXHP3upMPja0Ruzoabi0m1jRczdq6rGdRPPnMWq551zy80RzGveoKqPRN9sRtH4Tc/dVpdHbCmdFaZjpDbO5Ty/5XXH+6rWsY+WJcUPri7o/GmR+3Kl9JmaqtqcJKpqmZnadHbPvwmvFL64u5/xpkftyqHSoteQ0LhTY6nU6m1KOyffgrUQ8fdm3dvX6bNizcvXq+63bomqufyQom3uBfFnXaaa8TZWoWbVcRNFzLiLMVRPj9MbZ0nAtU9FvjHER19J0mjn4TqluD1r3F/7maR8a2jbXTUVFk9bJxh+4WnfGdr5z1snGH7had8Z2vnNnTUbFk9bJxh+4WnfGdr5z1snGH7had8Z2vnNnTUbFn9bDxk+97B+MbZ62HjL972F8Y2zZ05IwqfRM9sLtX+eufu5ep62HjL972F8Y22d9H3gHxO2lxg0HcOuaNiWNOw7lc3rlGdRVVETRMd0ds9qWrMa184l/XI3N+N8n95LwF83x0cuK+pb01zUcPRsCvHytRv3rczqNqmZorrmYnl4dkvH9bNxh+4WnfGVr512zcajYsnrZOMP3C074ztfOetk4w/cLTvjO185temo2LJ62TjD9wtO+M7XznrZOMP3C074ztfObOmo245d/LnHPv5Ty5rL62TjD9wtO+M7XznrZOMP3C074ztfObOmo1HZ3dkOVkjoycYZiao0HAmI75jUbc8j1svGH7h6b8aWvnNnTUbFk9bFxi5db0hwOU+Ppjb5Setk4w/cLTvjO185s6ajYss9GLjFHs9BwKff1G3DiejJxhnsp0PT6p80alak2nRUbFknoycYY9loeBTPmnUrUS/O/0aeMVqjr/Q/hXPcp1G1M/KbXpqPis09HLjDMxT9DFr9et/O44dcM8fH3Pub1RrN7EwdpY8ZOo4lqvnXdmfYURVHhLWE67JHLmznFh15f+0n5i56dp3DnippOvYm2tp3dqa3pGDXn49yL/lLd+3R2zRcjz8kLonnET4rnh0++2OLl+puWas9nIDLqAAAAAAAAAAAAAAAAAAAAAAAAAAAAAAAAAAAAAAAAAAAAAAAAAAAAAAAAAAAAAAAAAAAAAAAAAAAAAAAAAAAAAAAAAAAAAAAAAAAAAAAAAAAAAAAAAAAAAAAAAAAAAAAAAAAAAAAAAAAAAAAAAAAAAAAAAA9rZG4tS2nuvT9w6TyqzMO9FdFE084uRPZNE+/3NjblzT9uUXuJ+m8FNw4evzbqyYuXLnPFs11x23OUTz5dvPuRbo9xpU8YdvxrM2Ix/LVeT8t/B+W5fU+f5Vg4ZUcU7XSGvXt7en06VRXfnOqieWJ5HlPLv+k8n3d3a9XD2x2+X62Y5cmu0snvbNz47NeM/dG48/Pv5uRr2pTeyLk3a+WVciOczz7O3ude5rWt3KJoua3qldM98TlVzHyrLqOR0XK9azrl/C4hc5yLk8rVyx5Gauc+w5eHmfMZHRT60ROncQ493ylv53ktfW0i3plqX3Tzv09fznplqX3Tzv09fzrl/wCqX5t+f04P/VL82/P6cGxDfTLUvunnfp6/nPTLUvunnfp6/nXL/wBUvzb8/pwf+qX5t+f04NiHemWqfdTO/WK/ndzQ7e5Nd1jG0fR72p5mfl3It2Me1erma5n8vd7qxV0dE+qOUV7+t+7RVR8zvYPFDhFwx0fPvcIdF1nM3Pm0Tao1LWaaJ9CUT39Xl8nL8vgEk+XrZupaZ0bdq3tM0/No1fijq2NFGXemvylrS7c9vLl5/N557e7v1q1DLy9Rz7+fn5N7LzMm5N2/euzzruVz3zMmpZuZqeoZGo6hk3MrMybk3b967POu5XPfMy/Ak0W7AFZAAAAGw3BP6XokcW7lFU03IuW5iqOyY5dTxa8tguDl2LXRC4s1VT7K9bpjn558mlaw8tfrl25euTdvXbly5PfXcmZmfyy4BWQHHOPPAORxzjznOPODkcc488Mp4fbD3LvvOvY238Oi5Tjx1sjJu1+TtWI/065JLldRM8scJ1ZXUYuMz4gcMt1bIxLGdq1nFyNOyJ6tvNw70XbE1+bnHdLDFuNxuqzhnjnj1Y3cAEbX/oi+Rz9v8S9u05uHi5uqaJNnFnLvxat1VzFVERzn3ZeRb6M/ELydPLVdnTHLvjWo7f8A6EWmKZ76eb6i5diIpou3IjwiK55Qmq1KtPrZ+If3V2d8dR/cPWz8Q/urs746j+4jHlLn269+lk8pc+3Xv0srpdxZ/Wz8RPuns746j+4/TF6L3EzKueTxczal+vlz6lvVoqnl5+yhFPKXPt179LK1dDK5cni3nUzcuTHpBm99cz4Qz30bj49bPxD+6ezvjqP7h62fiH91dnfHUf3EZu3bvl7v1a77Ov8Azk+dx5S59uvfpZa0bnws/rZ+If3V2d8dR/cPWz8Q/urs746j+4jHlLn269+lk8pc+3Xv0smjcWf1s/EP7q7O+Oo/uHrZuIf3V2dH+2o/uIx5S59uvfpZceUufbr39OTRuLZjdGbe96ZiNybL638mKNViuZ/qeNv7o+8T9n6bOo52i2dSwKKOtcvabd8vFuPPMcon80SlVuZtV9e1VXbq89MzEs+4b8X9/bC1K3l6Tr2VlY3WjyuDm3JvWLtHmmJnnHvxyZ7p2fhn8TNb1LhFjcNtSxsfNwsLLjJwsu7zm/jxHOPJx7nbP52ZdD7W8HF4n5G1NX8nVpe6sG5pt6i53TXMc6I9+Z7HvcQNp7b4wbJzOJ/DTBpwNewKevuDQKfHs5zdtx+eezviPP3wDS8/L0zUsTU8C5Xay8S9Rfs3I7JiuiecL5XxXf3toGZtPeGr7Zzony+nZVdiZmOXXiJ7Jj3JjtZ30Taet0idpdnPlfuz/uq2V9LHCxdz6ftTjJo1un0JuLCos6hFPOYtZVuOXVnzd3U9+h5XQp070d0gNNyOtyp0/EyMqufcijqf+M32Naqa8S66b/ETclVHdXqt+I/Scmx/Hjh5rPEPivs/ZW36bdqjR9uWIz8u5H1PDtzPPrVe75o8UN2bole8uPmHpNNub9vP3DXXeiPtUXZmufzRK/8ATR4sRpGdkcPdoXLeLl5Vmj08zrM9W5NHLlRY60e53+52JVjFtT4mbA4L27u2+EejYmua7a528zcufR5SJud0xb8/L3OVPv8AelG5+M/E/cGT5bVN9arRPd5PFv8AoaiP+5b5Pd4NcK8HXtCy99761GvQtj6dPK5kR2Xc2uP81Z+TnHPt7PPyyDL45bS29TOm8NuFO38TCoq+kytXtRkX7vuzE90z74I3kbo3HkT1r+5NZvTHdNebcn+1+Xp/rf3c1X9aufOr09JXdv3nbE+KP8T1yu7fvP2J8Uf4rus6SL6INb+72r/rVz5z6INb+72r/rVz51hjpLbq+8vYnxT/AInrlt0/eXsP4p/xN1NT5R76INb+72r/AK1c+c+iDW/u9q/61c+dYfXLbp+8vYfxT/ieuW3T95ew/in/ABN01PlJo3huuIiI3Zr8RH/+9d+c+jHdf32a/wDr1351Z9ctur7y9h/FX+J65bdX3l7D+Kv8TapN9GO6/vs1/wDXrvzqd0WNybhz+Pm2MbN1/VsuxVeude1ey7ldM/U574meTt+uW3T95ew/in/F943Se3niZFOTg7U2Vi36e67a0vqzHvTFfMJZtO+I+ta5RxE3LR6eapTFGq5MREZVcREeUnlHe8H091z7uar+t3Pnfhq+fkarq+bqeVy9EZl+vIvdSOUdeuZmeXuc5dVU29H091z7uar+t3PnPT3XPu5qv63c+d5wG3o+nuufdzVf1u5856e6593NV/W7nzvOA29H091z7uar+t3PnPT3XPu5qv63c+d5wG2wnBXVNVu9Gni5kXdTz7l61OL5O5XkVzXR38+U8+xC6Nd17qR/z7qvd/1u58638ArHono0cY7cV9TlRjV8/wDVoqn+xr/T7CPeTHxWr7L5xE1XVaOiVw0ybeqZ9F67qObFy5GTXFdf1Svlznn2op6fa92f8/ar3x/7Xc+dYOJHtQOF34xzf3laHT3x78ETLyvnTH1fVcfidpePi6pn2KI0HEqmi3kV0RzmO/lEsQ6Pes61d457Ms3tY1G9auavaium5k1zEx5piZZJ00YpjijpUxT2zt7E5/mYh0bqetx82TT5tVtz+aJT2Xf3OONmvaxXxg3b6H1jVLNqnVb9FFEZVcRHKuY8/uMP9Pdc+7mq/rdz53t8ZPrubv8Axxk/vJYo0zXo0a/uCiuK6de1amqJ5xMZdz52VcLeIl/aOuahkariTrmm6tZmxqmNkXOdd+jz9efGGCBjbjdxnPDHPHpy8LDmcS9l7b21qulcMdr5um5es2/I5mdnXuvXbtT30UR+VHaY5UxTHc5Gss7le7HFwY8W+n3+QBl0AAAAAAAAAAAAAAAAAAAAAAAAAAAAAAAAAAAAAAAAAAAAAAAAAAAAAAAAAAAAAAAAAAAAAAAAAAAAAAAAAAAAAAAAAAAAAAAAAAAAAAAAAAAAAAAAAAAAAAAAAAAAAAAAAAAAAAAAAAAAAAAAAAAAAAAAAAImqKoqirlMdsTDKs3iTv3M0GdBy926rd0yqjydVmu72TR9hM9/JioS2eEywxyu8psjsjqwAKAAAAAAAAAAAAAANhej9p93dHRx4n7R0jlka3cuWcqziRPKu5RER3f0Ja9PY2XufXNnbkxtw7cz7mHqONPOiuO6uPGiuPGJ8YStY3u8m7RXbuVWrtFduuiZprprp5TTMd8THhL9MK16Iz8XH7vKX6KPzzENjd07f0HpC7Vv732Pi2NO4gYFuJ1nRKJiIzYj/OW/PPmnx7p7eTXnS7d2zr+HZv2q7d23m26blFVPKumYrjnEx4SFjZPjduHhhw04hZG0bHBTbep04+LZu+iblc0VVzXRE93KWGxxl4eRERHATa3KP/jT8z8emvPPpC6p7mDh8/0UIuki5ZXa4erRw7/ALtX9JPzHq0cO/wAAu1f0k/Mh4uk2t1fGbh7NMxHAXavP3bk/M7HDSzc3xwb3Hsva+Vi6Vr97V/TD0D5byUZOPP8AmqKp8I/sQl92bl2zdpvWbtyzdo7aK7czEx+VvjymF24c/HeXHUurLtdda0HVeHHR61/b+88uzRn65m2J0zTYvRdrtdSeddz3IlB37Z2XmZ1+b+dl38q93eUvXJrn+t+K55zLtE4OK8ctt3bdgDDsAAAALZ0MPruZ3/Z7N+SETWzoYfXczv8As9m/JCVqeYit3+Hu/wCvX8r5fV3+Hu/69fyvlWQAAAAFg4N8OdJna+VxT4jTcx9nadPKxix2XNVv+Fuj/R59k+ft8IlGpNvjo839e2Nq1HE3Jy6dI2tZr9D5dzJ58tSpnvsWrffcnx5x2Ry7X5dJ/ZWBtbfdrWdu02523uSxGo6dXa9hRz7aqI5eEc+xiXFDfeqb93BGoZ1FvEwcePI6dp2PHKxhWPCiiI7OfnnxVDbl2eIfRP1nQb0+X1jY2RGdhc6+dfoSfZ0xHmiOcfmRrtez9ejjfs784b7s4L6lXE3sizOpaHNXOfJ36O2uI/Lyn8su30YtMu7O2FxK4k61avYnpfgXNJx5nsny09lce/Ffk3gdGnhfxA1Pd+lb1wbfpBpGmX4ya9TzY6luuiPZ00RPs+cc4nwe30uOLOi7kro2HsaMejb2LlVZWdexqIopzMmqZ58uXfTE1TMz4zPuJ5Pbu8/oZa9sXa+9NY3NvXWrGDm42DPoGL0T9PNfbcmifs+XZy8esnWn4epcVuMUY1NXVy9xarXVXXPOYt0V185n3ohhlURPf2vc2NujVtl7rwdy6Hdot52FX17flI50TE9kxMeaYa0m1X6Xe6sKrc2Bwy25V5Dbe0rFONRaoq7LmRy+nrnzzHd7/OfFDW0trjlwX37RPqp8NrWLqNyjldz8Sx5Wa6vcqp5XI/LMvWw+FHRi3xNqztPelemZd2nnFmjUOdce/Re59qbW478NRBsDxi6L26Nm6Tk6/tzPjcel2Im5ct0W+rkW7f2fKOyvs7Z5NfonnT1oWaYs0AKgAAAAAAAAAAAAADYDgHkVY3Rm4xV00RPOjHo7fdomGv1PsI95deC9vC0rgjuzM3lqXoLaWuZVrG8ljW+tl371qet9T80edi+/NlbRr2H9HXD/AFXPytMx8qMXUMPOoiL+PXPsJ92JanFdbcb6rC59Pftdb1238bZJxH9qDwv/ABjm/vK0Onvj34bF5s7P0jgpsra/FPUM251YuahpmJpdv6patXZ59e5Pj3zyTHipsPH27q+j3duajXq2i6/ai7pWRMcq57eXk6vdiZhbw5Yz+f2TH1fHyZam/wB/a6+GadNGaZ4o6TEVdsaBic/zMY6L82o6QGz/ACnLl6O5Rz8/UnkpPFqzw41Td2Hi8Sty59vdVODj4l+rS7H/ACTD5Ryjn1u3n29rEtlcP9w7S6R+l6HgZ+JVf025GpW867H1KrHijn15j3p7i8OU/KY+s4srvvO2/HmfhgvGT67m7/xxk/vJYo2F1rb3CnijvHW8Pa+s6rY3Zl3L+VZu3rdMYuXcjnM0UR5p8Gv2Tau4+Tdx70dS7arm3XHmmJ5SmeFwjfFz48u9Sy/l+YDLqAAAAAAAAAAAAAAAAAAAAAAAAAAAAAAAAAAAAAAAAAAAAAAAAAAAAAAAAAAAAAAAAAAAAAAAAAAAAAAAAAAAAAAAAAAAAAAAAAAAAAAAAAAAAAAAAAAAAAAAAAAAAAAAAAAAAAAAAAAAAAAAAAAAAAAAAAAAAAAAAAAAAAAAAAAAAAAAAAA9Xae4tZ2puDF17b2fcwdRxp527tue+PGJjxifGJbAalo+idIHTad57Ox8fSuIum9W5q+j84po1GImPqtv3fd8e6fO1qeltfXtY2vuDE17Qc25hahi19ezdt1f1THjE+MI1Lryp/TMrmrpD651vpZjFw45e9YoR5sTujBwukXote6tuRZw+I2nYsU6rpHX5RqNuiOUXLPP+VEeH5GvF63dsXrlm9brtXbdU0V0XI5VUzHZMTHhMEXLvdvkBWAAAAAAAAAABbehXTFXGHMonunQcyJ/NCJLh0J/ryZf4hzPkoStTyimZRFvNyKI7qL1cR+eX5P31H+MMv8An7n7cvwVKACAAM54G8P8niVxH07bVuZoxJq8tn3Y/wA3Yo9n+We6Gd9L/emNqO78fh7t2KcbbO1bcY9vHsz9TrvxHbPu9X2Hb4xPnVLoZaVi7O4K7r4m5/K1XkUXvJ3Z/k2bET//ABOaLcNOEmr73x8zf299Sp21tPyleVm6nldlzJmZma4tRPfzme/83Njfd012mk82dtXcO8dZt6PtrSsjUsyvvotR2W489VXdRHvtveEfDTSejztrVt98SNw2Ll7KxPQ1zBsU9e1NMzz8nET/AAtcz7kR8r0+jRb0fVrWbr23dP8Aod4daLXVbwbdcxF3Ur1Mc7mXk198xEd1HdHPn4NZekhxTy+KG/L2VZuXKNBwa6rOm48z9LyjsquzHnq/qhe9WTp7u5xy48bq4kZFzTsa5Xom2afpbWm2K+XlaI7puzHf73d7iRdz7tW67t23ZtUV3LtyuKKKKI5zXM9kREedfdP4IbT2RtbG3Lxu3Rd0i5lU9bG0LAjnl3I5dkTPbynz9nKPGV8MauSADaTZezNhbv2Tqm4uH/CCnW8TTLnkvJ6rrVdvMyaop5z1KLcTHZ7sxz8ER1m1gbi1W7pW2eF2qaZq8V9X0Lj5V29NufGJtzb5/nJdrphL19qbT3Hu/UY0/bWh5urZPPlVGPb5xR79fdH5ZXXZXRys6Ho/0Xcatbx9t6LY5VzgUXom/d/0JqjumfNTzn3nkcSOPc06bVtHhHpsbQ2xa+p+WsUxRk5cdvbM99ETznxmfdhN/BrU7tjujJY3bsLZ2TonFbX9Lxpiui5p1jK1Kiq/atzE9eivnPdz5cu2UF3x0fcbUN26xqGgcRNi4um5OXcvYmPc1GmJt266ucUT2+DXrNyMnOvzezsm/l3Z7671ybk/nmX4eStfaqPzGqvVL2XGOjhrNcc6OIuwJj3NVh+kdGnX5jnG/wDYkx+M0L8la+wo/MeTo+wg7s7i6eto3D9/+xPjOPmPW0bh+/8A2J8Zx8yF+So+xg8lR9jC6p2XT1tG4fv/ANifGcfMeto3D9/+xPjOPmQvyVH2MHkqPsYNU7Lp62jcP3/7E+M4+Y9bRuH7/wDYnxnHzIX5Kj7GDyVH2MGqdl09bRuH7/8AYnxnHzHraNw/f/sT4zj5kL8lR9jB5Kj7GDVOy6eto3D9/wDsT4zj5j1tG4fv/wBifGcfMhfkqPsYPJUfYwap2XCvo2blprmKd8bDqjz+msR/Y8bfHAndG0dl5u7cnXNt6lp+Fcoov+l+Z5auJrmIj+Ty8Uo8nR5qVw4b2qK+iHxK8OWq4k9nudRO6zVREc+DhphVOHW7dn5vD+/w53/GXiad6LnM0/UsSnnXj3Z74qjzP34gbm2Fo3Davh7w9vZmpUZ+VRlanqWTR1OvNHsIpj/BJB0nLenTz30uNz693zvXtv5/7/daMXXuGHEDbeh2OIOqaloOtaLixh05GNR17eVjx7CPHlMPA4vb40bVtQ29puybF/F0TbFuKNPrvU/VLtfXiZrn8sQmwZctymtJh6THHOXd1PE9pv8AC86tqPA/fufa3luPV9V0LWJooq1LTbVvrxk3KI76J5ePJj+Rxf63HSN+WtMn0pot+gPQU+yrw+p1Jj35jtSYW82V8M4+j455ts1rv7T4i+6VrXBLYerXt77U1PVNW1aaLlWnaZct8qMS5XE9tc+aOfuoPl5F3Ky7+Xf7bt+5N2uY88zzn5X5DOfJcp4068XBOK2222/P4AGHYAAAAAAAAAAAAAAAAAAAAAAAAAAAAAAAAAAAAAAAAAAAAAAAAAAAAAAAAAAAAAAAAAAAAAAAAAAAAAAAAAAAAAAAAAAAAAAAAAAAAAAAAAAAAAAAAAAAAAAAAAAAAAAAAAAAAAAAAAAAAAAAAAAAAAAAAAAAAAAAAAAAAAAAAAAAAmaY76iO1Y9p6bs7Y3C3Td9bo299Emqa1k3LWn4l2vlYtW6O+a/PLJdY4OX+JvD7R+IPDXa9Gl3sy5ctZemeio8n9JM0+Uo593bE9jeXHrHdvd58PUXPPWON1437fz8tdxYfW08Y/vatfrdDj1tHGP72rX63Q57erVR8V+ejVxhjv27j0+/m0QR0auMM+x23Yn3s2iTZqpAK9PRt4vRPVq2/ixV39Sc63E/mfXraOMf3tWv1ug2aqYbb1vVdu65i63ombdwtQxa4uWb1urlMT5p88T4wu2vaPo/SC27f3XtTGxtN4j6fZ62saRRyijVKIj+Ftf6f/wDKfBjHraOMf3tWf1yh6e1eBHHra+v4mvaDpEYOoYlfXtXaMyj8sTHjE+MJdLJUOvW7tm7XZv2q7d23XNNVFdPKumY74mPCXy3H4w8CdxcSduY298PQMXQd8xT1NW03ylMWc2Y/zlNcdkV/L3Si1ro2cY7tuK/oXoo5+FeVREwuy42JCLB62jjH97Vr9boPW0cY/vatfrdBtNVHxYPW0cY/vatfrdB62jjH97Vr9boNmqj4sHraOMf3tWv1ug9bRxj+9q1+t0GzVR8WD1tHGP72rX63Qeto4x/e1a/W6DZqo+LB62jjH97Vr9boPW0cY/vatfrdBs1UfWzoYfXczv8As9m/JDpetr4wfe9i/r1tSujpwf3/ALB3rqe4dy6Zj4eBRoeZa8p6Lor+nmiOUco95LYsl21Zu/w13/Xr+V8OImqvnXPfXMzLlpgAAcVzyolzPZHOeyIbWdEPgNRnRj8Rd84cU4Nv6rpeFkRyirl2+XuRP8jzRPvpbprHHa5cMcLbW1ejFotndtixj6PTo9F/UbeVT9LM1x164mJ75mZ7mn/GXiZuDjTvTB29pFu7haDVlUY2labbjlHbPKLlyI755dvLwh63Sz4y3eIW57m3tDy6o2rpd7lb8n2RmXY7JvT56I/kfnd3oJ7Q9P8Ai3d1+/b62Lt/G8rTPP8Az9znFH9XXZnbu3bvtFh6TWfjcJejXpuw9DuxYyNQoo02maa+VXk+XO/X7sT3f99o7ERERTHc2D6eO6fTvi9Z0GxeivG0LEi3MR4XbnbXE/kihr4uLOd3dLR0LtFwta4+aZGfa8pTg4t/Nt0z3eUo5RRP5ObMumDws4g3txa9xNz72NlaJZrot2rVF6ZuY2P2Ux2ebnVPPl52JdCLUrGn9IHTqL9fU9GYWRj0e7XMRMR/U3C3bunTLW/rnDbeePRGl7mwqp0u/XHK3dr9jdx5nwrjsrif9L3kt1WsZvFoJwn4n7u4ZatXn7ZzaaLV/l6KxL1PWtXuXnjwn3YV3Uel9vK7i3Y07aO3sDNuR/lUde5VE+flPf8AlSfjlw7zeGXELM25fmbmJP1bT7/2yxM9n5Y7pYMvlndjIt+b33XvvVZ1LdWs5GpXomfJ0VTyt2o81FEdkQx0djTsLM1PUsfT9OxbuXmZNyLVizajnXcrnsiIhpny60zERzmeUMg2psneW6pn6G9satqcR2VV4+NXNEe/Pc2M0jhfw34HbTxt28W/J69uTIo62JolPKq3FX2MUfy+XjXPZHmYHvnpNcRta54W3LmLtPSKY8nZxsC3HlIo/k87nfE8vNyhne/DXTJ5dXE6MfGG/YpvXNC07EivwyNRt0TH5ObtWei5xNro53b23LNX2M6jRMx+ZKNU3JunXcin003FrGo3ap5R6Iza6/ll5VybnlKqbl29NUTynnXK6qdlu9a9xF+6G2fjGg9a9xF+6G2fjGhDOpHu/nk6ke7+eTVO35XO70W+JlNuZt5O3LlXhRGo0Rzdf1sXFX7Xt/41totzr+23P6cnOv7bc/pyap2Wn1sXFX7Xt/41tnrYuKv2vb/xrbRbnX9tuf05Odf225/Tk1Tt8LT62Lir9r2/8a2z1sXFX7Xt/wCNbaLc6/ttz+nJzr+23P6cmqdvhZ56MfFWP8zoFU+b01t/Ow3ifwu3hw4t6dc3VjYdm3qNVyMWvHyqL0V9Tl1+7u74YVM18p+q3P6crXxk9rRwY5zMz1NR7/52Eu17aRRcuGNNVXRF4ndWJnlqeNM/moQ1eeE3tSOKfw7H+SFqYoNT7EcR7GHKsgAAAAAAAAAAAAAAAAAAAAAAAAAAAAAAAAAAAAAAAAAAAAAAAAAAAAAAAAAAAAAAAAAAAAAAAAAAAAAAAAAAAAAAAAAAAAAAAAAAAAAAAAAAAAAAAAAAAAAAAAAAAAAAAAAAAAAAAAAAAAAAAAAAAAAAAAAAAAAAAAAAAAAAAAAAAAAAAAAAAAAKZw/4kaNg7RjZe+NsxuHQbd+cjF6lzyd7Grnv5T4xLniDxZydV0zT9u7Kw8jaO3tOmarVjFy64uXK575rriY/M/Hh5wyx9c2te3hujcuLtrb1u9Nm3fuUeUuZFyO+KKPcdLidw+o2pg6drmj65Y3BtzU6ppxc+zRymK476K48Jd79X6fjt/b+aeHH/TTn7f1b/Ot/8bY/9F+7vvr1/wCMbv8AffFzdO6rk8690a5XPu6jd/vvH5+5X+aX7YONk5+bZwcHGvZWXfri3Zs2qJmuuueyIiPO88098tepg6nuzVM+xg4Wq67nZuRXFuzZt5d2quuZ7oiObYj0ZT0ddnTkapq9/WeKGr43KxiXMyu7Y0q1VHsq458qqvf757uzv6Wn2NF6Nm2KNT1G3j6nxS1XH54+LPKq3pVqfGr3fl95rvrmq6lrusZesaxmXczPyrk3b+RdnnNcz/8AncmtteHZ1Dcu5NR1C7qOduHVb+Xdrmqu7Vl185me2fHs96CNzbljsjcmtRH4wu/33lDSbr1vom3L982tfGF3++fRNuX75ta+MLv995Imjdet9E25fvm1r4wu/wB8+ibcv3za18YXf77yQ0br1vom3L982tfGF3++fRNuX75ta+MLv995IaN1630Tbl++bWvjC7/fPom3L982tfGF3++8kNG69b6Jty/fNrXxhd/vn0Tbl++bWvjC7/feSGjdet9E25fvm1r4wu/3z6Jty/fNrXxhd/vvJDRuvW+ibcv3za18YXf77j6JtzffJrf6/d/vvKDRuvQ9PNc+7uq/rlz53FWta3cpmi5rWp101xymJy7kxMfndAVN0AEAcTPKJmfCOYLJ0UOFdPEriD5bU7dc7f0fqX8zzXbnP6S1+Xlzn3IlsN02OJn0H7Kx9i6FepsalrFmabs2piPQ+JHZVEeaavYx7nNmnRN2nY2VwP0qcmjyGXqFE6jm1VT419sdvmiiKf62ivG/eN/ffFHW9xXq65tXMibOLRNXPydi3PKiPln8rE712v24sL7KI9yG/PQo27Z2lwIq3HnxFqvVbl3UL1c0cpps0Rypj3uVEz+VolomnZGs61haTi0V3L2bk27FFNEc5+nnl8j+ivHTLs8O+jTq2Jp9+Lc4elW9OxaquzrzMRb/ADzHOVyqYT3fz635rt7c+99a1/IueWqzs25eiufGjnyo/qiHiOKY6tER5uxzHbPKImZ80Rzac75ZFwx165tjiLt7X7PLrYWo2rlXPu5TPKf6pb1dMfaVe6+D1er6TTXc1XRL9vUMG5Yo69ye2Immjl29vOmf+5DS3ZXCDiHu+nyunbcyMXC6nXrzs/8A5Nj0UfZ9evlz5e4273H0htj8ONk6boMalj7r3DhYNrHrtaXX17E10URTzm7PZy5x7s+4xY6Y6k7pN07L8XcTh3bzJ56tGlV1ZMT7OOcW+fP8vNrGyHiPvLW9+7uy9za/fi5l5HZRbo7KLNuPYW6fch5ut6Xe0m/j2b/s7+LbyeXmiuOcQ1J2c8sp1adBtb0HNjYGFpWscXdxW48hp9u5awJrp/g6aKOd67Eefl9LE++1WxrF7LybOHjR17+RcotW489czyj+uW9XHei1wr6IFra2HXXYyLuNY06Kqau3ylc9e92+7yuR+VMm8Z7tPeLW+NT4h77z9zanermLtyaMS1z+ksWYn6WiPydv5WJkRyiKY7hWK7mh0eU1rBt9WJ6+TRRynunnMPy1O3NrU8y1MRE0X7lHKP8AXl2NuW/K7j0u39nm2Kfz3Ih++8bHoXd2sY3hbzbtPdy/lqPJAEAAAAAAcV90rbxjj/1ZODE/6Oox/vIRKvulbuMftYeDH+0f3kJfZueESXnhL7Ufin8NsfJCDLzwl9qPxT+G2PkgqY+UFj2MOXEexhyrIAAAAAAAAAAAAAAAAAAAAAAAAAAAAAAAAAAAAAAAAAAAAAAAAAAAAAAAAAAAAAAAAAAAAAAAAAAAAAAAAAAAAAAAAAAAAAAAAAAAAAAAAAAAAAAAAAAAAAAAAAAAAAAAAAAAAAAAAAAAAAAAAAAAAAAAAAAAAAAAAAAAAAAAAAAAAAAAAAAAAACw7Nr23v3hNg7D1PcuLtzVtGzbmRhXc3/J8mi53xM+eGd5nGDH4P8AD3Qtg7QydB3Rm4lVy7m5c2Odijr1zVyjz185axzTTPeRHLuayzlx1Z3cMOG4Z7mV1502Bo6Vm9OfK9tTad63PfTOLPIr6VO5bNm5Xpex9oabnXI+ly7NievRPn5T2Nfhz6Xp667+4dZ1XcGt5Os61m3c7Pyq/KXb12eczP8AZHuOgDTOwAAAAAAAAAAAAAAAAAAAB3dDwqdQ1zTtPq7svLtWZ96uuIn+qXSZtwE0+3qvGnZ+n3qedq7qlvrR73Of7Eanl/QPjTnY+zOAm4Lln6W1haPViWeXh1qItUftQ/mJRExbiJ7+T+g3Tr1SvT+AeXjUT26hm2Mar3uc1/8Agfz7TFvk8q90PdDt690gNBi7VMU6fFzP/Lbjsj88tiv/AEhGp04/CjStK5/T5uq0V/kt0Vc/24ahcKN+avw23lY3RolnFv5Nu3XZqtZMTNuuivvieXKfB73HDjLuXivXgenWHg4OJp011WLOJFfLrV8uc1TMzznsgs7pMprSbM34TYO+de3Db0jZV25j5PLncyaKIiMejn31V+DOuGfR71LW9Hx9xbv1izt7SLsRcoorqiLtdE90857KOfu81Q3ZvHYfALbkbb2rpvovWsi3F6KK+3ynPuu3bnjHmiP6nqw9P+rPtHyub/8AQm/p8H3Z/wCE1408JeK2LcxsmrW9X3nizaiK6rdyuarVXjHk+fd7qb6Xws4h6hfixh7N1brz412OpRHvzKg7b6Te/dPvXPTbF03Vrddc1cpo8nXRH2ETHh76s8PuLOk8ZqM7ZeZi6jt7Pu403Ld3Fyu2Yjlz6tccpiY593i3OPg5L2v8/wBnHP1HruDDfJjLJ7ohjcOdt7KybWdxS3Ji0XLdUXI0PTK4yMi74xFdUdlES8TiBvDZ24tdytTxNoZlFWRXz69/PnnRERyiKaY7IiI8Hl8V9m5+xd85+g6hfnKqpmLtnInvvW6+6qfd87HNNxas/UcTAovW7M5N6izF25PKijnPLnPuOGWfT9smv8vbxcP1NcuWdts/af4/7WbofbCq3rxfx9WnE5aNoExl34r+mpm5/m7fb39vOfyKT/6RHc1NeVtrZ2PkRM2+vqGVa838i3P7xf8AYm2dq8EuE1dmL1FvB0+xOVqGZXHKrIucu2uff7IiPeh/PDipvHO3/v7Vd1Z/Oicy79QtTV/BWo7KKI/J/XMuEu699nTjpjADbk9PaHZu/Q/xjj/vaHq8W7FeLxR3RYudWao1K7z5d3bPN5mzomreGh0U986ljRH6Wh7nHDs4w7rjxjU7kfINXww4AZAAAAAAcT7GVu4x+1i4Mf7R/eQiM+xlbuMftYuDH+0f3kJk3j4RJeeEvtR+Kfw2x8kIMvPCX2o/FP4bY+SCpj5QWPYw5cR7GHKsgAAAAAAAAAAAAAAAAAAAAAAAAAAAAAAAAAAAAAAAAAAAAAAAAAAAAAAAAAAAAAAAAAAAAAAAAAAAAAAAAAAAAAAAAAAAAAAAAAAAAAAAAAAAAAAAAAAAAAAAAAAAAAAAAAAAAAAAAAAAAAAAAAAAAAAAAAAAAAAAAAAAAAAAAAAAAAAAAAAAAAAAAAAAAAAAAAAAAAAAAAAAAAAACkdGH2wWzPxh/wDw603ULo03qMfj5sy9cmIp9MopqmfdorhK1J3bS/8ApDK+XCTRrfP2et2+zz8rVxow3q/9IVamvg/pV2O63rdqZ/LbuQ0VTFrk8jNuBe2qN2cVNE0m9bqrxvL+Xyf5ujtnn7ncwleuhjiY9vdeu7gyq4oow8KMaiZ8a7vPs/8AoduHHrzkeL13L9L0+Wf4Yfx/4g6jvXfGdjeiblnQ8C9OPhYdFXK3EUdnWmI75mY+R52FxCrzNAxdv7y0XH3Jp+HR1cS7XXNrLxo81F2OfOPcmJYlr00zr2o1R3Tl3f25dNLyZTK1vH0/HOPHDXafz/dlupaBomoabk6ttHUr92nFo8plabmxEZFqn7KiY7LlEePdPuMr6Lul6hc4iV7ltRVRp2h4l+/lXp7In6nPKiPPM9/L3Euwsq9hX5yLMzFU25t/kmOUwo2jbltafuPB0HTciMfRsPTrtPKK+UXr1zHma7lU+M855R5uTpxdNymXj+dnH1M5JxZYTvuf4/8APw9PeG59vcW9J0+/q+r4+gbr0+iux5TKon0NnWpnnRPWoiZoriPP2J7uPat/RLfXvaxo2ZE93oTKi5M/mY/bj6lTE0+DmKaY7qYj8jnlyTLdynd24+H6X24Zax+P/ay6BPG7izw6u6Fh6nf1Pb+lV0W5tXbtFFdyaY5xbme+vlHhKP5Vi7jZV3GyKJt3rVc27lM98TE8phtt0Lb1NvhTr1cc4qtahcq5/wDyolqfrF6cnWM7JqnnVdyLtczPjzqlrPjxxwxynu4+n9Tnyc/JhfGOtOqA5PY9zh9T5Tf+26Ps9XxI/wB7Q7vF3IryuK268i5y5zq+RHZ3dlcx/Y7nAbA9NONO0ML7Zqtqv+h9P/Y8Lfd3y++dwX/tmqZM/wC9lNtPHAVkAAAAABxPsZW7jH7WLgx/tH95CIz7GVu4x+1i4Mf7R/eQmTePhEl54S+1H4p/DbHyQgy88Jfaj8U/htj5IKmPlBY9jDlxHsYcqyAAAAAAAAA9Hbmh6ruPW8fRtFw7mXnZNXUt2qPH3/NHumt3sW63a84VDcXAvfGjaPf1DraZqE4lHlMvFwsqLl+xHjM0ePL3EvjtXLDLC6yjHHy8fLN4XcAEbAAAAAAAAAAAAAAAAAAAAAAAAAAAAAAAAAAAAAAAAAAAAAAAAAAAAAAAAAAAAAAAAAAAAAAAAAAAAAAAAAAAAAAAAAAAAAAAAAAAAAAAAAAAAAAAAAAAAAAAAAAAAAAAAAAAAAAAAAAAAAAAAAAAAAAAAAAAAAAAAAAAAAAAAAAAAAAAAAAAAAAAAAAAAAAAAAAHp7U1D0q3Xo+p9eq36EzrF2quJ5coiuOf9XN5jiqOtRMeeOQsf0S6X2m2tzdHLV83Dib/AKHos6hY6nbzjrR2/wBCuZfzuiecdbzv6NdH3WMbiZ0bsLCzL3Xu16fc0jNmI9hVFHU/YmiX89NyaPlbf3FqOg51qq3kafkXLFyivv7J5R/VyZxrfJ8uhM9krFsrUqdsabtrbXOmjMzL93WtR8JtxFiuLFuf2+XuwkeDepxc21kzYt3/ACc9aLdz2Ez4c3ajV82dVvaneuVXsu/TXFdc+7HL5HbizmF28nqOK82PR7Ojcu1X71y9X33K5uVflnm+XERyiKfM5c3cAAHEzTH00zER7r9sTEy82vqYmJkZFXmtWpqn+qDueG0nQyu8uG276KquVuL1dX+6atZU0zl35iecTdqmPzy276LWjV7Q4T6vn7vt1aTj6jl/+1fU58lNEURM8+7nPNrvxm2FqHD/AHjf0+/TNzAyJm9gZMewu2pnnHb547nq5sb9PB8r0fJh/q+WS+df48sIAeV9VSOjHzt8btBzOXOMCjJy6vc8nYuSnufk+jdQysyf/aL9y7+euZ/tVPovTaxt1bp1W9H1LA2nqFfX81ddEUR8spJa/gqPehPdv2fQCsAAAAAAOJ9jK3cY/axcGP8AaP7yERn2Mrdxj9rFwY/2j+8hMm8fCJLtwsu+S6IvE+eXPr6jjU/nihCVy4ZxM9ETiby7f+dMb5KCpihtPsQp9iKyAAAAAAAAKp0XtTw8DiVcxMjJ9CX9S06/g4WTy5+Tv1xyoStROjN7YDZXm9MY/YlrHK4ZbY5eKcuF477qZwq4c7k4X72y97b41jTsLSsKxf8AL105sXK83nHLqdTv7Z8/ikWzNj61xB1vVL+iW8fE06xdqvZOXl3It2MeiqqZiJmfHl4PnjVkZN3iruizdyb9y1b1XI6luq5MxR9PPdHgzvg9p1nevBncuxbGoU6Tn2c23nxk3aZjHvx3RbuXO6O3u5uuNxzvTI8nJjycGN5Ld26njxPnTD9/8LNe2lolnXvR2m6zo1y55L0dp17ylFuvzVx3wwNctU0mzw14Ibj23rmvaXnavr+Ta9C4eBkxeotRR33JmO5DWOXGY3tHX0vLlyY2271fPyAOb0gAAAAAAAAAAAAAAAAAAAAAAAAAAAAAAAAAAAAAAAAAAAAAAAAAAAAAAAAAAAAAAAAAAAAAAAAAAAAAAAAAAAAAAAAAAAAAAAAAAAAAAAAAAAAAAAAAAAAAAAAAAAAAAAAAAAAAAAAAAAAAAAAAAAAAAAAAAAAAAAAAAAAAAAAAAAAAAAAAAAAAAAAAAAAAAAAANk+gdv6jQt85myNQv+Tw9cjymL1p7IyaInsjzdaOf5Yh+vTy4e16PvPG35p9nlg6vEWMuaI5RRkUx2TP+vHj54a26fm5em6hj6jgXq7GXjXqL1i7T30V0Tzifzw/oftXU9v9IfgFexc6aKMjJseh82iO2vEyqe6uP+9EVR52L2dcbuafzqHq7v29qu09zajtzWrE2M7T702r0eE8u6uPPEx2xLym3LQBHugMo2hszM1zFuavnZljRdAsVcr+p5fZR/qW477lfuQ6ekaloencrk6D6Z5UewnLu/UqZ92iOyY996+rZtrXcqzk7v3T1rdmmItYGm2uvFqjwotx/B0OmGGPmuPJnn4nb8+f9p/5Zzm6nw82NsfSdb2ntqnW9U1DIu27ebrlHXiKLXLnci1E8o5zPZEvb4S8T+KG9N2Y+g7f07b2FE8qsrJs6XRFOPa8ZmY/qRzfG5rWu06bp+nYHoHR9KsTYwceqetcnnPOuuufGuZWnN3BPAnh9tvRNJt243LrU29Q1bIro5zbtc4+px8n9btjn93a6xj5/NwyYTG49XJlvW/57T+23W6W3Ey3rOTTsLScib+Lg3YnUr/PsvXo7qI9yPH3WN8MtxVb80D1Jt1Xqb9N+iZ0DPu9tzDyIjnFuZ+wnuYRxaw4w+Ius1W569jMv+jrFf2du7HlKJ/NW6fDyuuzv/bty3VyqjUsflPv3IYy5Mvq7v7O/H6bjnpZMPjcv5/n+HR17SNU0HV8jSdZxLmJnY1U03LdyOX5Y88T53QZbxG17P1LW9R03UavRUYmfdjFvXO25ao68/U+fjR7k9zEnLOTG6j28dyyxly8q7wXtU43Bzi9rHsLtvSsbEtz/OXe2I/JCRRHLlHmWTTLHpb0NdXzo+p3tZ3Xasc+6blq3b58ve580blznl0s7ADTIAAAATPKO0WTofaDou4eLd3E13TMfU8W1pd69FjIo69ua4jsmYRYjNdVHUnthd+OHL1tHBfl9rz/ANuh+GRxz2v16rVfAzZNcW5mmOye6J957PSc1vG3HwN4Ta1iaNiaLYyfR/UwMX+CsxFdEcqPzc/yo3J5a8Lzwl9qPxT+G2PkhBmyfRu1bS9D6N/EbVNZ0LH13CsahZmvByJ5W730kcua1nHy1qiY5R9NS+l1wuMHDO5fs4/qCbZppuXKaZ7effMR5vdeJ0stuaJtji7Vg7f0vH0vTr+nY+TbxrFPKima47ez8hvuWdklAVkAAAAAAUvotxE9ILZ3OOfLNmf/AKJTRS+iz7YLZ/wuf2JStTyqnELROjDkb71m9rO9dx42pVZ12c21bt3Joi71568RPk+7nzdfU93cCtmcH95ba4d63q2q524rFu1NrNs1zETHOInnNERHKJn+pCuJ8/8A6m7q/HGX+9ljqaXq7afNuiKYjz8u99A0wAAAAAAAAAAAAAAAAAAAAAAAAAAAAAAAAAAAAAAAAAAAAAAAAAAAAAAAAAAAAAAAAAAAAAAAAAAAAAAAAAAAAAAAAAAAAAAAAAAAAAAAAAAAAAAAAAAAAAAAAAAAAAAAAAAAAAAAAAAAAAAAAAAAAAAAAAAAAAAAAAAAAAAAAAAAAAAAAAAAAAAAAAAAAAAAAAAAAKp0ZeKmRwu4gWr+Vduzt/UZjH1K1E9lEfyLsR56Pk5wlYliy6bvdNHhbY3dtS1xH21bt39QwceK8nyMc/RmJy5xVHLvmmO2PcaQxMTHOO2JbedCPi/RetW+Fm5b0Vcon0nvXZ59ejxx55//AE+52Jj0teEVfDnec6xpFiv6GtYuTcsTTHZjXZ7a7U+aPGPc7PBJ27OmXebiIgNOQAD3OH+l+nW+9B0maOvRk59q3XHno68c/wCplnSd1X014za9ymryeF1cG3Hmi3HKXtdFPTMWjff0W6rV1MHS66LFj/4uTd+kooj3eUzP5E/3Jm4+rcSNUz8uvlYyNSuXbk/6HXdunXFPzXjmcy9Vf/5x/wA13uJt/wApXt2zXVE5OPoli3d/Lzmjn/3JpY/tnMowNyaZnVzypx8u1dn3orif7Hxreo3tV1bI1C/9LVfr5xT4UUd0RHuRHY6TGeW87lHfj4+njmFdrV8n0bq+Zmfb79y5+eZl1K56lE1eanm5eptTR8ncO6dJ0PEtVXr2fl27FFEePOY5/wBXNi11xniK9xys1bd6P3CfaldXUyLtjI1TKtx4xcmJtzP5JlDVr6Z+pY17jHRoGDRVRibd0vH063Tz5x2R1/kriPyIokay8gCsgAAAC5dCaZp4t6jVE8pjQ8mY/Mhq49Cj67WpfiPJ+RK1j5/nyh1ztuXf9ev5ZW3jH7WLgx/tH95CJXPZ3f8AXr+WVt4x+1i4Mf7R/eQnws90SXnhL7Ufin8NsfJCDLzwl9qPxT+G2PkhamPlDNN/y/D/AJ+1+3C2dNyJjjJhzNPZOg4nL/60T03/AC/D/n7X7cLj04fru6X/ANncX9qtPc/ShADTIAAAAAApfRZ9sFs/4XP7EpopfRZ9sFs/4XP7EpWp5jFuKP1zt1fjjL/e1sdZLxXtVWeKO6rVXLn6b5M9nu3JljSsgAAAAAAAAAAAAAAAAAAAAAAAAAAAAAAAAAAAAAAAAAAAAAAAAAAAAAAAAAAAAAAAAAAAAAAAAAAAAAAAAAAAAAAAAAAAAAAAAAAAAAAAAAAAAAAAAAAAAAAAAAAAAAAAAAAAAAAAAAAAAAAAAAAAAAAAAAAAAAAAAAAAAAAAAAAAAAAAAAAAAAAAAAAAAAAAAAAAAAAAP0xb+Ri5VrJxb1yxkWK4uWbtueVdFcTziYlvhwf3rt7pDcJM3Zm7YojW7Vim1nUdnXr5ewybf5e/zTz8JaFvd2FuzWtkbrwty7fyfIZuLXz5T7C7R426o8YlLNt45ad/ivsPWeHG9czbOsU9eq1PXxsimOVGRanuuR/bHhLE2/Oq6fs7pR8HrWbiVW8DX8OJ8nXV23MLI5dtuvxm3V/j3w0b3dt3Wdp7hytA3BhVYeo4lfVuW6o7JjwrpnxifCUlMsfd5R9N4RMz4RHiPc2Bas3t6aRF/l5G3kRer590xb+n5f1N4zqsny5Z5zGXK+zP6s2Nubk2ZsjEriI0zJt52ozH+czbnby/7kcoj35SjKnnmZFVXfN6vn+eXe1HV8rJ3Rka9Tcn0RXmzkxXPfz6/OP7HT1C7bv596/Zom3buVzXFE+HPwbzzmXhy4eO4Xd82d/39/8Al+IDm7i69CvbVnUeJmVuvPooq07bOFXl1zX2fVZiepynzxymUJmezs7fNDaPdeN6jPRLx9vXI8jubetflMumY5V27cxEzTPmmKOUe/zSt4zu113vrt3c+89Z3HeqrmrUc25kR155zFE1zyj8kcoeOCsAAAAAAC89CGxRc4na3dnnztaBkTH5exBl76EF6ijiXrluqr6a5oGRFEeflPNK3j5QS57O7/r1/LK28Y/axcGP9o/vIRK57O7/AK9fyytvGP2sXBj/AGj+8hPgnuiS88Jfaj8U/htj5IQZeeEvtR+Kfw2x8kLUx8obpv8AGGH/AD9r9uFw6cP13dL/AOzuL+1Wh+m/xhh/z9r9uFw6cP13dL/7O4v7VZfJ+lCAFZAAAAAZnw94Y7r3xi38zRsbHs4GPPUuZuXei1ZifNEz3ysxuV1Gc88ePHqyuowxS+i17YLZ/wALn9iWOcQNhbl2LmWLGv4dui1kR1sfJx7kXLV2Pcrjs5+4yTote2E2f8Nn9iUylx8rx5456yxu4x7jJ9dvdv41yP25YoyvjJ9dvdv41yP25YoKAAAAAAAAAAAAAAAAAAAAAAAAAAAAAAAAAAAAAAAAAAAAAAAAAAAAAAAAAAAAAAAAAAAAAAAAAAAAAAAAAAAAAAAAAAAAAAAAAAAAAAAAAAAAAAAAAAAAAAAAAAAAAAAAAAAAAAAAAAAAAAAAAAAAAAAAAAAAAAAAAAAAAAAAAAAAAAAAAAAAAAAAAAAAAAAAAAAAAAAAAAzLhBxF1/hlu61r+h3OvTVyt5eJXP1PJt8+2ifNPmnwbi7r2/w/6T3Dq1rOhZdvD13Go5Wb80x5fFueNq7HfNEz88NCGR8O97bk2DuWzr+2s6cXJt9ly3PbbvUfYXKfGP62bG8cvavw31tPX9k7kyNvblwK8PPsz3T20XI8K7c/y4nzvM0zKrwc2jKt+yp5/wBcTH9rdvb+9uE/SU21RtzduLa0ncsU8rNmu5FF2iv7PHufy4/0Z/N4oFxi6OO+9hXruXpuLc3HokVc6MrDtzN23H/xLUdv5Y5wTKwyw3OyMBPZXNE9lUTymJ7JiRpgD+XFEfTVTPKIjvmVz4K9HXcO7OWvbz8ptfa1mPK3ruT9Tv36I7+pE+wj/Tn+tGtWvvol8L7G59fu763PFuxtPb1U37ld72GRdojnEf6lHfP5mF9IHiPe4mcSMzXKZrp0vH/5PplqezqWYnvmPPM9s++zjpC8YdK1LRrXDHhlbjT9l4ERauXbEdT0dNPh5/J8+3t7a5QUk2tAFYAAAAAAFx6FH12tS/EeT8iHLj0KPrtal+I8n5ErePn+fKHXPZ3f9ev5ZW3jH7WLgx/tH95CJXPZ3f8AXr+WVt4x+1i4Mf7R/eQnwT3RJeeEvtR+Kfw2x8kIMvPCX2o/FP4bY+SFqY+UP0eInVsGJ7pyrUT+khc+nbTFHGjBop7KY0HHiI8309xDNE/jnA+F2f3kLp08Pr1YX4ix/wBu4nus/pQIBpgAAAAXvSdB1XiN0ctF0TZVyLmZouXcjVdP6/k6r8185or590+9PmQRsHsGK8boU73zsK5Vj5Ppxa6163M01zEXLfKOce+1hn0efdy5uG8snTdWXfy6PFnF+g/gJt/Yev5uPl7kjOry6bNu95ScK15pnw83Ji3Ra9sFs/4bP7Epteu3L16q9eu13rtffVcrmqZ9+ZUnote2C2f8Nn9iU5Muqnp+L6U1bu27Y9xk+u3u38a5H7csUZXxk+u3u38a5H7csUR1AAAAAAAAAAAAAAAAAAAAAAAAAAAAAAAAAAAAAAAAAAAAAAAAAAAAAAAAAAAAAAAAAAAAAAAAAAAAAAAAAAAAAAAAAAAAAAAAAAAAAAAAAAAAAAAAAAAAAAAAAAAAAAAAAAAAAAAAAAAAAAAAAAAAAAAAAAAAAAAAAAAAAAAAAAAAAAAAAAAAAAAAAAAAAAAAAAAAAAAAAAAAfVFddu5TdtV127lM86K6Z5TE+eJjuXXhV0oN+7QtWtP1rqbn0yiIiIyq+WRbjs7rnj2R2RKECVZlY3IvcZejXvyPL702hGDmU9kTk6d16vf69r+14mRgdDiu5VkemGXT4+Tt15ER73Lk1Scco8ydLXVa2y9WHo8bA+rcP9h+muo0W5ijJnF8n2/6Vdzt/NCM8YONu+eJtU42qZUYGkRXzp07EmYt/wDfnvuflTQXSdVpT7EBWQAAAAAAABcehR9dnUKfGdCyeUefsQ5sB0ONEzNL13VuJmr0zgbY0rS8i3Xm3qeVF2uY5dSnzzCVrHy1/uezu/69fyytvGP2sXBj/aP7yESvVRXcu1x3V11zHvTMrbxj9rFwY/2j+8hPhZ7okvPCX2o/FP4bY+SEGXnhL7Ufin8NsfJC1MfKH6J/HOB8Ls/vIXTp4fXqwvxFj/t3EM0X+OMD4VY/eQufTw+vVhfiLH/buJ7rP6UCAaYAe5svaG5t56nXpm19GyNUyrdvylym1HZbp88z3QLrbwxUPW+8Y/vJy/0lB633jD95Gb+koTa6qXtgNoVTT0G959X+XrduJ97ylth/rfuMX3kZv6ShZNucJ+IGL0Sdy7Svbdv0a3matbv2MTrx166IrtzM/wBU/mS1qStS1L6LPtg9n/C5/Yl+vrfuMX3kZv6ShnvR44K8Tdv8Z9ua5rW1sjB0/Dvzdv3rldHKiOpMf2lqSXaK8U6q7nE/dVVUzM+nGX2z/OyxxkPEyetxJ3TPn1jL/e1seaYAAAAAAAAAAAAAAAAAAAAAAAAAAAAAAAAAAAAAAAAAAAAAAAAAAAAAAAAAAAAAAAAAAAAAAAAAAAAAAAAAAAAAAAAAAAAAAAAAAAAAAAAAAAAAAAAAAAAAAAAAAAAAAAAAAAAAAAAAAAAAAAAAAAAAAAAAAAAAAAAAAAAAAAAAAAAAAAAAAAAAAAAAAAAAAAAAAAAAAAAAAAAAAAAAAAAAAAAAAAV7gHwjo3hZv7y3lk+k+xNK53MvMu1dT0T1O+3bnzeEz+SO1Fk2/PgTwms7rx7+896ZXpNsPS/qmVl3J6k5kx/mrfyTMe9Ha/DjnxcyN9XLO3tvY/pLsrTuVvT9MtR1KbkUd1y5Ed8+aPD3zj3xYr35l4+39u2PSnZGlcrWm6fbp6kXKY7IuVx5/NHh76WJItuu0cT7GVu4x+1i4Mf7R/eQiU90rbxj9rFwY/2j+8hclx8IkvPCX2o/FP4bY+SEGXnhL7Ufin8NsfJBUx8oZpv+X4f8/a/bhcenD9d3S/8As7i/tVobgTFGdjVT2RF+3M/04XHpvVRXxZ0i5bnnRXt3EmJ9znWnufpQkGV8LNhbh4j7ss7c29Yibk/T5GTc/gsW143K5+SO+ZUk2+OGWxdf4h7qs7e2/Y69yr6a/kV0/Usa343K58I9zxVniZv3R+F+36uFvCHNmi7RP/P24bXLy+Xd8aLdcd0R7nd3R4zP6cVN+bd4bbVvcJeE2R16p+k1/X6P4XJud1dFFUfm7OyI7I8Za8x2Jra70yC3vje9qJpt7z3FHn/5zu/O+/o8339+24/jO787HRpnbIvo8339+24/jO7859Hm+/v23H8Z3fnY6BtkX0eb7+/bcfxnd+d8XN772uT1qt57imY//c7vzvAA2+71yu7cru3a67lyuZmuquec1zPfMz53wAgAAAAAAAAAAAAAAAAAAAAAAAAAAAAAAAAAAAAAAAAAAAAAAAAAAAAAAAAAAAAAAAAAAAAAAAAAAAAAAAAAAAAAAAAAAAAAAAAAAAAAAAAAAAAAAAAAAAAAAAAAAAAAAAAAAAAAAAAAAAAAAAAAAAAAAAAAAAAAAAAAAAAAAAAAAAAAAAAAAAAAAAAAAAAAAAAAAAAAAAAAAAAAAAAAAAAAAAAP0xrF7JyLVjHt1Xb12uLdu3THOa65nlEQ2A4UdG3U9S3PixvrU9O0/Aot+iMjTrOVTOZdiO3yfV76OfjK9NstkZy5MMLMcrrbGeAnCKjeNu/vHeGV6TbF0vncy8y5V1PRPU77dufN55/JHa/Hj3xcub6u2Nt7bx/SbZGl8ren6dbp6nlep2RcuR8keHvv06Q3FTK3dn07Q0XAr0HZ2i1+QxNLijyc1zR2da5Hn81Ph76Rs6+XW34AFYFm4qzVPRe4Oc47PKapy97ysPH4I8Kq97zl7h3DmekuytKpm5qOo3OzynLtm1b598+efD31H6XWbtzUeEnC3M2hiV4WgV+jacGzXR1Ji3R1I5zHnnlz/Kza6YzUrWpeeEvtR+Kfw2x8kIMvPCX2o/FP4bY+SFrOPlBrU8q7dU90V0TP54bXcUtF4NcTdR0rcObxj07SMmzo+PhTjU0RX1ZoiZ7efbz5z/U1Qj2MHKPNBZsl0t1ng7w6yNTtY2Lx421ct3bkW6KfIz5Sec8oiPDmyPjZuHA4LaJe4PcO5v2M29bou67rVfKL+R16OcU0THd2T4d0diA7Rin6LdF7I/jCx+3Cq9NSP/WH1nl/1LD/AHEJpqXsjERygBpzAAAAAAAAAAAAAAAAAAAAAAAAAAAAAAAAAAAAAAAAAAAAAAAAAAAAAAAAAAAAAAAAAAAAAAAAAAAAAAAAAAAAAAAAAAAAAAAAAAAAAAAAAAAAAAAAAAAAAAAAAAAAAAAAAAAAAAAAAAAAAAAAAAAAAAAAAAAAAAAAAAAAAAAAAAAAAAAAAAAAAAAAAAAAAAAAAAAAAAAAAAAAAAAAAAAAAAAAAAAAAAAAZPwo1fA0HiToGsapTzwsXNorvdnPlHdz/Jz5rbqvDHdV/jb9Hunbk06dv3MyNQp1qrOjlbsc+c0T7vLs5dzWt+kX8iMf0N6Jv+Q+1eUnqfm58nTj5ZjOmz8vLzenyzz68MtdteN9mWca9a03cXFXX9Y0flODeyvqdyI5eU5dk1/l72Hg55Xqu3p48JhjMZ7Cp8CeE1/fmRka9r2VGjbL0v6pqWpXKur14jtm1bmfHzz4e/2PjgZwru74uZO49w5npNsjSPp9T1K5V1Yucu2bVufGZ8Z8OfnmIftxt4r07rs2do7Qxp0XYum8reFg26erORy/zlzz8++I/Oz5dNa8vvjzxWxt22cbZ2zsL0o2NpP1PCxbdPUnJmP87c8/niJ9+e17HGq7Vd6MnBiZ7OzUI/NciENn2Mrdxj9rFwY/2j+8gWd9okvPCX2o/FP4bY+SEGXnhL7Ufin8NsfJC1nHygsexhy4j2MOVZentH/pbon4wsftwqnTW9sNrHwLC/cQle0f+luifjCx+3CqdNb2w2sfAsL9xCXzGp4qMAKyAAAAAAAAAAAAAAAAAAAAAAAAAAAAAAAAAAAAAAAAAAAAAAAAAAAAAAAAAAAAAAAAAAAAAAAAAAAAAAAAAAAAAAAAAAAAAAAAAAAAAAAAAAAAAAAAAAAAAAAAAAAAAAAAAAAAAAAAAAAAAAAAAAAAAAAAAAAAAAAAAAAAAAAAAAAAAAAAAAAAAAAAAAAAAAAAAAAAAAAAAAAAAAAAAAAAAAAAAAAAAAAAAAKfwO4V3d7XMjce4sr0l2Tpf0+o6jcnqxciO+1bnxmfGfDn5060jHoy9YwcO7z8lfyrdqvl38priJXTpjbmycLdtrhRotujTNq7fxrEW8LH7KLtyuiK+vX5+XPx8ec98pWsZ7sV448VKN3W8baW08X0m2NpH0mDg246nojl/nbnnme+Inz+eUrAS3bifYyt3GP2sXBj/aP7yERn2Mrdxj9rFwY/2j+8gyax8IkvPCX2o/FP4bY+SEGXnhL7Ufin8NsfJBUx8oLHsYcuI9jDlWXp7R/6W6J+MLH7cKp01vbDax8Cwv3EJVtOaad2aNXXMREahYmZn/XhVemr29IbWPgWF+4hL5jftUYAVgAAAAAAAAAAAAAAAAAAAAAAAAAAAAAAAAAAAAAAAAAAAAAAAAAAAAAAAAAAAAAAAAAAAAAAAAAAAAAAAAAAAAAAAAAAAAAAAAAAAAAAAAAAAAAAAAAAAAAAAAAAAAAAAAAAAAAAAAAAAAAAAAAAAAAAAAAAAAAAAAAAAAAAAAAAAAAAAAAAAAAAAAAAAAAAAAAAAAAAAAAAAAAAAAAAAAAAAAAAAAAAAAAB2tHnlrenTHZMZdr9uFd6a9qLfSJ1quJ5+Uxsaqf0UR/YkGkfx1p/wu1+3CydN32w2rfA8b93CXy1PCJgKy4n2Mrdxj9rFwY/2j+8hEZ9jK3cY/axcGP9o/vITJvHwiS88Jfaj8U/htj5IQZeeEvtR+Kfw2x8kFTHygsexhy4j2MOVZfrjXfQ+ZYyOXPyVyi5y8/KebZfdXFzo87x1ide3Vw613N1S7at0XrvOI59SmIj2NyPCGsYlm1mWl9r3V0Wpqmr1Odz0857ouRyj/eOPoo6LP4Ot0/pI/8AuIGJpeqr59FHRa/B1un9NH/3H4292dGOb9FNzhnuSi1M/T3PRXOaI8/Lr9qEh0nVW4e9tl9HvbGxNN3zj7J1nXtv5sRPovTr/XosT4Rd51xNHb9L7k9jBsLSuAnFa1c2zszTMzY+6q6ZnTLmZc52Mu5H+ametPbP5Pc59zBuAvFvK4eZt/SNWxvTbZ2pc7epabcjrUxE9k3LcT48u+PF6vHThRZ2zjYvEPh7mVansjOmL2Nk2Jma9PrmecUVTHbERPdPhPZKOm+yVbj0TVtua5laHrmFcwdQxK/J3bNynlMT5488T4S85sdoOp6F0h9sWNsbkv42mcStOsdXS9Ur7KNToiP4O5/pf/zhAdy6Jqu3NdytE1vCu4WoYlybd6zcjlMT5488T4S1K52e8eeArIAAAAAAAAAAAAAAAAAAAAAAAAAAAAAAAAAAAAAAAAAAAAAAAAAAAAAAAAAAAAAAAAAAAAAAAAAAAAAAAAAAAAAAAAAAAAAAAAAAAAAAAAAAAAAAAAAAAAAAAAAAAAAAAAAAAAAAAAAAAAAAAAAAAAAAAAAAAAAAAAAAAAAAAAAAAAAAAAAAAAAAAAAAAAAAAAAAAAAAAAAAAAAAAAAAAAAACodGPSNN1fijRRqWHbzvQeDfy8bFudtF2/RHOiJjx7fBccblZHPm5JxYXO+yb38HPx8em/fwMu1Yq7rlyxMUT+WYdds/wR3lujiXxG1bZ3EO7Rb0C7g3/LYNzBiKMeuJiKKInl9JMRznnPmeBmcL+j5RXdt2+ONVu5TXMcq8OZ6nb3d3aueMx8f9pw5552zKSX8XaEaR/HGB8LtftwsfTe9sNq3wPG/dw7umcNuBNGsYNdrjpbudTIoq8n6XXImqYmOURPLsUXpNbL4T61xczs/dXFX6HtVrx7FNzBnCrudSIojlPOI8Y7XLfd6em6agi5eppwE/DzR8XXPmfccMeAkxz9Xi38X1/M1tOmoTPsZWzjH7Wjgx/qaj+9h2KuGfASnsnjzR+TTq5/sfj0hdZ2P6nOwNmbK3Tb3Hb2/GXF/Jps125+qTTMc4mPf/ADJV1qIkvPCX2o/FP4bY+SEGXnhL7Ufin8NsfJC1nHygsexhy4j2MOVZAAAAAAFU4A8W8jh7n5Gja1jTq2zdV529S0+5HWiiJ7JuW4nx5d8ePvpWI1LpauO3CenaNOLxE4d5teobLzaov4mXjVzNWn1TPOImY7eXPunw7pZPoOo6J0its2tt7kv42mcS9Nx+Wm6nXypo1S3H+bueef8A+cJpwo4v7h4e6VquiWMXE1nQtSs127mm5309qi5McuvEfLHdLNs3UtncGdP27j29n2dd3HmYVrU8rOvXZo8jFfbEWvNMeeGsOPq3u6kc+bn+nZMcd2+yK7k0TVdua7laJrmFdwdQxa5t3rNynlMT5488T4S8yJpnumPztweJFrSuL+8tnanrOmWbGh2tAu6xfuW6OWXkRRy52K580eHvz50+2hqHDnivrl/ZFrYONty7dsXZ0jPxblU3Lc0UzP1Tz84jxdZwZeMr3eTL1+PnHG2Tz+EAH6ZNqvHyb2PXVE1Wrk25mPcnk/Nxe0AAAAAAAAAAAAAAAAAAAAAAAAAAAAAAAAAAAAAAAAAAAAAAAAAAAAAAAAAAAAAAAAAAAAAAAAAAAAAAAAAAAAAAAAAAAAAAAAAAAAAAAAAAAAAAAAAAAAAAAAAAAAAAAAAAAAAAAAAAAAAAAAAAAAAAAAAAAAAAAAAAAAAAAAAAAAAAAAAAAAAAAAAAAAAAAAAAAAAAAAAAAAAAAAAAAAdzQ9W1DQ9Vx9V0rKuYmbjV+Us3rc8pol0w7lks1VU1zj3xA1XRcjTKrum4nou35PJysXFi3fux3Tzr91KuTkXLK5eaxxcPHxTXHNOxpH8daf8AC7X7cLH03fbD6t8Exv3cI5pH8daf8LtftwsnTe9sNq3wPG/dwzfLt+lEwFYAAF54S+1H4p/DbHyQgy88Jfaj8U/htj5IStY+UFj2MOXEexhyrIAAAAAAABMc4nmrmh8Udq5+29M0fiNsmjcN3SLcWsHLtXPJ3Jtx3W7nnhIxrDO4d45cvDjyz7lUzeNe4J4lYW7tNwMXBxMDF9A4+mR22vQ3jbn3/P7z0auMe29Hs5+bsbh7iaFr2oW67dzOm/NzyPX75twjQ1ObOOd9FwXU14/nf5Kpma5qrmZqmZmZnxmQHN6QAAAAAAAAAAAAAAAAAAAAAAAAAAAAAAAAAAAAAAAAAAAAAAAAAAAAAAAAAAAAAAAAAAAAAAAAAAAAAAAAAAAAAAAAAAAAAAAAAAAAAAAAAAAAAAAAAAAAAAAAAAAAAAAAAAAAAAAAAAAAAAAAAAAAAAAAAAAAAAAAAAAAAAAAAAAAAAAAAAAAAAAAAAAAAAAAAAAAAAAAAAAAAAAAAAAAAAAHa0j+ONP+F2v24WLpue2G1b4Jjfu4RvTKvJ6rhXJiZijIt1zERznsrhsP0pdi7w3nxL1De229Ay87RbmFYm3diIiuqItxznyc/TdnvExyy8RnPl4+OfflJtrgOaomiuaaomKonlMTHKYnzOBoAAXnhL7Ufin8NsfJCDLzwl9qPxT+G2PkhK1j5QWPYw5cR7GHKsgAAAAAAAAAAAAAAAAAAAAAAAAAAAAAAAAAAAAAAAAAAAAAAAAAAAAAAAAAAAAAAAAAAAAAAAAAAAAAAAAAAAAAAAAAAAAAAAAAAAAAAAAAAAAAAAAAAAAAAAAAAAAAAAAAAAAAAAAAAAAAAAAAAAAAAAAAAAAAAAAAAAAAAAAAAAAAAAAAAAAAAAAAAAAAAAAAAAAAAAAAAAAAAAAAAAAAAAAAAAAAAAAAAAAAMv4L5OmYfFnbOVrNVuMG3n25uV3fYR5pn3OayV7R4xV9Ib05ruZ1OFTn+XjUZyP+SRic+zx5cup2cmtne9qd2bqnR/Sadx6tOm8uXoX0VX5Pl5uTrhyYyayeTn9Pnnl1YWeNd/8Ap63GvL0rP4r7jzNDqt1addzK5szbjlRPZETMe5z5sPByt6rt6ePGYYzGewANC8cKKqaeiRxR608uedjxT7/KEHbN9GHZuRv7o78RNr4eTRjZeVnWpsV3PYTci3ExE+5MxyTJrHvWscexhy9Hc+g6xtfXsnQtfwL2DqGLV1btm5T+aY88T4S85WbAAAAAAAAAAAAAAAAAAAAAAAAAAAAAAAAAAAAAAAAAAAAAAAAAAAAAAAAAAAAAAAAAAAAAAAAAAAAAAAAAAAAAAAAAAAAAAAAAAAAAAAAAAAAAAAAAAAAAAAAAAAAAAAAAAAAAAAAAAAAAAAAAAAAAAAAAAAAAAAAAAAAAAAAAAAAAAAAAAAAAAAAAAAAAAAAAAAAAAAAAAAAAAAAAAAAAAAAAAAAAAAAAAAAAAAAAAAABsBwXy8vT+irxLz8DLvYuXj6jj3LN61XNFduuIo5TEw1/XjhPMR0R+KXOeX/LrHyQlax8ss0LWdt9JbaVnbG56sfR+JOnWP8Am7UurEUZ0RHdPv8AjR4d8eZrhuzb2sbV3Dl6Br+FcwtSxa+rctVePmmJ8Ynwl5+Dk5OFl2MzCv3MfJx64uWr1qvlXbrjumJ87Z3b+sbc6Sm0rW1d03sfSeJem2p9LdT5cqM6mI7p8/Pxo/LHjCeGu2TV0epuzb2tbU3DlaBuDBuYOo4tfVuWqvHzVxPjE+EvLaZs0ADIAAAAAAAAAAAAAAAAAAAAAAAAAAAAAAAAAAAAAAAAAAAAAAAAAAAAAAAAAAAAAAAAAAAAAAAAAAAAAAAAAAAAAAAAAAAAAAAAAAAAAAAAAAAAAAAAAAAAAAAAAAAAAAAAAAAAAAAAAAAAAAAAAAAAAAAAAAAAAAAAAAAAAAAAAAAAAAAAAAAAAAAAAAAAAAAAAAAAAAAAAAAAAAAAAAAAAAAAAAAAAAAAAAAAAAAA2d6LmzbnEDo98Q9q4+ZRi5GXqFryF2r2PlItxMRPuTMcmsS/8Gci/hdFLiXmYl+7j5NnUce5Zu26+VdFcRRMTEpW8fKKbq2/rW1NwZegbgwLmDqWLX1blq5Hf5q4nxifCYdDCycnCzLOZhX7mPk2K4uWb1qvlXbrjumJ87Zjbmubf6SG07O0t338bS+I2nWZ9KtU5REZsR/Iq8/Pxp/LDXfd23da2nuHL29r+Fcw9Rxa+Vy1X3T5q6Z8YnwlJUs13jYzQdb230ktpWdq7pvY2k8StOtTGm6lMcqM6Ij2M+fn40flhrluvb2tbU3Dl6Br+FcwtSxa+pctVePmrifGJ8Jefi5GRiZVnKxL9yxkWa4uWrtuvlXbrjtiYnwls3trVtB6SW07e1N13sfTOJGm2J9LNU5RFOdTH8mrz+7H5YPDX9TWAepuvb2tbU3Dl6Br+FcwtSxa+pctVePmrifGJ8JeW0zZoAGQAAAAAAAAAAAAAAAAAAAAAAAAAAAAAAAAAAAAAAAAAAAAAAAAAAAAAAAAAAAAAAAAAAAAAAAAAAAAAAAAAAAAAAAAAAAAAAAAAAAAAAAAAAAAAAAAAAAAAAAAAAAAAAAAAAAAAAAAAAAAAAAAAAAAAAAAAAAAAAAAAAAAAAAAAAAAAAAAAAAAAAAAAAAAAAAAAAAAAAAAAAAAAAAAAAAAAAAAAAAAAAAAAAAAABeOE80x0R+KPOrlzzrEf1Qg7Z7otbNnf/R94hbVt5dGHfzM+15C7V7GLkW4miJ9yZhK3j3rWXEyMjFyLOVi3rljIs1xXau26uVdNcd0xPnbLaBuHbfSK2nj7Q3lfsaTxFwLUxpGsTTEUZsR/m6/f8Y/LHjE6+bx2zrm0Nw5OgbhwLmDn408q7dXdVHhXRPjE+d5dm7dsX6L9m7XZvW64qt3KKuU0zHdMT4SJLY9Ld23dZ2nuHL0DX8K5h6ji19W5bqjsnzVUz4xPhLz8LJycLMs52FkXMfJsV03LV61Vyrt1R3TE+dsdtfXdB6Qu17Gy955VjTOIODbmnRdarjlGbER/BXPPM+Mfljt7JgO7du61tPceZt7cGFXg6ji19W5ar7p81dE+MT4TCSrZpsboGrbc6Su0rW1t0XsbSeJem2Z9LdT6sRRn0x4T5+fjR4d8eMNct2be1nau4cvQNfwrmHqOLX1blqrx80xPjE+EvPwsnJwsyzmYWRcx8nHri5avWquVduqO6YnztndB1bbnSV2ja2tue9jaTxL02zPpbqU0xFGfTEd0+fn40eHfHjB4Xtk1dHqbr29rO1Nw5Wga/gXMHUcWvq3LVXj5qonxifCXltMgAyAAAAAAAAAAAAAAAAAAAAAAAAAAAAAAAAAAAAAAAAAAAAAAAAAAAAAAAAAAAAAAAAAAAAAAAAAAAAAAAAAAAAAAAAAAAAAAAAAAAAAAAAAAAAAAAAAAAAAAAAAAAAAAAAAAAAAAAAAAAAAAAAAAAAAAAAAAAAAAAAAAAAAAAAAAAAAAAAAAAAAAAAAAAAAAAAAAAAAAAAAAAAAAAAAAAAAAAAAAAAAAAAAAAAL5wgu3bPRN4n37N25au29Qx6qLluuYmiYijlMTCBrxwnmI6JHFHnMRzzseP6oStYvf2juPQOkLtTH2NvnJsafv3At8tF1qqIj0Zyj+DueefPHj3x280B3ntnW9nbkytvbgwq8PUMaeVdE91UeFdM+MT53kWLl2xdt3rN2u1dt1RXRctzymmY7pifCWyO0dyaD0gdr2Nh79ybOBvzCtzGh65MRHozlH8Fc88+5498dvPm8Em2t9i7dsX7eRYuV2r1uqK7dy3VyrpmO6YnztkNr69oPSE2xj7M3pkY+ncQMGz1NG1mumIjNiP8ANXPPM+MfljtQPee2db2fuTL29uDDrxNQxp5V0T3VR4V0z4xPneXZuXbF63es3a7N63XFVu5TVymmY7pifOL3j0t3be1nae48zb24MK5g6jiV9W5ar7pjwmifGJ74l5+Fk5OFmWczCv3MfJx64uWr1qeVduuO2JifO2O2zr+g9IXa1jZm9Mmxp3EHT7Mxous1U8ozYj/NXPPM+Mfljt584Du7bus7T3Dl6Br+Fcw9Qxa+rctVd0+aYnxonwk2Wa8Nj9A1fbvSU2lb2vue9jaTxJ02xV6W6j1YinOpiO6fPz8aPDvhrfuvb2s7U3DmaBr+FcwdSw6+rctVU9/mrifGJ74l0MLJycLMs5mHfuYuTj1xcs3rVfKu3XHbExPhLZ/QdX270lNpWtr7nvY2l8SdNsz6WalNPKnOiPCfPz8afDvhPC/1NWxmGlcM976puzUtr4Gh3b+paXem1m8qo8nYmJ5dtfdyefvfZm5dl51GFuTTLmHXdjrWa+fO3djz0Vx2S103W/Zx+ph1/T33+GPgDQAAAAAAAAAAAAAAAAAAMl4b7L1jfm46dE0aLdFUUTdv3rs8rdi3HfXXLM9d4PY30Papqu0t76Xui7o9M15+JjUTTct0R31xz74hvHjyym448nqePDLpyvdJwirnHMYdgAAAAAAAAAAAAAAAAAAAAAAAAAAAAAAAAAAAAAAAAAAAAAAAAAAAAAAAAAAAAAAAAAAAAAAAAAAAAAAAAAAAAAAAAAAAAAAAAAAAAAAAAAAAAAAAAAAAAAAAAAAAAAAAAAAAAAAAAAAAAAAAAAAAAAAAAAAAAAAAAAAAAAAAAAAAAAAAAAAAAAAAAAAAAAAAAAAAAAAAAAAABs/0VtoWN98AeIG1r2fGDVm6jYosXqpjlF2LdM0RPniZiI5NYF74Q3K7XRM4nXrVyu3ct6hj10VUzymmYijlMT4Slax8o/vfauvbL3Jk7e3HgXMPUMefpon2FyjwronxifO8a1crt3Kblquu3XbmKqKqKuU0zHdMT4S2a2ZuvbvSA2lj8PuImTZwN64dHLQ9cmOVWTPL2Ffuz4x498drX/fe09e2RujL23uPDnFzsaf+5do8LlE+MT50lMsdd4u20Nxbf6QG18fYW/Mq1p2+8K31dD1yqmIjM5R/BXP9L3PHvjt7Jg289s63s/cmXt7cOFXiahjTyronuqjwronxifO8iiuu3dpu2q67dduYqpqoq5TTMd0xPhLZHZ+49B6QO2MfYe/Mqzgb8wrfV0PW66Yj0Zyj+CueeZ8Y8e+O3sF7ZNb7F67Yv0ZGPdrs3rVcVW7lurlVTVHdMT52zO2ta270jtpWNn7tyMfSeI2m2eWlatNPKM6mI9hX5+fjH5Y8YnXvee2db2duTL29uHCrw9Qxp5V0T3VR4V0T4xPhLy8XIyMXJs5eLeuWMizXFy1dt1cq6a47pifOqS6ejuzbutbT3Dl6BuDCuYeo4tfVuWqu6fNXE+MT4S8/DycjEy7WViX72PkWq4qt3bVc0V2647piY7Ylsxt3W9vdI7alnaO7b+PpfEbT7MxpWqTTypzYiPYVefn4x+WGu+7du61tPceZt7cGDcwdSw6+pctV90+auifGJ74mElLNLNt2ncO5ujhdx9k5OTf163q9d/X7Vm9PovJie6vnz5zHc/LiBpWrbf6NGmabve5c9O8jV5v6djX7nWv2LXV7efPt5e57sIvousarombGbo2pZWnZMdnlce5NM/4udc1nV9dzZzda1TL1HK7vK5FyaquX9j0/VnT+da/D5/8Apc/qeZ09XV+f2/b/AKdABwe4AAAAAAAAAAAAAAAAABUujxufR9G1TXtB1vN9LcbcOnV4dGf1ecY9yecRM+5PNlO2dt6Rwf0nXty6tvLRtVzMrTruBp2n6Zfi75abkcuvc5d0ePJBO+nqy4iimPpopiJdceWzW548PJyelmeVsy1MtbnzpQ+IPCnWtpbM0LeFGbjavoerY1F2cvE7aMa7X2zar+Tn5+xPVS4GcV7mx7mRtzceL6c7J1T6nqOnXI6/k+fZNy3HhPnjx99+nHThRRs+3j7t2jlVa1sXVfp8HOtz1/Q/P/NXPN5omfN53CV7bEpAaZAAAAAAAAAAAAAAAAAAAAAAAAAAAAAAAAAAAAAAAAAAAAAAAAAAAAAAAAAAAAAAAAAAAAAAAAAAAAAAAAAAAAAAAAAAAAAAAAAAAAAAAAAAAAAAAAAAAAAAAAAAAAAAAAAAAAAAAAAAAAAAAAAAAAAAAAAAAAAAAAAAAAAAAAAAAAAAAAAAAAAAAAAAAAAAAAAAAAAAAAAAF44TzEdEjijzmI552PH9VKDrp0cdR25r+x918INc1H0oy9yXaL+m51z+C8tREcqKvyxHvpWsfKGWa67ddu5brrt10TFVFVFXKaJjumJ8JbLbI3ToHH3aljh3xFyrWDvLDomNC12YiJyJ5fwdzzzPjHj3x2oNv7aGv7F3Pkbd3JhTi5tieye+i7R4V0T4xLw6K67dym5arrt10TFVFVFXKaZjumJ8JLNrLZ2r2t97T17ZG6Mrbu48KvEzsef+5do8LlM+MS8W1XXbuU3bVdduuiYqoqoq5TTMd0xPhLZXZG6tv8fdq2OHfEXJtYO88OiY0LXpiOeRPL+Dr88z4x498dqCb72lr2yN0Ze3dx4c42djT/3LlHhXTPjRKSlmu8XfaW5ND6QG1cbYe/cuzgb7wrfLQ9criI9Gco/g7k+M+ePHvjt5oHvPbOt7P3Jl7e3BhVYmoY08q6J7qo8K6Z8YnzvKt112blN21drt3bcxVRVRVymmY7pifCWyO0NxaB0gNr2Nh78yrOn78wrfLQ9cqpiPRnKP4K5559zx747e++E8xrhi5GRi5NrKxb1yxkWa4uWrturlXTVHdMT52zO3da2/0j9p2dpbuv42l8RtOszGlapMcozoj+RV5+fjT+WGvW8ts63s/ceVt7cGFXiahjTyronuqjwrpnxonzvLxr17GyLWTjXrli/amKrd23M0V0THdMTHdIS2dmZaJwr31rG6NU25g6N1s3Sr02c6qq9FNi1XE+Nyezt8Hl772TuXZOfZw9xaf6Gm/R17N23XFy1dp8erVHZKpbRsbi3j0esvStnZWRf13H1ivK1jGtX+WTmW647K+fPnX2vrf+j6ltXo06fom87ldGuZGrTkYGJdude7jWuXbz80d/Z7r0fSnTv8bfO/1WX1em6/q1r3/dCQHB7wAAAAAAAAAAAAAAAAAAABUuBfFevZFeTtvcWL6c7I1X6nqOn3I63k+fZN23Hn88ePLzpaI1LpV+OnCmjaFvG3dtLL9Odi6ryqwc63V1/Q8z/mrn9k+550oVPgVxZr2Pcydt7jxfTrZGq/U9R027HXi3z77tuPCfPHjy8/KX6cc+FFO0LeNu3aeV6c7G1T6phZ1uev6H591q55vcn+1IvslADTAAAAAAAAAAAAAAAAAAAAAAAAAAAAAAAAAAAAAAAAAAAAAAAAAAAAAAAAAAAAAAAAAAAAAAAAAAAAAAAAAAAAAAAAAAAAAAAAAAAAAAAAAAAAAAAAAAAAAAAAAAAAAAAAAAAAAAAAAAAAAAAAAAAAAAAAAAAAAAAAAAAAAAAAAAAAAAAAAAAAAAAAAAAAAAAAAAAAAAAAAeMcqpiYnnEx3xIA2I2DvDb/ABj2ti8MuJ+XTja7j09Tb24a/Z9fwtXZ8fN29/vovxC2dr+xN05O3NxYk4+ZYnnRXT7C9b8LlM+MSx/xiqJmJiecTE8pifO2I4f7v0DjHtTH4YcTsqjG17Hjq7f3Dc9n1/C1cnx593u++nhve2vNquu3cpuW667ddMxVRVRPKaZjumJ8JbLbJ3Tt7j5tTH4d8RMq3gbyw6OWg67MfTZE8v4Ovzz548e+O1B+IOzte2JujJ27uPDnHzLE/SVfyL1HhcpnxiXg0V127lNy3XXbrpmKqaqauU0zHdMT4SWbJdXVe1vvaevbI3Rlbd3HhTiZ2PPv0XKPC5TPjE+d4tqu5au03LVddu7bmKqKqKuU0zHdMT4S2V2Runb/AB92pj8O+ImXawd6YdExoWuzTETkTy/g7nnmfGPHvjtQTfe09d2RujK23uPCqxM7Gn/uXaPC5TPjEpKa1Nxe9oa/oHSD2pj7F3xk2tP39gW+romtVUxHo2Ij+Dr88+ePHvjt7JgG8ts63tDcWVt7cWFXiahjTyronuqjwrpnxifO8qzdu2L9vIs3a7N63MVW7lurlXTMd0xPhLZfaG4NvdIXbGPsbfmVZ03feFb5aPrc0xHoyIj+Dr88+ePHvjtXwnatcNJ1PUtJy4zNKz8rByIjl5XHuTRPLzdhq2p6lq2XOVqmflZ1/u8pkXJrn+vuZbo3Cne+sbr1fben6bbu5Wj3q7WZem9FNi3MTy/hJ7O3wh5u/dh7n2PlWLO4sCLVORTzsZFq5Fy1c8/KuOzn7jfTl079nH6nF9To3Or+22MgMugAAAAAAAAAAAAAAAAAAAAAAqfAvixVse5kbc3Jh+nOyNV529R0+5T1/JxPZNy3HhPnjx9/tSwRqVVuOnCmjZ9GPu3aeX6c7F1XlXg51uev6H5/5q55vNEz8qUqlwM4r17IuZG3Nx4npzsnVPqeo6dcp60WufZNy3HhPnjx99+vHPhTTs+3jbt2llenOxdV+qYOdbnr+h5n/NXPN5omfN54TwWbSgBpkAAAAcTPKOs5J9zskFm9Tvhzs/SNLniduHVbOsapYi/RhabRE+hLc903J7ebDuLuxqNj61hRg6nGq6PqmLGXp2XEcpuW58JjzwzzU9W4ZcU7Oi526td1Lbe4MXGtYGVas4vlqMuKOURNM+EvI6UWTcxN7YOzKNKuaZhba0+3i4tu7diuu5RMdeLkzHniXo5JhMbrX4fO9Plz3knVv36t+PxpJQHnfRAAAAAAAAAAAAAAAAAAAAAAAAAAAAAAAAAAAAAAAAAAAAAAAAAAAAAAAAAAAAAAAAAAAAAAAAAAAAAAAAAAAAAAAAAAAAAAAAAAAAAAAAAAAAAAAAAAAAAAAAAAAAAAAAAAAAAAAAAAAAAAAAAAAAAAAAAAAAAAAAAAAAAAAAAAAAAAAAAAAAAAAAAAAAAADzT1piY7YmOzkANiOH28NA4ybWxuGPE7KoxtesR1Nu7hr9nFfhauT48+7t7/AH0W4gbO13Yu6cnbm4sOcfMsz9JXHsL1HhcpnxiXgd3KqKpiYnnEx3w2J2BvDQOMm1sbhlxOy6cbXseOpt7cVXs+v4Wrs/yvN29/v9rPhvcrXiiu5buU3bdddFdMxVRVRVymmY7pifCWyuyN06Bx92rY4d8Rcq3g7zw6JjQddmOU5E8v4OvzzPjHj3x2oPxB2fr+xN0ZO3NxYk4+ZZnnRXHsL1Hhctz4xLwrVddu5TctV1266ZiqiqirlNMx3TE+ErZtJbOz2t97T17ZG5srbu48KvEzsef+5co8K6J8Yl4tuuu3cou2667dyirnRVRVymJ88S2V2Turb/H3aljh3xEybeDvPDomNC12aYiciYj+Dr88z4x498dqCb72nr2yN0ZW29x4VWNnY0/9y7T4XKZ8YnzpKWe8Vra+Hqm9+jlOgbPyZua7h6pXk6vg0XuV/Nor7q/PX/g+eIOi5uzOjdp22t2XKadeytXnKwsKq51rmLa6vbz83+KJ4Gbm6fkxl6fmZGJfjsi7ZuTbr/PDnUtQz9SyZydRzcnMvzHLyl+5Nyvl5ucvR9Xt47608M9Ll19r9vV1fnbrAOL2AAAAAAAAAAAAAAAAAAAAAAAACqcC+LFex68nbe5MX052RqvO3qOnXI60W+ffdtx4T548eXniErEWXSq8dOFNG0LePu3amVGs7G1X6fBzrc9f0P1v81c83uT/AGpUqfArizXsevI23uTE9Odkar9T1HTbsdfyXPvu248J88ePv8pfpx04UU7Pox92bTyvTnY2qcrmDnW6uv6H591q55vcq/tSXTSUANMAAAAO7t7/AKR6X8NtftwrPTX9sXrPwTD/AHFCTbe/6R6X8NtftwrPTX9sXrPwTD/cUJl5jc8IyArAAAAAAAAAAAAAAAAAAAAAAAAAAAAAAAAAAAAAAAAAAAAAAAAAAAAAAAAAAAAAAAAAAAAAAAAAAAAAAAAAAAAAAAAAAAAAAAAAAAAAAAAAAAAAAAAAAAAAAAAAAAAAAAAAAAAAAAAAAAAAAAAAAAAAAAAAAAAAAAAAAAAAAAAAAAAAAAAAAAAAAAAAAAAAAAAAeblMxMTziY7JiQBsRsLeOgcZdq43DLidm0Y2v49PU27uGv2fX5dlq7Pjz7u3v99FuIOztf2HunJ23uLEnHzLM86Ko9heo8LlM+MS8DzVRVMTE84mJ5TEtieH279B4x7VxuGHE7LoxtesR1du7hr5dfr+Fq5Pjz7u3v8Af5J4b8zu14orrt3Kbluuu3XTMVU1U1cppmO6YnwlstsvdW3OPe07HD7iRl2tP3jhWp9I9enlE3+UewuT41eePHvjtQbiBs7Xti7oytu7jw5x8yxPZV/IvUeFymfGJeBPPwmYmO6Ynlyks2kurqqFtng9vHcOo6pjafRgehNLyq8W/qVzJijGrronl9Tr/l/keDv/AGRuTY2qW8DceB5Cq9HWsXbcxXbvR56K4ViNFzeIvR+2zpWyM21Xn6FcuRqWkeXi1cuzXPOLnf2/4ulxlxsrbPA/auy9x6nay9yWs6vK8jTei7Xh48xMRbmr35enLikx3/l8zD1WeXLrc8617z8ogA876IAAAAAAAAAAAABIP0sWMjIveRxrNy/cnt6luiap/ND5uUV27s2rlFdu5HZNNUcpj8i84utZ/Dfo+bZ17ZmDjxna5k3fTPVK7EXa7c0TMUW+3u5/2OtxhvV7r4G7Z35rWk2cPct3OrxJu2rPk/RlqImev1Y952vFNee/l4sfV25z7ftt1577/ZDQHF7QAAAAAAABUuBfFirZF3I25uXE9Odkapzt6jp92Ot5Pn33Lcefzx4++loWLvSscbuE1G1cexvDZmbTrmxdUnrYWZaq6043P/N3fNy7uc+bt5Sk6+cCMjLudG7i9h3b1VzT7WJRct2ap50UXJ75iPDuj8yBR7GEi2OQFZAAd/bkc9x6X8Ltftwq/TVnn0ita9zEw/3FCU7ajnuTSo8+Xa/bhVumr7YzXfguH+4oTLzG54RkBWAAAAAAAAAAAAAAAAAAAAAAAAAAAAAAAAAAAAAAAAAAAAAAAAAAAAAAAAAAAAAAAAAAAAAAAAAAAAAAAAAAAAAAAAAAAAAAAAAAAAAAAAAAAAAAAAAAAAAAAAAAAAAAAAAAAAAAAAAAAAAAAAAAAAAAAAAAAAAAAAAAAAAAAAAAAAAAAAAAAAAAAAAAAAAAAAAAA7piYqmJjtiY74AGxHD7eOgcZdsY3DHidl0Y+v2I6m3dw1+zivl2Wrk+PPu7e/30W4g7O17Ye6cnbm4sOcfMsz9JVHsL1HhcpnxiXgd0xVFUxMTziY7JiWxXD3dug8Z9r43DHibkxj6/j09Xb+4KvZ9fl2Wrk+P9vvp4b3K15x797Gvxexr92xdp7q7dc0z+eHF25cvXa7t+5XcuV9s11Vc5n8qg6Bwd3drO49d0fHr061a0O/XYzdQyMnqY0VxPLlFfjzeVxE4dbi2N6Fvar6EysDM/ybOwr3lce5PjEV+droy1vXZ5/rcX1Ojf3fz/AOsQAR1AAAAAAAAAAAAAAZrw84m7q2PiX8DS72LlabkT17mDm2Yu2pr88RPdPvPZ0/jZuv1R9L3hrtnC1a3p8Tao06uzFOPTarjlXFEd0Ty7pTEXryuPTvs5zh45n9Tp+5ceMnDjRdb25XxZ4Wf8q25kz19S02iPqul3Z9nzp+w5/m95DonnHOO2JZrwg4ka5w13L6Z6ZyycHI+p6jp93ttZVrxiY7ufLulnPGLhtoer7c9VbhRzyttZM9bUdMojnd0u74xNPf1Of5veYld9bnZEQ7/poGmAAAAAAAAF54De104xfAraCx7GF64De104xfAraCx7GEjVcgKyAA9DbHV+iXS+tMxHou1z/pwq3TV9sZrvwXD/AHFCUbc/6RaX8Ntftwq/TU9sXrvwXD/4ehMvMbnhGQFYAAAAAAAAAAAAAAAAAAAAAAAAAAAAAAAAAAAAAAAAAAAAAAAAAAAAAAAAAAAAAAAAAAAAAAAAAAAAAAAAAAAAAAAAAAAAAAAAAAAAAAAAAAAAAAAAAAAAAAAAAAAAAAAAAAAAAAAAAAAAAAAAAAAAAAAAAAAAAAAAAAAAAAAAAAAAAAAAAAAAAAAAAAAAAAAAAAAAHMTVExNFUxMTziYnlMOAFu2TpWbv/gDe2ntnOtxr+Bq1eZlYFy/5OvNt1x7PnPfMe6/ff+n07A6PVjYu4czHv7i1DUfRlGFauxc9BW/dnw7v60Ns3Ltm5FyzeuWbkd1duuYn+pxeuXb1ybt25cuXJ767lczM/ll1+t28d9aeT/S25/1fb1dX53+/8/d8gOT1gAAAAAAAAAAAAAAADNeEHEjW+G25PTPS+WThZEeS1HT7vbayrXjEx5+XdLChFl0tvFLhbjbgwLfEfg/h39W21qNc+itNx6JryNMyO+u3NuO3qfJ73JOY4d8QZ7tjbjq/2dc+Zzw94g7v2Bm38vaetXdPqyKYi/b6sV27nLumaJ7OcedmF3pGcY7lc1fRfXHPwpxaIhO7XZhvqecQfvG3J8XXPmfXqdcQfvG3J8XXPmZb64njJ9+V79XoPXE8ZPvyvfq9B3T7WJep1xB+8bcnxdc+Y9TriD9425Pi658zLfXE8ZPvyvfq9Dn1xXGP78rv6vQdz7WH+p5xB+8bcnxdc+Z4GoYOdpuZcwtQw7+FlW55XLN63NFdHvxPbCv6P0kOMVeoYWNd3RbrtV37dueeFb5zE1xE9vJz01rE2ekLrFc8vquNj3I5fzcR/YRbJraMANMLzwG9rpxi+BW0Fj2ML1wG9rpxi+BW0Fj2MJGq5AVkAB39uf8ASLS/htr9uFX6a/ti9Z+CYf7ihH9PmqNRxJo59aL9vly7+fOFj6bFPU6Qup1+NeDhzMeb6lEJfLc8IsArAAAAAAAAAAAAAAAAAAAAAAAAAAAAAAAAAAAAAAAAAAAAAAAAAAAAAAAAAAAAAAAAAAAAAAAAAAAAAAAAAAAAAAAAAAAAAAAAAAAAAAAAAAAAAAAAAAAAAAAAAAAAAAAAAAAAAAAAAAAAAAAAAAAAAAAAAAAAAAAAAAAAAAAAAAAAAAAAAAAAAAAAAAAAAAAAAAAAAAAAAAAAAAAAAAAAAAAAAAAAAAAAAADt6N/Hen/C7X7yFl6cftgc/wCA4/7CNaN/Hen/AAu1+8hZenH7YHP+A4/7DPu1f6f58IeA0yvPAb2unGL4FbQWPYwvXAb2unGL4FbQWPYwkarkBWQmeUdpPYv3DLY23uG21bHFfixjde7X9Nt7b1f8Jl3O+LlyJ7o8e3u758ImNSPrhdsnQuGO3cXizxUx5m9PK5t7Qap6t3Ju99Fy5HhEd/b3d8+ZIOI+8NW37vPP3TrVVuMzMrj6nbjlRatxHKiiPejsfpxJ3vr/ABB3Vf3BuHJ69259LZs0fweNb8LduPCI/rY0SFvsAKyAAAAAAAAAAAAAAAAAAAAAAAAAAAAAAAAAAAAAAAAAAAAAAAAAAAAAAAAAAAAAAAAAAAAAAAAAAAAAAAAAAAAAAAAAAAAAAAAAAAAAAAAAAAAAAAAAAAAAAAAAAAAAAAAAAAAAAAAAAAAAAAAAAAAAAAAAAAAAAAAAAAAAAAAAAAAAAAAAAAAAAAAAAAAAAAAAAAAAAAAAAAAAAAAAAAAAAAAAAAAAAAAAA7ejfx3p/wALtfvIWXpx+2Bz/gOP+wjWjfx3p/wu1+8hZenH7YHP+A4/7DPu1f6f58IeA0yvPAb2unGL4FbQWPYwvXAb2unGL4FbQWPYwkarlxPY+qKa7ldNFuia6q55RERzmZ8zYLhjsXRuF23rXFXivixORzn0g0C5EeVybnhcrie6PHt7o7ZCR9cN9gbd4YbRscU+LGPFzLucq9A29XP1TIueyiu5R5u6e3sjvnwR/iTvfX+IG6b+4Nw5PlL1X0tixR/B41vwt0x4RH9ZxJ3vuDiDuu/uHcWT5S9c+ls2aavqeNb8LdMeEfKxpJDKhM8oDr+Tqi7Ty50TFUc/PE82kV3TOEWiYWk6Zkb935ibbztVt0XcTBi35WuKK+6u59hEsM4n7H1XYG5PSfU7tnIt3LcXsXKs/wAHkW57q4Xrinw0wd9bT2txF17cWNsm9mYNrHycXVKOU1xRHZVbjvjnHby80wlHSC3Zom4Nb0bStuZNzO0zQNPow7ebc78ifGY9zs7HfPHDpuv/AK+dw58/1cZnd73ua8fGqmQDg+gAAAAAAAAAAAAAAAAAAAAAAAAAAAAAAAAAAAAAAAAAAAAAAAAAAAAAAAAAAAAAAAAAAAAAAAAAAAAAAAAAAAAAAAAAAAAAAAAAAAAAAAAAAAAAAAAAAAAAAAAAAAAAAAAAAAAAAAAAAAAAAAAAAAAAAAAAAAAAAAAAAAAAAAAAAAAAAAAAAAAAAAAAAAAAAAAAAAAAAAAAAAAAAAAAAAAAAAAAAAAAAA7ej6ZqOs6rjaRpWHdzc7LuRasWbUc6665B2dp4Gdqm6dK0/TMW5lZl/LtRbtW45zPKuJbQ9KTgzu7efF3J17Sc7btnFuYtq3TRmalRauc6Y7fpaoeDkRoXRq2nNmxdxdV4rarjfT1xyqt6Tarj5f65n3O/XLVNS1HVM+7n6nn5Wbl3a5ruXrt6ZrmZ75Zb7Saqz2uivxXvURXZp25cpnumjUomJ/qSXeW3NV2jufO25rVq3bz8G55O7FuvrUc/cnxh6/CzU9SjiTtSxGqZ0WqtYxIm36Jr5cvK0dnLmyTpYWa7PSD3V5SOU13qK6femjsWeTtYyfgN7XTjF8CtoLHsYXrgN7XTjF8CtoLHsYIlVvog4OFqHSC2/Z1DHt37Fu3k3+rcjnHWotV10z+SYiWG8T9669v3eObr24Muu/em5XbsWoq+p49uJnlRbjwj5WedCyOfSM0GmfHFzI//AOetIc+nqahl2+/qX7kf/XKe6/pfiBM8o5z3NMOJmIjrT3NiOEnDrb/D/atri7xds9THo5V6HodcfVcq530V1Uz+eInu758z54ScOtB4fbWtcXeLtjqY1HKrQ9DuR9Vy7nfRXVRP54ie7vlK+LfEXcPErdV3Xddu9S3HWow8O3V9SxbfhRR7vnnxZ3vw3qTucW+Im4OJm6rmua7d5W450YWFRV9SxbfhRTHn88+LDgVm9wBUAAAAAAAAAAAAAAAAAAAAAAAAAAAAAAAAAAAAAAAAAAAAAAAAAAAAAAAAAAAAAAAAAAAAAAAAAAAAAAAAAAAAAAAAAAAAAAAAAAAAAAAAAAAAAAAAAAAAAAAAAAAAAAAAAAAAAAAAAAAAAAAAAAAAAAAAAAAAAAAAAAAAAAAAAAAAAAAAAAAAAAAAAAAAAAAAAAAAAAAAAAAAAAAAAAAAAAAAAABYOjpwy2lxA0rdmpbs1nUtLx9BsW8nr4nU7bcxXNczzie7qRy5ed6Mbb6MUxE+qFu79Vo/uJtqYocLj9DXRh/CFu79Vo/uOK9s9GOYnq8RN3Uz5/QlE/8AgNrpGdI0/P1fVMXStLxLmXnZdyLVizajnXcrnwbG1XdD6NG3vI2fQWs8VNSsfT1zyrtaTbrj5fc/le883Tt6cIOE+hZuo8Lb+obj3llU1WcbP1WxEUYNue+uI5RHP+ufe7EB1HOzdT1HI1LUcq7l5uTcm7fyLtfOu5XPfMyeTtI+tV1DP1XU8nVNUzLuZnZdybt/Iu1867lc98zLrArDI+F/1z9qfjrD/ewzfpge2G3J/wDI/dsI4X/XP2p+OsT97DPemTZ8j0htwRz59e3j1+9ztpfLc8V7PAb2unGL4FbQWPYwvXAb2unGL4FbQWPYwRKs3Qr9sboHwbM/4etI9U/jbN+E3P25VzoV+2N0D4Nmf8PWkWq/xvnfCLn7cnvV/THXmYiOc90L7wi4eaFsna1ri9xaszb0+3MVaJotUfVc6730TNE+HjEfll1ODOz9o7X2LTxl4k0TmafRkTa0TSbfbOZeomfp6/ciY7u7s5ynvFriJr/EndNzXNcu00W6I8nhYdur6li2/CiiPP558Ut32Wdu9c8W+Im4OJe6rmua5d6lujnRhYVur6li2/CiiPP558WHArFuwBUAAAAAAAAAAAAAAAAAAAAAAAAAAAAAAAAAAAAAAAAAAAAAAAAAAAAAAAAAAAAAAAAAAAAAAAAAAAAAAAAAAAAAAAAAAAAAAAAAAAAAAAAAAAAAAAAAAAAAAAAAAAAAAAAAAAAAAAAAAAAAAAAAAAAAAAAAAAAAAAAAAAAAAAAAAAAAAAAAAAAAAAAAAAAAAAAAAAAAAAAAAAAAAAAAAAAAAAAAAAAbBdFT623F+P8A9lo+S417sfwVP+rDYfopxR6lnGGv+V6UW4/J1LrXix/BU/6sM+7eXiPoBpgAAABkXC/6521Px1ifvYULpo+2J13+Yxv3ae8L/rnbU/HWJ+9hQumj7YnXf5jG/ds3y6T+mvV4De104xfAraCx7GF64De104xfAraCx7GFjNWboV+2N0D4Nmf8PWkeqfxrnfCbn7cq50K/bG6B8GzP+HrSPVP42zfhNz9uT3q/pi0cQKfLdDzhvdjsixquXbmPPzrlDlz3r7TLYX46yf260MSJkANMgAAAAAAAAAAAAAAAAAAAAAAAAAAAAAAAAAAAAAAAAAAAAAAAAAAAAAAAAAAAAAAAAAAAAAAAAAAAAAAAAAAAAAAAAAAAAAAAAAAAAAAAAAAAAAAAAAAAAAAAAAAAAAAAAAAAAAAAAAAAAAAAAAAAAAAAAAAAAAAAAAAAAAAAAAAAAAAAAAAAAAAAAAAAAAAAAAAAAAAAAAAAAAAAAAAAAAAAAAAADJ+GeytT37ui1oel3bOPPUm7fybvsLFuO+uWMKNwA3npmz925ca75SjSdVwrmDlXbcc67UV91fvRza45jcpMvDl6i548eV4/KvcNdK2toGyuIe29gbss7o1/UdN8nXj3KItRTFvn15tz/LjlM/mhq1FFVMRRNPKqjsmJ8JjsXzZ+Hw54T5+XvCzxBx9yZlGPctaXg4VmYrma45RNzn5kHv3q79+7er5RXerquTEeeZ5/2unLjjJL4rj6TkzyuW7bj21bNfv8PgBxesAAABkXC/6521Px1ifvYUPpo+2I1z+Yxv3aecLvrn7U/HWH+9hnnTFu13ekNuHr/wAiixTHvRbZvlueHt8Bva6cYvgVtBY9jC9cBva6cYvgVtBY9jCxKs3Qr9sboHwbM/4etI9U/jbN+E3P25VzoV+2N0D4Nmf8PWkeqfxtm/Cbn7cnvV/TFq3r7TLYX46yf260MXbelquvoW7FvR7C3reRFU+bnXXyQlImQA0yAAAAAAAAAAAAAAAAAAAAAAAAAAAAAAAAAAAAAAAAAAAAAAAAAAAAAAAAAAAAAAAAAAAAAAAAAAAAAAAAAAAAAAAAAAAAAAAAAAAAAAAAAAAAAAAAAAAAAAAAAAAAAAAAAAAAAAAAAAAAAAAAAAAAAAAAAAAAAAAAAAAAAAAAAAAAAAAAAAAAAAAAAAAAAAAAAAAAAAAAAAAAAAAAAAAAAAAAAAAAAA4iIjupiHIAAAAAAAyPhf8AXP2p+OsP97DN+mB7Ybcn/wAj92wjhf8AXP2p+OsP97DN+mB7Ybcn/wAj92l8tzw9/gN7XTjF8CtoLHsYXrgN7XTjF8CtoLHsYIlWboV+2N0D4Nmf8PWkeqfxtm/Cbn7cq50K/bG6B8GzP+HrSPVP42zfhNz9uT3q/pi67t9o3s/8eXP27iArpvWuuOhfsOiKpimrWsjnHn5V1oWkMwBpgAAAAAAAAAAAAAAAAAAAAAAAAAAAAAAAAAAAAAAAAAAAAAAAAAAAAAAAAAAAAAAAAAAAAAAAAAAAAAAAAAAAAAAAAAAAAAAAAAAAAAAAAAAAAAAAAAAAAAAAAAAAAAAAAAAAAAAAAAAAAAAAAAAAAAAAAAAAAAAAAAAAAAAAAAAAAAAAAAAAAAAAAAAAAAAAAAAAAAAAAAAAAAAAAAAAAAAAAAAAAAAAAAAAAABkPDO5FriXta7PPlRrGJM/pYZ30wvbC7j96z+wn2wKoo3/ALcrrmIpo1XGmZnzeVhROl/ZvV9IPcNdGPemmqLExMW57fqaXy3PD2uAvtc+MXwK2gsexhfOBNu5b6OnGLylu5Rzw7fs6JhA49jBC+Fm6FftjdA+DZn/AA9aR6p/G2b8JuftyrnQr9sboHwbM/4etINVuURq+d9N/wC03P25Pen6Ytm9/aY7C/HWT+3Whq778pojoYcPJo/latkzPv8AlK0ISGQA0wAAAAAAAAAAAAAAAAAAAAAAAAAAAAAAAAAAAAAAAAAAAAAAAAAAAAAAAAAAAAAAAAAAAAAAAAAAAAAAAAAAAAAAAAAAAAAAAAAAAAAAAAAAAAAAAAAAAAAAAAAAAAAAAAAAAAAAAAAAAAAAAAAAAAAAAAAAAAAAAAAAAAAAAAAAAAAAAAAAAAAAAAAAAAAAAAAAAAAAAAAAAAAAAAAAAAAAAAAAAAAAAAAAAAAA/bCybmHm2MzHmIvY9yi7bmY5xFcTzharnSh4l3p6+ThbVv3eUR5S5pfOvs7v5aHiVdtrtqcTNycRejvxUr1/H0mz6CwaabcYOHFnn1u/nymebVCPYwu/AW5Hre+Mdnl2xp9urmhEexgk01btZuhX29I7b/8AMZf7it6er9I/deLrmdjxtLZly1ayrluOvpcc5iJmO2efe8zoVdnSO0D4Pmf8PWkuuXPK67qVzly6+Xdnl5vp5T3O+mdcU+MG5+Iui4GjathaRg4GDfm9as4GP5KnnPn7U6BWbdgCoAAAAAAAAAAAAAAAAAAAAAAAAAAAAAAAAAAAAAAAAAAAAAAAAAAAAAAAAAAAAAAAAAAAAAAAAAAAAAAAAAAAAAAAAAAAAAAAAAAAAAAAAAAAAAAAAAAAAAAAAAAAAAAAAAAAAAAAAAAAAAAAAAAAAAAAAAAAAAAAAAAAAAAAAAAAAAAAAAAAAAAAAAAAAAAAAAAAAAAAAAAAAAAAAAAAAAAAAAAAAAAAAAAAAAAAAuXAP6wvGX8W2vllDI9jC9cBfa58Y/gVtBY9jCNVZuhX7Y3QPg2Z/wAPWkeqfxtm/Cbn7cq50K/bG6B8GzP+HrSPVP42zfhNz9uT3q/pjrAKwAAAAAAAAAAAAAAAAAAAAAAAAAAAAAAAAAAAAAAAAAAAAAAAAAAAAAAAAAAAAAAAAAAAAAAAAAAAAAAAAAAAAAAAAAAAAAAAAAAAAAAAAAAAAAAAAAAAAAAAAAAAAAAAAAAAAAAAAAAAAAAAAAAAAAAAAAAAAAAAAAAAAAAAAAAAAAAAAAAAAAAAAAAAAAAAAAAAAAAAAAAAAAAAAAAAAAAAAAAAAAAAAAAAAAAAAAAvPAb2unGL4FbQWPYwvXAb2unGL4FbQWPYwkaqzdCv2xugfBsz/h60j1T+Ns34Tc/blXOhX7Y3QPg2Z/w9aR6p/G2b8Juftye9X9MdYBWAAAAAAAAAAAAAAAAAAAAAAAAAAAAAAAAAAAAAAAAAAAAAAAHEzFPZ4g5HETTPdVzcgAAAAAAAAAAAAAAAAAAAAAAAAAAAAAAAAAAAAAAAAAAAAAAAAAAAAAAAAAAAAAAAAAAAAAAAAAAAAAAAAAAAAAAAAAAAAAAAAAAAAAAAAAAAAAAAAAAAAAAAAAAAAAAAAAAAAAAAAAAAAAAAAAAAAAAAAAAAAAAAAAAAAAAAAAAAAAAAAAAAAAAAAvPAb2unGL4FbQWPYwvXAb2unGL4FbQWPYwkaqzdCv2xugfBsz/h60j1T+Ns34Tc/blXOhX7Y3QPg2Z/w9aR6p/G2b8Juftye9X9MdYBWAAAAAAAAAAAAAAAAAAAAAAAAAAAAAAAAAAAAAAAAAAAGR8Odla9v/dWPt3buLN3Ju9ty5MfU8e343Kp8Ij+sJH1w32NuLiDuW3oO2sTy+RMde9cqnlbsUfZ1T4Qr9zo1aVavehb3GfadvM5c5tTHZHnjn5RzxM3hoPCXamRwp4YZPldUux1Nw7go7Ll2vl22rcx3ebs7o93ta8dS3P8iJ9+E71vtGwtfRjudafJ8V9l10+E+XiOf/1vb17a2mcA+FGPuCxTtfd2u6nqPof0Vdpi7at2+Uzytxznu5dvvtX5tW/tVH5lC4e8TK9ubcvbY1nben7m0Kq75e3iZXZNi5PfNFcdsc/M3xZdN86ef1WPXhqY9X43p7fFmxpG5OGmgcS8HQ8fQs7My7mBnY2LR1LF6aI5xdojwSRm/FDiPqW+acHDnAxNH0bTqZjC0/EjlbtzPfM+eWELy2XLcZ9Lhlhx6zn/AHrftsAYdwAAAAAAAAAAAAAAAAAAAAAAAAAAAAAAAAAAAAAAAAAAAAAAAAAAAAAAAAAAAAAAAAAAAAAAAAAAAAAAAAAAAAAAAAAAAAAAAAAAAAAAAAAAAAAAAAAAAAAAAAAAAAAAAAAAAAAAAAAAAAAAAAAAAAAAAAAAAAAAAAAAAAAAAAAAAAAAAAAAAAAF54De104xfAraCx7GF64De104xfAraCx7GEjVWboV+2O0D4Pmf8PWkeqfxvm/Crv7cq10L/bH7f8A5jL/AOHrSXVP43zvhV39uT3q3w6wCsAAAAAAAAAAAAAAAAAAAAAAAAOaKK7lymi3RNdVcxFERTzmZnuiHv8A0E71+8/X/wBRufM+eHFuq7xE21ajlznV8bv/AJ2Fq6QfGXibt7jPubRNG3blYen4mVFvHs00UcqI6kTy7vPKNIxGx97V1xTTs7X5meyIjT7nzP39TniF94u5Pi658zJfV+4w/fxm/o6PmPV+4w/fznf0KDuTTGvU64hfeLuT4uufMep1xC+8Xcnxdc+Zkvq/cYfv5zv6FB6v3GH7+c7+hQndezGvU64hfeLuT4uufMep1xC+8Xcnxdc+Zkvq/cYfv5zv6FB6v3GH7+c7+hQdzsxr1OuIX3i7k+LrnzHqdcQvvF3J8XXPmZL6v3GH7+c7+hQer9xh+/nO/oUHc7Ma9TriF94u5Pi658x6nXEL7xdyfF1z5mS+r9xh+/nO/oUHq/cYfv5zv6FB3OzGvU64hfeLuT4uufMep1xC+8Xcnxdc+Zkvq/cYfv5zv6FD4uceuMNzlz31qNPKqJ7IiP8A8g7nZjvqdcQZ7tjbk+LrnzHqdcQvvF3J8XXPmbN7B4v7q4wbFq21pm5/ob4i4EVXcWumaabOq0RHbHLuiv3PDvRTWONnHDRtVytJ1bd2pYmdi3JtX7F23RFduuPyG1skYf6nXEL7xdyfF1z5nzVw83/bomuvY25IpjxnTrnKP6mT+r9xh+/nO/oUHq/cYfv5zv6FB3Ts8LafDDfm59fsaLp+2NVtX7tyKa7uRjV27VmPGqqqeyIiFU4i710HhPtG/wALOF2XRf1W/T1Nxbgt+zuXOXKbVufzx2d3d382C5fHfi3lYl7Fvb0zarV+3Nu5EUURziY5T2pp+efdnxNfJv4c/wBcz2zMzzkBpgAAAAAAAAAAAAAAAAAAAAAAAAAAAAAAAAAAAAAAAAAAAAAAAAAAAAAAAAAAAAAAAAAAAAAAAAAAAAAAAAAAAAAAAAAAAAAAAAAAAAAAAAAAAAAAAAAAAAAAAAAAAAAAAAAAAAAAAAAAAAAAAAAAAAAAAAAAAAAAAAAAAAAAAAAAAAAAAAAAAAAAAAAAABd+Alyn1vXGOz29aMG3X+RB49jC58A/rC8Zfxba+WUMj2MI1VO6Lu4tF2rxv0XXNwZ9vA02xbyKbmRc59Sma7VcR3e7LIMrhdwnycy/kUdIDRoi7dqucp0252c55/ZIk45R40waJVs9SXhV/wC8FonxZc/vnqS8Kv8A3gtE+LLn99E+pT5qfzHUp81P5hdz4Wz1JeFX/vBaJ8WXP756kvCr/wB4LRPiy5/fRPqU+an8x1KfNT+YNz4Wz1JeFX/vBaJ8WXP756kvCr/3gtE+LLn99E+pT5qfzHUp81P5g3PhbPUl4Uf+8DonxZc/vnqS8KP/AHgdE+LLn99E+VHmj+icqPNH9FdG58LVPCfhV4dIDRPiy58759Sbhb4cf9C+Lrnzovyp80fmOVPmj8yf3N/haPUm4W/h/wBC+LrnzufUn4W/h/0L4uufOi3KnzR+Y5U+aPzH9zf4Wr1J+Fv4f9C+LrnznqT8Lfw/aB8XXPnRXlT5o/McqfNH5j+7PV+Fq9Sjhb+H/QPi6587j1J+Fv4f9A+Lrnzotyp80fmcXKY8nV2R3T4H92tz4bJ2OjLoF3SsHVfVk0O3hahb8riXb2L5KL1HPl1qOvcjm49bPtns/wD1u2z+a3/9x4PSVppnhfwf50RP/Ml3vj3aEK8la+1UfmNU3jGytrovaXl1XLWl8XNB1DIot1XfI2LcV1zFMc57IuS1xyrcWcm7Zpri5FuuaYrjx5Ty5rJ0L6KI4x5HKiI/5hze6P8AQhG8j/Kr385X8sk8pX5gKyAAAAyPhd28TNr8u3/nXH/eQyfpTe2F3j8Nj93Q8Dg79dnan41sftsg6UnthN5fDY/d0M+7XsmgDTIAAAAAAAAAD9sDLytPzbGfgZN7Fy8e5F2zetV8q7dcd0xLYK1c0jpGbejHyKsXSuKumY/1O52W7WtWqY7p/wDif/nd7HXd+2n5mXp2fYz8DJvYuXjXIu2b1qrlXbrjumJRqXXavvVMDO0vUsjTdTxb2Jm41ybV+zdjlXbrjwmHWbIaVh4vSY23kx5HH07iboeNFyvIpo6ljVceJ5R1/NXz5Rz88+bu161rTNR0bVcnStVw72Fn4lybV+zdjlXRXAWadQBWQAAAAAAAAAAAAAAAAAAAAAAAAAAAAAAAAAAAAAAAAAAAAAAAAAAAAAAAAAAAAAAAAAAAAAAAAAAAAAAAAAAAAAAAAAAAAAAAAAAAAAAAAAAAAAAAAAAAAAAAAAAAAAAAAAAAAAAAAAAAAAAAAAAAAAAAAAAAAAAAAAAAAAAAAAAAAAAAAAAABlGxdgbw3tXe+hrRr2ZaszyuXpmKbdE+brz2c2L1exX7LxN26v0edm2uHEZlzHx7l2jWbOnV8r/ojn2VV8u3l/g3x4zK93n9TzZccnTrvfN8RFdz6BrO2NYu6Tr+n38DNtRzm3dp5c488T4x7rJ9D4QcR9a0CNd07bGTcwqqOta61cU3LtHnoontln/GGcnF2Tw2scQK6Lm5cfKn0dRcqiq/Rh846kXOXj773OLOkcXdR4v2NW2VXqd/RLkWa9KyMG9yxLdrlHPnynlEd/N1nFju728t9Znljjrplu+98dvj92tuTYvY2Rcx8izctXrczTct3I5TRMd8TD81J6S1/T8ni9qFzAuWL1yLNqMy5jzE268mKI8pMck2cM8enKx7+HP6mGOfjYAjYAC49Gi7oeXsfiPtfWd0aXoFzWsG1Yxb2feiijr86uc+7y7O5+UcCtvfhy2H+mn50SmKZ76ebjq0fYU/0U13a2unqA6LP/8Am3Y36b/E9QDRfw27G/TT86F+To+wg8nR9hC6F09b/o34bdi/pp+c9b/o34bdi/pp+dC/J0fYQeTo+wg0Lp63/Rvw27F/TT8563/Rvw27F/TT86F+To+wg8nR9hBoXT1v+jfht2L+mn5z1v8Ao34bdi/pp+dC/J0fYQeTo+wg0Lp63/Rvw27F/TT8563/AEb8Nuxf00/Ohfk6PsIPJ0fYQaF09b/o34bdi/pp+c9QDRfw3bG/Tf4oX5Oj7CDydH2EGhdPW/6N+G3Yv6afnPUA0X8N2xv03+KF+To+wg8nR9hBoXT1ANF/Ddsb9N/ieoBov4btjfpv8UL8nR9hB5Oj7CE1Re9P6Oun6jqWPpuBxl2VlZeTX5OzZtVzXXcr80RE9sozvTRru3Nz6vt+7fpyK9OybmNXdojlFc0dkzEMt6NdNEcfdk8qY/jSj5JeVxt+u3vH8a5H7ck8r27KV0lfrXcH/wASXfloQpdekr9a7g/+JLvy0IURla+hj9eHJ/EGb+xCMZP+U3v5yv5ZWboY/XiyvxDm/sQjOV/lV7+er+WUnkviPzAaQAAABlHCO7TZ4qbVu1UzMRquP3f68QyLpTe2F3j8Nj93Qxjhb9cza/41x/3kMn6U3thd4/DY/d0M+7XsmoDTIAAAAAAPR0fQtb1nytWk6TmZ0Wo53Jx7M1xR78ujftXce/VZyLVdm7bq5V27kTExPuxJqm54fAAAALh0Rr+Zi53ETM07JrxczH2fk3LF6ieVdu5Fccq492JZBiX9E6Sm3KMXMqxNJ4p6djfUL3Zbtaxbojun/T+T3nhdET2HE7/sdkfKiGmZeVgZePn4GTexcvHri7ZvWq+VduuO6Yll03qR2td0jUtB1nJ0fWcK9g5+LXNu/j3aeU0T83uui2YwMzQekntm1pWrXcPSOKWm2OWLlzEU29Utx/Jn3fc8O+OxrvuTRNV25rmVomt4V3B1HFrm3es3KeUxPnjzxPhJKzcXngNMgAAAAAAAAAAAAAAAAAAAAAAAAAAAAAAAAAAAAAAAAAAAAAAAAAAAAAAAAAAAAAAAAAAAAAAAAAAAAAAAAAAAAAAAAAAAAAAAAAAAAAAAAAAAAAAAAAAAAAAAAAAAAAAAAAAAAAAAAAAAAAAAAAAAAAAAAAAAAAAAAAAAAAAAAAAAAAAAAAD1tu7n3Htmu7c29rOZptV2OVz0PcmIr9+O55Li57CSWy7hcZZqrf0p8S1Xp3DfXvJRTl6ntu3Vl3f5d65HLtr888pYJwz3FuS3ufQdBxdd1GzpuRqOPbuYtOTXFuaJuRzjl5phQOlJdqnaXCaz2co2vRV7vhCXcM/rk7Z/GmP+3BMrvZlhje1nZkfSZ0/C0vjvuvA07FtYmNbyqOpatU8qY526JnlHvzMp0p3Ss9sLu/4Vb/dUJikavkAVkAAAAAAAAHHWpj+VB16Ps6Qcjjr0fZ0nXo+zpByOOvR9nSdej7OkHI469H2dJ16Ps6Qcjjr0fZ0nXo88A5HHXo+zpOvR9nSChdGv6/uyfxpR8kvJ42/Xb3j+Ncj9uXq9GuaZ4+7J5TH8aUfJLy+Nn1294/jXI/blmeWvaKT0lfrXcH/xJd+WhCl16Sn1r+D34ku/LQhSwvlauhh9eLJ/EOb+xCM5H+VXv5yv5ZWfoY/XiyvxDm/sQkudpGsWsy9FzSM+iZuTPbj190zPuJPKV5w7fpZqn3Lzv0FfzHpZqn3Lzv0FfzNI6g7fpZqn3Lzv0FfzHpZqn3Lzv0FfzA6g7fpZqn3Lzv0FfzHpZqn3Lzv0FfzA9jhb9cza/wCNcf8AeQyfpTe2F3j8Nj93Q8LhfpupRxL2zNWm5sRGq48zM2J+2R7jJulBp2oXOP8Au+5a0/LuW5zYmmumzXMT9To8U92vZLB2/SzVPuXnfoK/mPSzVPuXnfoK/mVl1B2/SzVPuXnfoK/mfF3A1C1R17mnZtFPnmxMR8gOuOZiYq5TRNE+aY5S4AcV9lE8vM5AbCb13Ju7YPDnYeLw7m5gaXn6dRlZWXi2PKV38qfZ0Vzyn8zq8ZtOwdwRw31bemRY2xrOtWK41vK8hzm3bj2F2q3Hbzn+1PdjcVd77N06dM0XVaPQHPr0Y2TZi7bt1+eiJ7pY5uvcWt7p1m7q+vahezc252TcuVd0eaI8I9x3z5cbjZ8vn8Ppc8OSWydt9/e7+Ve9S/gV+H218VXHPqYcCvw+2vim4hXKPMco8zhp9Pc+F19TDgV+H218U3HzVwy4FUxznj7b5e5pFyUM5R5nPKnzGjc+Gy2yLvBzhnt/eeTonFa3uHUNX0G/gWMadNu2vp5p7O3l4zyhrPb7KI5976Ek0lsr9MXLycDKtZ+DkXMbLxq4u2btueVdFcdsTEr50y71Oo1cPNfv26PTDUdvUXMq9Edt2Y5ds/lmfztfb38DX70th+mbbi1gcMLVPdG26I/+i2nus8NegGmAAAAAAAe3sfa2ub03Ni7c29iVZOflTypiPYW6PGuufCI862bo0Lo9cM8m3tfclnXt37hsUf8AOWRp9+KbVq540xE1REcvN2+6jTXgXa3r/RdmjnXsfeNE+ab9E/8AjfXp90WvvL3h+nj++bTX5QcXj0+6LX3l7w/Tx/fPT7otfeXvD9PH982a/KDi7zrvRamJj6Ct4x/8+P77remXRc+9jff61R85s1+UTiK6q4oppmuqZ5RERzmZ8zOdR4QcSdP0H08y9qZlOFTR5SqY5TXRR55oieaocMtV6ONXEjQ6dP27u/EyfRdMWL2fl25xor8Jrjrd3N6OgaHxWxekXm6rNOs4mgUZ1y7lZOo3+tjzh9vOJn2NXZ3cnXiwmXmV4/Vc+XFfts8b7+7WPvHtb7yNNyt765k6RRRTp1zOu140UU8o8nz7OTxXOzV09eOVykoAAAAAAAAAAAAAAAAAAAAAAAAAAAAAAAAAAAAAAAAAAAAAAAAAAAAAAAAAAAAAAAAAAAAAAAAAAAAAAAAAAAAAAAAAAAAAAAAAAAAAAAAAAAAAAAAAAAAAAAAAAAAAAAAAAAAAAAAAAAAAAAAAAAAAAAAAAAA7GBhZmflU4uBiX8vIq7rVmia65/JDrrtw9zc/avRu1LdGzseJ3Dk6r6Fzcy1b8pdxrEcuXKO3lEtYYzK93Ln5bx4yyd7dInqmm6jpWXOLqeBlYN+I5+TyLc0T/W6q9bm1HXN09GrI1zftrr6nharataPnZFrqX7tuZ+njwmYh5mPsngFdw8e7c4wajYvV2Ym9bq06Z6tfLtju85yYzHwnp+TLll6p3l0jD5uewlcMfYHAG9XNPq2ZVvl43NPmI+R+s8OOAExNPq5V/qM/Mxt6Omvw6UcTTo/CyiqmYmNoWuyf9ZMeHE1xxE21NNPOr02x+X6SGxnFa1wI39Rt2m/xe9A+kel0adRNGJXXN2Inn157OxjO2tl8AtE3Fp2sU8a679WDlW8im36CmOv1J58ufJI1ZWFdK32w+7/hVv8AdUJg2Z4n6LwG3zv3Vd23+Ms4VzUbkXJsUYVcxb5URR2Ty9xjXqc8APw5XP1GfmJUuNtQsXX1OeAH4crn6hPzOPU54Acvr5XP1CfmXaaqFi5+px0f/wAOVz9Rn5n16nPAD8OVz9Qn5jZqoULr6nPAD8OVz9Qn5j1OeAH4crn6hPzGzVQoXX1OeAH4crn6hPzHqc8APw5XP1CfmNmqhTir2E+8u3qc8APw5XP1CfmfM8OOAPKf/wBcrn6jPzGzVZVuXcO0eGfCrh1k08MNsa/l6zpXlsjJzbEdea46vbz5dszzYl6vG2fwGbG/Q/4Kzxa2dwdzdhcPMTcPErJ0/TsPS5t6XkW7HOcy32fVJ7OxNfU76Nn4adR/V/8AyJuNWV0PV32z+AzY36H/AAPV32z+AzY36H/B3/U76Nn4adR/V/8AyOPU76Nv4ac/9W/8h2TVdH1d9s/gM2N+h/wPV32z+AzY36H/AAd/1POjb+GvUP1b/wAjj1Oujd+GnP8A1f8A8h2NV0fV32z+AzY36H/A9XfbP4DNjfof8He9Tro3fhpz/wBX/wDI59Tvo2fhp1H9X/8AIdjVdD1dts/gK2L+h/wcervtj8BexP0P+Dv+p30bfw05/wCrf+Q9Tvo2/hpz/wBW/wDIdjVdD1ddsfgL2L+h/wAD1ddsfgL2L+h/wd/1Oujd+GrUP1b/AMj5r4ddHL+RxszY9/F/8h2NV7/BfjBt7XOLG2dJxuEGz9KvZWdTbt5uNb5XbE8p+no7O9D+Nv1294/jXI/blfODmxeCGn8Vtt5u3eK9/VtUsZsVYuFXizHla+U9nPlHJA+Nv13N48quf/OuR+3JPJfZSukt9a/g9+JLvy0IUunSW+tfwe/El35aELWJVt6FN2uxxnvX7U8q7ehZlUT5piImH5X+k3xhov3KI1zTeVFc0xz0qxPZE8vM/boTU27nGy7ReueTtV6JmRXX9hHKOcvVvcNejpN+5NzjhdoqmuZmIxp7J5/6jN8tTeuzwfXOcYvu3pfxRY+Y9c5xi+7el/FFj5nuepr0c/w53v1Wf7h6mvRz/Dne/VZ/uJ2Pv/mnh+uc4xfdvS/iix8x65zjF929L+KLHzPc9TXo5fhzvfqs/wBw9TXo5fhzvfqs/wBxdw+/+aeH65zjF929L+KLHzHrnOMX3b0v4osfM9z1Nejl+HO9+qz/AHD1Nejl+HO9+qz/AHDcPv8A5p4cdJ3jHE8413TIn8UWPmcz0nuMlU86te02Z886RY+Z7fqa9HL8Od79Vn+4epr0cvw53v1Wf7huH3/zTw/XOcYvu3pfxRY+Y9c5xi+7el/FFj5nuepr0cvw53v1Wf7h6mvRy/Dne/VZ/uG4ff8AzTw/XOcYvu3pfxRY+Zzb6TfGC5dtUVa3pkxXXET/AM0WPGfee36mvRz/AA53v1Wf7jm1w16OtN2iqOON6ZiuJiPQ0+f/AFE7H3/zTp9OGzbt8Z7N6iiiiu/pWPVc6kRETPLzIS3J6SGy+DutcSfRu7+KN3QNT9A2KJw6bXXiLcR9JX3T3x2pt6mvRy/Dpe/VZ/uNTLRljbWv42A9TXo5fh0vfqs/3Hzc4b9HKmnn6uF+r3IxZ/uHUnTUBGwmlcNejnq+oRpWDxe1OjNu1eTx679mimzXVPd2zR3c/PMJPxX2BrnDjdt7QNbtxXEx5TEy7dP1LKteFyifljwWWJZYxMBWQAACe6QfvjYGfqMXbWn4OVl10UTNUWbc1co888l/6aNyiuxw1txVHXo27R17f8ujso748HRp3HuHh1wI2hm7FiMW7rNy/d1LUaceLtc3KK+VFuecTyjk6HHjMzdycNdl7z3JhRh7lzKruNe+k6s5Nij2FyaPD/F1y4Zrte7yYeryyyk6ftts89+34RYByesAAAAe1sra+ubz3Pi7d25hV5efkzyiiO6iPGuufCI8ZNk7X1zee5cXbu3sKvM1DJnlTRHdbjxrqnwojxldd47m0HgNtbJ4fcPcuzn70zaOpr2v0xznH/8AhW58JjzeHfPb3S1qQ3puXQeA218jh7w+y7WfvPMt9TX9fojn6H89q3PhMebw757WuVdddy5VduVzXcrmZrrrnnMzPfMyV11V3Kq7lc13K5ma66p5zXM98zL5C0AVkBxXVTT3zyByOKKqau6ebkD/AEmQ5m9955mj+k+XurWb+nTRFE41zKrmiaI8OXmY8Eys8Jljjle8/wCAAUAAAAAAAAAAAAAAAAAAAAAAAAAAAAAAAAAAAAAAAAAAAAAAAAAAAAAAAAAAAAAAAAAAAAAAAAAAAAAAAAAAAAAAAAAAAAAAAAAAAAAAAAAAAAAAAAAAAAAAAAAAAAAAAAAAAAAAAAAAAAAAAAAAAAAAAAAAAAZHsTfG59kZ13J25qVWL5eOV+1XEV27sf6dE9kscDHK42WJnjjnOnKbjKN/7/3VvnIs3Nx6jN+jH7LFm3RFu1b96I8WLgW3K7t2YYY4Y9OM1AAUAAAAB+uJj3srJs4mNam7fu1xbt26O+uuZ5RB5H5C02eAOTF+zpGob629gblvW4uW9IuVzNztjnFEz50l3BpOoaBrmZo2rWJx8/EuTavW58Jjze41lx5YT7o48XqOPlusLvToAMuwAA4q9hPvOXFXsJ94F26R/wBaTg/+Iq//AAoUuvSP+tJwf/EVf/hQpI1QBWQAAAAAAAFC6Nf1/dk/jSj5JeRxt+u3vH8a5H7cvW6Nf1/dk/jSj5JeTxt+u3vH8a5H7cs+7U8RSukt9a3g9+JLvy0IUuvSW+tbwe/El35aEKWFWroYfXiyfxDm/sQjOR/lV7+er+WVm6GH14sn8Q5v7EIzkf5Ve/nK/llZ7lfmAMgAAAAAAAD7sf5TY/nqPlh8Pux/lVj+co+WBYtXTZ+vlX+KsX93CJLd02fr51finE/doik9jLyAKjiYiY5T2xLYHhVvzbvELadnhJxYvcrcfSaBr1X8Jh3O6iiuufDw7eyY7J8Ja/kxzhFlZXxS2Fr/AA53Ve0DcFiOv7LFyrdP1LKteFyifljwYo2B4Vb90DiJtaxwm4s34ij2Gha9XP1XEud1FFdc+Hh29k90pRxS2DuDhzuq9oG4LH0/s8XKt0/Ucq14XKJ+WPBJWrPeMVAaYAAZxw/4pbu2Rpt3TNJyMXI0+5X5T0Jm2IvW6K/s4ie6Xj763juHeusRqu48+cm/RHk7dERyt2qPNRR4Qx8W55Wa32c5xcczucx7gCOgAA9rZW19c3nuXF27t3Cry8/JnlFMd1EeNdc+ER4y42VtfXN57lxdu7dwqsvPyp5UUx3UR411z4RHjK7723Ht7gLtS/w94f5trUd65tHU1/XaI7cfs7bVufDl5vDvnt7pa1J8s+wNF2Jwp4fZezttcTduaRvTO6tvVtYvfVblMfy7dvqew5T2RE/6Uz290mo4E7Yyeve9XPZ9dddUzXVcucqpme+Z5zzQmvncqqqufT11TzmqvtmZ88z4uOpb+10f0YTS7i8+oFtr8OOy/wBNHzufUC2x+HDZf6aPnQTqW/tdH5oOpb+10fmhdU3ivfqBbY/Dhsv9NHznqBbY/Dhsv9NHzoJ1Lf2uj80HUt/a6PzQapvFe/UC2x+HDZf6aPnZJ9Bm2uDfCfUt84OubZ3prNzLoxMW9NEXrFuJ9lREdsdfx7WsPk6PtdH9GGecM+JOXszTM7RMnRNP17Qs6YuXsDNj6SLlP8uiY7pb4705d64epxueGpjv8b1/ll/EHL0TiFwdu8QY27j6FrulZ1vDvzh0RRYzKK/GI88f1IszviXxLz946dg6LjaRgaBoeBM3LOnYMT1JufZ1z4ywReXKZXs5+l48uPDV7d/HnU+ABh6AAAAAAAAAAAAAAAAAAAAAAAAAAAAAAAAAAAAAAAAAAAAAAAAAAAAAAAAAAAAAAAAAAAAAAAAAAAAAAAAAAAAAAAAAAAAAAAAAAAAAAAAAAAAAAAAAAAAAAAAAAAAAAAAAAAAAAAAAAAAAAAAAAAAAAAAAAAAAAAHY03CytS1CxgYNivJyci5Fuzatxzmuue6AtdcVrP6Pu/cTBu3rd3RszNtW/K3tNx82K8miP9TzpNejyVyqi79TqomYmmrsmJjvhrLC4+XPj5sOX+i7cD58pa+20f0oPKWvttH9KGXbV+H0Pnylr7bR/Sg8pa+20f0oDV+H0Pnylr7bR/Sg8pa+20f0oDV+H09vYes29u700fXL9ny1nCy6Ltyjq8+dET2/1PC69v7ZR/Sg69r7bR/Sgxy1dxnLDqlxs8tlNX4e6RvLizTv/R+IGjzpebl283qRcn0XRXHKfJU0d/PsSPjnuK1uniprWr4+Ndx7M3IsUU3qOpc5W45c648Jl6HRemzV0gdn9tuf+Wz5p7epLzuPXbxt3r+Osj5W8+XqmpNPPw+kvHZlllvU1PbswoBh6AABxV7CfecuKvYT7wLt0j/rScH/AMRV/wDhQpdekf8AWk4P/iKv/wAKFJGqAKyAAO9oGk52u65haNptry2Zm3os2aOfKOcz4+46LIeHG4Kdp780bcdyzVetYGRFy5bjvmjunl7vJcdWzbOdsxtx8qpc4FbbqzZ21j8TtKubwiOU6fNH1Oa+X8HE9/NE9bwcnRtVy9K1G15DLxb1dm9bme6YnlK74+0eHuNvqOJNzifp86LGd6Y0YsUT6Mmvn1/Jcu/nz7OfJimHxjr03iDubc+NtDbus06xkRXRRq+J5abFFHPqdTzTMd7tzYSTxr/w8Xo+XPPLVyuU17zWr8JR5SjwqPKUfZwvFvpK6jb5+T4W8PaPPy07l/a+Z6SWdVPOvhTw8mfPOm/4vPuvosL6NVyieP8AsnlVz/50o+SXlcbfrt7x/GuR+3Km4nSZ1fDyrWVgcNNgYmTanrW71rTppronzxMTziUW3XrGTuDX9T17Not0ZWoX7mTei3HKiK65mZiPcJ5Xt2WbpLfWt4PfiS78tCFLr0lvrW8HvxJd+WhCiJVq6GH14sn8Q5v7EIxkf5Ve/na/llZ+hh9eLJ/EOb+xCM5H+VXv5yv5ZWe5X5gDIAAAAAAAA+7H+VWP5yj5YfD7sf5VY/nKPlgWLr05aYjjFiTERznR8fnPn7EHXrpy/Xhw/wAT2EFSLfIArIABMc47WwPCvf8AoHETa9nhNxYvx1fYaDr1c/VcO77GiiuqfDw7eyY7Ja/E0845I1KyrijsHcHDndd7b+4LHKuPp8XJt0/Usq34XLc/LHgxVf8AhjvzQuI21LHCbivldXlPLQNer+muYtzuoormfDw7e/ul++r9FbWtIyrdvU+Ie08Gi9z8lXl3fJTcojximZ7fyJtbjvw15GwHraLX4Xtk/rNP989bRa/C9sn9Zp/vrtnprX8bAetotfhe2T+s0/3z1tFr8L2yf1mn++bOmtfxsB62i1+F7ZP6zT/fPW0WvwvbJ/Waf75s6a1/e1sna+uby3Li7d25hV5mo5M8qaI7rceNdU+FEeMq9f6NeV5Xq4vFHY1+nn3znRE/m5yyHc+5dpcBdg39m8PtXx9a3vqtHLVdbx+Uxj0z4W5ju9yIn3Z7eRtZi/DeO5NC4A7Yv7A2Bl2M/eubb5a5rsREzj//AArfmnzR4d89rW6uuu5XVduV13LlczNdVU85mZ75mXNyuu5cqu3a67lyuZmuuqeczM98zPnfIWgCsgAAAAAAAAAAAAAAAAAAAAAAAAAAAAAAAAAAAAAAAAAAAAAAAAAAAAAAAAAAAAAAAAAAAAAAAAAAAAAAAAAAAAAAAAAAAAAAAAAAAAAAAAAAAAAAAAAAAAAAAAAAAAAAAAAAAAAAAAAAAAAAAAAAAAAAAAAAAAAAAAAAAAAAADNeBWtaft3i1oOravXFGHbvTTcuT3W5romIrn3pnmwoMb02VnkwnJhcMvdsZtDhlvTbXF36O9c1zCsaBiZVWZf1erOiYy7POZ6sRz5z1o7OUsP25xY0Dbu691Z1fD7RdyY2rajcyce5nfS3LVEzPKI7J7J7+ST15GTVZixcy8muzHsbc3ZmiPyPzdOTkmU1I48HDlhnc87Lda8aX31we2PwHbU/Sf8Akfj64PQvwKbN/r+ZCBy09PUu/rg9C/Ans3/8/IeuD0L8Cezf/wA/IhAaOpd/XB6F+BPZv/5+Q9cHoX4FNm/1/MhAaOpfI6Qe2eUc+B+1Ofjyuf8Akc+uD2x+A7an6T/yIEGjqbX8E+NWgbi4r7f0TF4Sbd0e9l5M0UZuPc53LM9SZ5x9JCC8efr2bz/HWR8r54Ibj0vaPFjb+5NZrvUafg35uX5tW5rr5dSYjlEe6r25dc6K24dxahr2qUbyrztQv15F+bdNdFE11zznlEdyabned2tw2B6/RH+1b2/p3Dr9Ef7Vvb+ncNnS1+GwPX6I/wBq3t/TuHX6I/2re39O4bOlr84q9hPvNguv0R/tW9v6dwmvojz/AJre39O4bOl0ekfMepPwfjn2+kdfZ/RQxtPxT2zt3i/wt0fP4PZmRnVbNx6sS5pGRExlTYnlPOIntqns/L77VjtiZpmmqJieUxMcpifNKxMpoAVgAAABx1KefPqxz8/JyAAADi5/B1+9Ll83PYVe9IsXbpL/AFreD/4ku/tUIWufSOqpvcJODt+3V9LOjX6fzTQhiRb5WroYfXhyfxDm/sQjOR/lV7+cr+WVr6E1ivJ41Xca3MRVd0TMt08/PMUQ+L3Ri4q15Vzq2dC6k3J5Vemlvu5z28uae663ETFx9a1xP+3bd+MaH45PRf4r2qaq7OPoeV1KJqmLepW+fKO/vXbPTUUHNdNVFyqie+iZpn34cKgAAD9tPxb2dn4+DjU872RcotW4n7OZ5Qd13ruyrgrtTG3xxR0La+ZXdoxM2/MX5tTyri3Ec55T4SqmtaP0WNF1rO0bPyt815eBkXMa9NFyOXXomYnl2d3Y7+3sjg9wc4g6Zh5Nes525tOmIy9St187GPdrjlMTb8Yjn4JHx00TUdB4p61a1LKt5d3Mvzn0ZFujq0Xabv08TEeHe3nxXHu4cPqsOSySWb8b9/5/wofkuib/ANZ35+kj5n1YtdE/y9rqZO/Ot146vOqO/n7yBvux/lNj+eo+WHPT0TKrz06ur6s2N5Pn1PSix1OfmQNb+m3VM8cJpmZ5RpWJ1Y830iIEL5AFZAAAAJ7Y6stguFW/ducRdr2eE3Fy9FVM/S6Dr9XLyuHc7oorrnw8O3smOyfCWvriY5osy0yzivw613htuu7oGv4tE/y8XLt0fUsq14V0T8sd8MR8na+10fmbD8KOIOgcQ9rWuEnFu/PkquVGha7XP1XEu91FNdc/m5z2THZKUcV+H24OG27Lugbgsxzq53MTLtx9Sy7XhXRPyx4STTW994w/yVr7VR+Y8la+1UfmfYqbvy+PJWvtVH5jyVr7VR+Z9gbvy+PJU/YUfmfUREfSxERHuOQS0AEAAAAAAAAAAAAAAAAAAAAAAAAAAAAAAAAAAAAAAAAAAAAAAAAAAAAAAAAAAAAAAAAAAAAAAAAAAAAAAAAAAAAAAAAAAAAAAAAAAAAAAAAAAAAAAAAAAAAAAAAAAAAAAAAAAAAAAAAAAAAAAAAAAAAAAAAAAAAAAAAAAAAAAAAAAAAAAAAAAAAAAAAAAAAAAe/w/wB467sPdONuLbmVOPmWZ+non2F6jxt1R4xK88Rdl7d427Rv8UeGGNRj7jtU89e0GiYiuuvl210x5/Hn3Vx7rWdaui7qVGz6d18R5nIu16Dg0xRiWrnVjIm5PL6p54j+oxwuV1Ez5seLHeSK1fS11UVU1U1UzyrpmnlMT5pgXvVdyaLxp2huzNztpadoe4NHsemNjLwY5Rcp58q6LnnmfPPfKBxPOiKvPHNrLDp1fljj5eu5Y2as/n+XIDLoAAAAAAMi4d7L1/f+5rG3du4deRk3f4S5y+p2aPG5cnwiP636cNNjbg4hbqsbd27jeUvXPp716qn6njW/G5cnwj3PFbuJe+du8HNp3+FPCjIpu6xXTy1/X45eUm5y5TRRPn8Ozsoj3ecs2t44+9Y50q9Q29g2NncOtv6lGp1bTw7mNm5NPLqeVqmnnET545Tz83OEOO/nM1TMzPOZmeczPneltfRc7ce4cDQdNoirMzr8WbXPu5z4z7kLJe0ZyynlWehfEzxiyKY750HNiP6EIzl+VozL9M13ImL1cTHXnzy2m4NbZ2Jw94jXsTTN9WNY3hTg38L0BXT5KxXdrj2EV8pjnEw1f1rHy8TWs7Fz7fksu1kXKL1vzV9eecfnby4rh3rjxep4+btjXU51/bbn9OVl6Gs1Tx2womquf+bc7smZn/MSjS1dCejyvH/T6f8A9uzP67fJivRh/UjWZFUZuRE0zExeriY83bL8no7otVWN06xjzPObedfo5+flcl5ys0AEH64eTews2xmY1fUvY9yi7bnzVxPOH5B3LFw1Lc/BLdesW95bnxNfxdbqoorztNx6Imxk3aI7+t4c+Sb8Ut4ZO+t6Ze4L2NTiW7sU2sexE84tWqI5UU+/y72LjeXJcpquHF6bDiy3Lb8b9v2FW2jwn0+7tbTt1bx3pgbWxNQr6+n2r1E13L8RPs+Ud0JRMc6Jp88cl4ztG0Di5tHbOVi7x0rQtV0bBp0/Ow9Qr8nRERP8Jb8/P+trixmW/eseq5MuPXfpnvfOnm9MSm9lcXo1uLdNWnahp2PODeoriui/RRRFEzEx7qNKdxz1nQasXbOzNuan6bYu28KbF7P5cqbt2Z5z1PchMWOTGTLUdfT5558cyz8/z/oAZdQAAAAACY509WWwPDDfOicS9n0cJOKefTZu2/8Ao7rt7trx7vdFu5VV4eHb3x2S1+cTHOO3tRqVccvow8QLeTdt4+r7Tv2aK5i3e9NIo68eE8uXZ7z8vWycR/ultL43j5kX8pd+33v0knlb32+9+kldC0etk4j/AHS2l8bx8x62TiP90tpfG8fMi/lb32+9+kk8re+33v0kmhaPWycR/ultL43j5j1snEf7pbS+N4+ZF/K3vt979JJ5W99vvfpJNC0etk4j/dLaXxvHzHrZOI/3S2l8bx8yL+Vvfb736STyt77fe/SSaFo9bJxH+6W0vjePmcx0Y+JEzEU5+1K6pnlERq0c5n8yLeVvfb736SXq7Lu3vo00L6te/jLH/wA5P2yDR2fe+draxsrdGXtvXrdu3qOJy8tRbr68dsc45T49jxFd6YkcukNuD+bx/wB1CRIlgAqAAAAAAAAAAAAAAAAAAAAAAAAAAAAAAAAAAAAAAAAAAAAAAAAAAAAAAAAAAAAAAAAAAAAAAAAAAAAAAAAAAAAAAAAAAAAAAAAAAAAAAAAAAAAAAAAAAAAAAAAAAAAAAAAAAAAAAAAAAAAAAAAAAAAAAAAAAAAAAAAAAAAAAAAAAAAAAAAAAAAAAAADLOGW+c3Y+rZGTZw8fUcHNsTYz8DI/g8m35p80x4SxMJbjdxM8JnOnLwp+6+KmFk7TzNsbN2Zp21sHUJj0dcs1zcuX4jt6nOe6EwBc87ld1ji4sOKaxAEdAAAHFzn5Orl38pCMk2psTeG6sW9l7d29mZ+PanlXdt0cqOfmiZ759yHc2Vw23duzflrZmFpV/F1Lrc8j0TRNMY1vxuXPc+VVOIFzeNvhzw8vcOK9Up0OjA5XJ0vrc4y+f0/lOr49/Lm63GzcG7tvaVsfWMnU8vSN75OlXLOqXMavyV+uxz+ki5y8XfPimON17f7PDw+ryz5Mdyau/3mvl7fEvfG3eDe0sjhVwryPK6zcjqa/r1PLyk3OXKaKJ8/h2dlEe61qnvmZqmZmeczNXPnPnKpqmZqmqZmZ5zMzzmZ8488mn0LdjIuGm4/oR37o25K7c3bWFkxXet099dueyuI93kx0WWy7nljPGZY3HKeV/xNA4S6dvb1Q54kW8jTacqdQs6Zbsz6Lquc+fk58Y7fFF96azVuPdura9NryPo/KrvRb+wiZ7I/M8flHmhy6Z8nVNSaceHg+nl1ZZdV8d/gXDoORz6Qmn8+X8XZf7CIUU1VVxRTTM1VTyiIjnznzNnei7w13fsjiPhbx3FgWMbBo07I52Iv0V5Mde32fUo7e1zmFy8R1y5uPisueWmvm/6KLe/dx0W6utbjVcmKJ9zysvEd/cd+cvcmq5c0Tbm/m3bnUrjlMc65nlMOga02ACAAAADiaKJ74iffhyAR2d3ZAAAAAAAAAAAAAAAAAAAAD1tl/wDTTQfxnj/vIeS7Gn5V7A1DFz8eqIvY16i9b5xzjr0TzgWKp0xa4jpDbg51f5vH/dQkPlKPPSumX0kdW1DIqzNZ4ebJ1TNriIrycjEmquuIjlHOXFrpD8uflOEmwa/N/wAlmOTPhqxDPKUec8pR5129cTa/A9sL9WrfUdIvG8eDmxOfuWJXdNflB/K0ec8pR4Tz/Iv9jpKU49E0WOEOx7cT28osz8zsY/SiyrFc12eFWzLczHKZi3Mf2G78HT+WvE3KIjt50/kV7Q+CldWh6fn7q3po21svVKIuafhZdf1SuJ7pq83NlOV0pdRyIppu8L9mVxHbEV265exxZ0/A4+ZGgbr0Pce3NGs42FGPqGPk3fJ3sarnznnHjy8OTrw49W+23j9Xn9OS9fTPnW2vm99sats7cuToGtWYoy8eYnnRPOi5RPdXRPjEw8VTukbr+h6xu7TcHQMz0xxNG0u1p85v/WK6O+YnxTFnOSZWR14M8s+PHLOdwBl0AAAAAAAAAAAAAAAAAAAAAAAAAAAAAAAAAAAAAAAAAAAAAAAAAAAAAAAAAAAAAAAAAAAAAAAAAAAAAAAAAAAAAAAAAAAAAAAAAAAAAAAAAAAAAAAAAAAAAAAAAAAAAAAAAAAAAAAAAAAAAAAAAAAAAAAAAAAAAAAAAAAAAAAAAAAAAAAAAAAAAAAAAAZHtDfe79o27trbev5en2bk867VE87cz5+pPZz915Ot6rqmtajd1LWNQyM7Mu+zvXq5qrn3PedIOq61tmYYy9UncAGgAAAGRcMM7TtN4j7e1DVuXoHHz7Vy/NfdEc++fchcb/DfiZc4717ws6jRRo/o70ZGs+i6fIehefW5d/d1ezl3NbO93fTbVfQXoL011D0Ly6vkPRNfk+Xm5c+XJ0w5JjNWfl5ufgz5MurC+2u829rixqGm6rxM3FqGj8vQORnXK7Mx3V9vbMe/PaxgHO3qu3owxmGMxnsACgAAAAAAAAAAAAAAAAAAAAAAAAAAAAAAAAADiaKZntiJcgAAAAAAAAAAAAAAAAAAAAAAAAAAAAAAAAAAAAAAAAAAAAAAAAAAAAAAAAAAAAAAAAAAAAAAAAAAAAAAAAAAAAAAAAAAAAAAAAAAAAAAAAAAAAAAAAAAAAAAAAAAAAAAAAAAAAAAAAAAAAAAAAAAAAAAAAAAAAAAAAAAAAAAAAAAAAAAAAAAAAAAAAAAAAAAAAAAAAAAAAAAAAAAAAAAAAAAAAAAAAAAAAAAAAAAAAAAAAAAAAAAAAAAAAAAAAAAAAAAAAAAAAAAAAAAAAAAAAAAAAAAAAAAAAAAAAAAAAAAAAAAAAAAAAAAAAAAAAAAAAAAAAAAAAAAAAAAAAAAAAAAAAAAAAAAAAAAAAAAAAAAAAAAAAAAAAAAAAAAAAAAAAAAAAAAAAAAAAAAAAAAAAAAAAAAAAAAAAAAAAAAAAAAAAAAAAAAAAAAAAAAAAAAAAAAAAAAAAAAAAAAAAAAAAAAAAAAAAAAAAAAAAAAAAAAAAAAAAAAAAAAAAAAAAAAAAAAAAAAAAAAAAAAAAAAAAAAAAAAAAAAAAAAAAAAAAAAAAAAAAAAAAAAAAAAAAAAAAAAAAAAAAAAAAAAAAAAAAAAAAAAAAAAAAAAAAAAAAAAAAAAAAAAAAAAAAAAAAAAAAAAAAAAAAAAAAAAAAAAAAAAAAAAAAAAAAAAAAAAAAAAAAAAAAAAAAAAAAAAAAAAAAAAAAAAAAAAAAAAAAAAAAAAAAAAAAAAAAAAAAAAAAAAAAAAAAAAAAAAAAAAAAAAAAAAAAAAAAAAAAAAAAAAAAAAAAAAAAAAAAAAAAAAAAAAAAAAAAAAAAAAAAAAAAAAAAAAAAAAAAAAAAAAAAAAAAAAAAAAAAAAAAAAAAAAAAAAAAAAAAAAAAAAAAAAAAAAAAAAAAAAAAAAAAAAAAAAAAAAAAAAAAAAAAAAAAAAAAAAAAAAAAAAAAAAAAAAAAAAAAAAAAAAAAAAAAAAAAAAAAAAAAAAAAAAAAAAAAAAAAAAAAAAAAAAAAAAAAAAAAAAAAAAAAAAAAAAAAAAAAAAAAAAAAAAAAAAAAAAAAAAAAAAAAAAAAAAAAAAAAAAAAAAAAAAAAAAAAAAAAAAAAAAAAAAAAAAP//Z&quot;,&quot;width&quot;:&quot;1920&quot;,&quot;height&quot;:&quot;1080&quot;,&quot;x&quot;:0,&quot;y&quot;:0}" math="0" shadow="0">
      <root>
        <mxCell id="0" />
        <mxCell id="1" parent="0" />
        <mxCell id="gqFCZRHs8hvNs9leIOWQ-1" value="&lt;h3&gt;Client (User)&lt;/h3&gt;" style="rounded=1;whiteSpace=wrap;html=1;fillColor=#A8DADC;strokeColor=#457B9D;labelBackgroundColor=none;fontColor=#1D3557;sketch=1;curveFitting=1;jiggle=2;" parent="1" vertex="1">
          <mxGeometry x="520" width="120" height="60" as="geometry" />
        </mxCell>
        <mxCell id="gqFCZRHs8hvNs9leIOWQ-2" value="" style="html=1;shadow=0;dashed=0;align=center;verticalAlign=middle;shape=mxgraph.arrows2.twoWayArrow;dy=0.65;dx=22;labelBackgroundColor=none;fillColor=#A8DADC;strokeColor=#457B9D;fontColor=#1D3557;sketch=1;curveFitting=1;jiggle=2;rounded=1;" parent="1" vertex="1">
          <mxGeometry x="640" y="20" width="90" height="20" as="geometry" />
        </mxCell>
        <mxCell id="gqFCZRHs8hvNs9leIOWQ-3" value="&lt;h3&gt;Client Application&lt;/h3&gt;" style="rounded=1;whiteSpace=wrap;html=1;fillColor=#A8DADC;strokeColor=#457B9D;labelBackgroundColor=none;fontColor=#1D3557;sketch=1;curveFitting=1;jiggle=2;" parent="1" vertex="1">
          <mxGeometry x="730" width="120" height="60" as="geometry" />
        </mxCell>
        <mxCell id="WSGV7BfRgn2utAXJgyUl-1" style="edgeStyle=orthogonalEdgeStyle;rounded=1;orthogonalLoop=1;jettySize=auto;html=1;exitX=0;exitY=0;exitDx=22;exitDy=6.5;exitPerimeter=0;entryX=0;entryY=0;entryDx=22;entryDy=13.5;entryPerimeter=0;labelBackgroundColor=none;strokeColor=#457B9D;fontColor=default;sketch=1;curveFitting=1;jiggle=2;" edge="1" parent="1" source="gqFCZRHs8hvNs9leIOWQ-2" target="gqFCZRHs8hvNs9leIOWQ-2">
          <mxGeometry relative="1" as="geometry" />
        </mxCell>
        <mxCell id="WSGV7BfRgn2utAXJgyUl-2" value="" style="html=1;shadow=0;dashed=0;align=center;verticalAlign=middle;shape=mxgraph.arrows2.twoWayArrow;dy=0.65;dx=22;labelBackgroundColor=none;fillColor=#A8DADC;strokeColor=#457B9D;fontColor=#1D3557;sketch=1;curveFitting=1;jiggle=2;rounded=1;" vertex="1" parent="1">
          <mxGeometry x="850" y="20" width="80" height="20" as="geometry" />
        </mxCell>
        <mxCell id="WSGV7BfRgn2utAXJgyUl-3" value="&lt;h3&gt;Payment Gateway API&lt;/h3&gt;" style="rounded=1;whiteSpace=wrap;html=1;fillColor=#A8DADC;strokeColor=#457B9D;labelBackgroundColor=none;fontColor=#1D3557;sketch=1;curveFitting=1;jiggle=2;" vertex="1" parent="1">
          <mxGeometry x="930" width="120" height="60" as="geometry" />
        </mxCell>
        <mxCell id="WSGV7BfRgn2utAXJgyUl-4" value="" style="html=1;shadow=0;dashed=0;align=center;verticalAlign=middle;shape=mxgraph.arrows2.arrow;dy=0.6;dx=40;direction=south;notch=0;labelBackgroundColor=none;fillColor=#A8DADC;strokeColor=#457B9D;fontColor=#1D3557;sketch=1;curveFitting=1;jiggle=2;rounded=1;" vertex="1" parent="1">
          <mxGeometry x="560" y="80" width="35" height="120" as="geometry" />
        </mxCell>
        <mxCell id="WSGV7BfRgn2utAXJgyUl-5" value="&lt;b&gt;(Request Payment)&lt;/b&gt;" style="text;html=1;align=center;verticalAlign=middle;resizable=0;points=[];autosize=1;strokeColor=none;fillColor=none;labelBackgroundColor=none;fontColor=#1D3557;sketch=1;curveFitting=1;jiggle=2;rounded=1;" vertex="1" parent="1">
          <mxGeometry x="590" y="108" width="130" height="30" as="geometry" />
        </mxCell>
        <mxCell id="WSGV7BfRgn2utAXJgyUl-6" value="" style="html=1;shadow=0;dashed=0;align=center;verticalAlign=middle;shape=mxgraph.arrows2.arrow;dy=0.6;dx=40;direction=south;notch=0;labelBackgroundColor=none;fillColor=#A8DADC;strokeColor=#457B9D;fontColor=#1D3557;sketch=1;curveFitting=1;jiggle=2;rounded=1;" vertex="1" parent="1">
          <mxGeometry x="770" y="80" width="35" height="120" as="geometry" />
        </mxCell>
        <mxCell id="WSGV7BfRgn2utAXJgyUl-7" value="&lt;b&gt;(API Call)&lt;/b&gt;" style="text;html=1;align=center;verticalAlign=middle;resizable=0;points=[];autosize=1;strokeColor=none;fillColor=none;labelBackgroundColor=none;fontColor=#1D3557;sketch=1;curveFitting=1;jiggle=2;rounded=1;" vertex="1" parent="1">
          <mxGeometry x="825" y="108" width="80" height="30" as="geometry" />
        </mxCell>
        <mxCell id="WSGV7BfRgn2utAXJgyUl-9" value="" style="html=1;shadow=0;dashed=0;align=center;verticalAlign=middle;shape=mxgraph.arrows2.arrow;dy=0.6;dx=40;direction=south;notch=0;labelBackgroundColor=none;fillColor=#A8DADC;strokeColor=#457B9D;fontColor=#1D3557;sketch=1;curveFitting=1;jiggle=2;rounded=1;" vertex="1" parent="1">
          <mxGeometry x="970" y="80" width="35" height="120" as="geometry" />
        </mxCell>
        <mxCell id="WSGV7BfRgn2utAXJgyUl-10" value="&lt;b&gt;(Process Payment)&lt;/b&gt;" style="text;html=1;align=center;verticalAlign=middle;resizable=0;points=[];autosize=1;strokeColor=none;fillColor=none;labelBackgroundColor=none;fontColor=#1D3557;sketch=1;curveFitting=1;jiggle=2;rounded=1;" vertex="1" parent="1">
          <mxGeometry x="1000" y="108" width="130" height="30" as="geometry" />
        </mxCell>
        <mxCell id="WSGV7BfRgn2utAXJgyUl-11" value="&lt;h3&gt;User Interface&lt;/h3&gt;" style="rounded=1;whiteSpace=wrap;html=1;fillColor=#A8DADC;strokeColor=#457B9D;labelBackgroundColor=none;fontColor=#1D3557;sketch=1;curveFitting=1;jiggle=2;" vertex="1" parent="1">
          <mxGeometry x="520" y="200" width="120" height="60" as="geometry" />
        </mxCell>
        <mxCell id="WSGV7BfRgn2utAXJgyUl-12" value="" style="html=1;shadow=0;dashed=0;align=center;verticalAlign=middle;shape=mxgraph.arrows2.twoWayArrow;dy=0.65;dx=22;labelBackgroundColor=none;fillColor=#A8DADC;strokeColor=#457B9D;fontColor=#1D3557;sketch=1;curveFitting=1;jiggle=2;rounded=1;" vertex="1" parent="1">
          <mxGeometry x="640" y="220" width="90" height="20" as="geometry" />
        </mxCell>
        <mxCell id="WSGV7BfRgn2utAXJgyUl-13" value="&lt;h3&gt;Client Server&lt;/h3&gt;" style="rounded=1;whiteSpace=wrap;html=1;fillColor=#A8DADC;strokeColor=#457B9D;labelBackgroundColor=none;fontColor=#1D3557;sketch=1;curveFitting=1;jiggle=2;" vertex="1" parent="1">
          <mxGeometry x="730" y="200" width="120" height="60" as="geometry" />
        </mxCell>
        <mxCell id="WSGV7BfRgn2utAXJgyUl-14" style="edgeStyle=orthogonalEdgeStyle;rounded=1;orthogonalLoop=1;jettySize=auto;html=1;exitX=0;exitY=0;exitDx=22;exitDy=6.5;exitPerimeter=0;entryX=0;entryY=0;entryDx=22;entryDy=13.5;entryPerimeter=0;labelBackgroundColor=none;strokeColor=#457B9D;fontColor=default;sketch=1;curveFitting=1;jiggle=2;" edge="1" source="WSGV7BfRgn2utAXJgyUl-12" target="WSGV7BfRgn2utAXJgyUl-12" parent="1">
          <mxGeometry relative="1" as="geometry" />
        </mxCell>
        <mxCell id="WSGV7BfRgn2utAXJgyUl-15" value="" style="html=1;shadow=0;dashed=0;align=center;verticalAlign=middle;shape=mxgraph.arrows2.twoWayArrow;dy=0.65;dx=22;labelBackgroundColor=none;fillColor=#A8DADC;strokeColor=#457B9D;fontColor=#1D3557;sketch=1;curveFitting=1;jiggle=2;rounded=1;" vertex="1" parent="1">
          <mxGeometry x="850" y="220" width="80" height="20" as="geometry" />
        </mxCell>
        <mxCell id="WSGV7BfRgn2utAXJgyUl-16" value="&lt;h3&gt;Payment Gateway Server&lt;/h3&gt;" style="rounded=1;whiteSpace=wrap;html=1;fillColor=#A8DADC;strokeColor=#457B9D;labelBackgroundColor=none;fontColor=#1D3557;sketch=1;curveFitting=1;jiggle=2;" vertex="1" parent="1">
          <mxGeometry x="930" y="200" width="120" height="60" as="geometry" />
        </mxCell>
        <mxCell id="WSGV7BfRgn2utAXJgyUl-17" value="" style="html=1;shadow=0;dashed=0;align=center;verticalAlign=middle;shape=mxgraph.arrows2.arrow;dy=0.6;dx=40;direction=south;notch=0;labelBackgroundColor=none;fillColor=#A8DADC;strokeColor=#457B9D;fontColor=#1D3557;sketch=1;curveFitting=1;jiggle=2;rounded=1;" vertex="1" parent="1">
          <mxGeometry x="560" y="280" width="35" height="120" as="geometry" />
        </mxCell>
        <mxCell id="WSGV7BfRgn2utAXJgyUl-18" value="&lt;b&gt;Submit Payment Info&lt;/b&gt;" style="text;html=1;align=center;verticalAlign=middle;resizable=0;points=[];autosize=1;strokeColor=none;fillColor=none;labelBackgroundColor=none;fontColor=#1D3557;sketch=1;curveFitting=1;jiggle=2;rounded=1;" vertex="1" parent="1">
          <mxGeometry x="585" y="308" width="140" height="30" as="geometry" />
        </mxCell>
        <mxCell id="WSGV7BfRgn2utAXJgyUl-19" value="" style="html=1;shadow=0;dashed=0;align=center;verticalAlign=middle;shape=mxgraph.arrows2.arrow;dy=0.6;dx=40;direction=south;notch=0;labelBackgroundColor=none;fillColor=#A8DADC;strokeColor=#457B9D;fontColor=#1D3557;sketch=1;curveFitting=1;jiggle=2;rounded=1;" vertex="1" parent="1">
          <mxGeometry x="770" y="280" width="35" height="120" as="geometry" />
        </mxCell>
        <mxCell id="WSGV7BfRgn2utAXJgyUl-20" value="&lt;b&gt;(Send Payment Info)&lt;/b&gt;" style="text;html=1;align=center;verticalAlign=middle;resizable=0;points=[];autosize=1;strokeColor=none;fillColor=none;labelBackgroundColor=none;fontColor=#1D3557;sketch=1;curveFitting=1;jiggle=2;rounded=1;" vertex="1" parent="1">
          <mxGeometry x="795" y="308" width="140" height="30" as="geometry" />
        </mxCell>
        <mxCell id="WSGV7BfRgn2utAXJgyUl-21" value="" style="html=1;shadow=0;dashed=0;align=center;verticalAlign=middle;shape=mxgraph.arrows2.arrow;dy=0.6;dx=40;direction=south;notch=0;labelBackgroundColor=none;fillColor=#A8DADC;strokeColor=#457B9D;fontColor=#1D3557;sketch=1;curveFitting=1;jiggle=2;rounded=1;" vertex="1" parent="1">
          <mxGeometry x="970" y="280" width="35" height="120" as="geometry" />
        </mxCell>
        <mxCell id="WSGV7BfRgn2utAXJgyUl-22" value="&lt;b&gt;(Validate and Route)&lt;/b&gt;" style="text;html=1;align=center;verticalAlign=middle;resizable=0;points=[];autosize=1;strokeColor=none;fillColor=none;labelBackgroundColor=none;fontColor=#1D3557;sketch=1;curveFitting=1;jiggle=2;rounded=1;" vertex="1" parent="1">
          <mxGeometry x="995" y="308" width="140" height="30" as="geometry" />
        </mxCell>
        <mxCell id="WSGV7BfRgn2utAXJgyUl-45" value="&lt;b&gt;Client Browser&lt;/b&gt;" style="rounded=1;whiteSpace=wrap;html=1;fillColor=#A8DADC;strokeColor=#457B9D;labelBackgroundColor=none;fontColor=#1D3557;sketch=1;curveFitting=1;jiggle=2;" vertex="1" parent="1">
          <mxGeometry x="520" y="400" width="120" height="60" as="geometry" />
        </mxCell>
        <mxCell id="WSGV7BfRgn2utAXJgyUl-46" value="" style="html=1;shadow=0;dashed=0;align=center;verticalAlign=middle;shape=mxgraph.arrows2.twoWayArrow;dy=0.65;dx=22;labelBackgroundColor=none;fillColor=#A8DADC;strokeColor=#457B9D;fontColor=#1D3557;sketch=1;curveFitting=1;jiggle=2;rounded=1;" vertex="1" parent="1">
          <mxGeometry x="640" y="420" width="90" height="20" as="geometry" />
        </mxCell>
        <mxCell id="WSGV7BfRgn2utAXJgyUl-47" value="&lt;h3&gt;API Integration Layer&lt;/h3&gt;" style="rounded=1;whiteSpace=wrap;html=1;fillColor=#A8DADC;strokeColor=#457B9D;labelBackgroundColor=none;fontColor=#1D3557;sketch=1;curveFitting=1;jiggle=2;" vertex="1" parent="1">
          <mxGeometry x="730" y="400" width="120" height="60" as="geometry" />
        </mxCell>
        <mxCell id="WSGV7BfRgn2utAXJgyUl-48" style="edgeStyle=orthogonalEdgeStyle;rounded=1;orthogonalLoop=1;jettySize=auto;html=1;exitX=0;exitY=0;exitDx=22;exitDy=6.5;exitPerimeter=0;entryX=0;entryY=0;entryDx=22;entryDy=13.5;entryPerimeter=0;labelBackgroundColor=none;strokeColor=#457B9D;fontColor=default;sketch=1;curveFitting=1;jiggle=2;" edge="1" source="WSGV7BfRgn2utAXJgyUl-46" target="WSGV7BfRgn2utAXJgyUl-46" parent="1">
          <mxGeometry relative="1" as="geometry" />
        </mxCell>
        <mxCell id="WSGV7BfRgn2utAXJgyUl-49" value="" style="html=1;shadow=0;dashed=0;align=center;verticalAlign=middle;shape=mxgraph.arrows2.twoWayArrow;dy=0.65;dx=22;labelBackgroundColor=none;fillColor=#A8DADC;strokeColor=#457B9D;fontColor=#1D3557;sketch=1;curveFitting=1;jiggle=2;rounded=1;" vertex="1" parent="1">
          <mxGeometry x="850" y="420" width="80" height="20" as="geometry" />
        </mxCell>
        <mxCell id="WSGV7BfRgn2utAXJgyUl-50" value="&lt;h3&gt;Financial Institution&lt;/h3&gt;" style="rounded=1;whiteSpace=wrap;html=1;fillColor=#A8DADC;strokeColor=#457B9D;labelBackgroundColor=none;fontColor=#1D3557;sketch=1;curveFitting=1;jiggle=2;" vertex="1" parent="1">
          <mxGeometry x="930" y="400" width="120" height="60" as="geometry" />
        </mxCell>
        <mxCell id="WSGV7BfRgn2utAXJgyUl-51" value="" style="html=1;shadow=0;dashed=0;align=center;verticalAlign=middle;shape=mxgraph.arrows2.arrow;dy=0.6;dx=40;direction=south;notch=0;labelBackgroundColor=none;fillColor=#A8DADC;strokeColor=#457B9D;fontColor=#1D3557;sketch=1;curveFitting=1;jiggle=2;rounded=1;" vertex="1" parent="1">
          <mxGeometry x="560" y="480" width="35" height="120" as="geometry" />
        </mxCell>
        <mxCell id="WSGV7BfRgn2utAXJgyUl-52" value="&lt;b&gt;Redirect to Payment&lt;/b&gt;" style="text;html=1;align=center;verticalAlign=middle;resizable=0;points=[];autosize=1;strokeColor=none;fillColor=none;labelBackgroundColor=none;fontColor=#1D3557;sketch=1;curveFitting=1;jiggle=2;rounded=1;" vertex="1" parent="1">
          <mxGeometry x="585" y="508" width="140" height="30" as="geometry" />
        </mxCell>
        <mxCell id="WSGV7BfRgn2utAXJgyUl-53" value="" style="html=1;shadow=0;dashed=0;align=center;verticalAlign=middle;shape=mxgraph.arrows2.arrow;dy=0.6;dx=40;direction=south;notch=0;labelBackgroundColor=none;fillColor=#A8DADC;strokeColor=#457B9D;fontColor=#1D3557;sketch=1;curveFitting=1;jiggle=2;rounded=1;" vertex="1" parent="1">
          <mxGeometry x="770" y="480" width="35" height="120" as="geometry" />
        </mxCell>
        <mxCell id="WSGV7BfRgn2utAXJgyUl-54" value="&lt;b&gt;(Send Payment Request)&lt;/b&gt;" style="text;html=1;align=center;verticalAlign=middle;resizable=0;points=[];autosize=1;strokeColor=none;fillColor=none;labelBackgroundColor=none;fontColor=#1D3557;sketch=1;curveFitting=1;jiggle=2;rounded=1;" vertex="1" parent="1">
          <mxGeometry x="795" y="508" width="160" height="30" as="geometry" />
        </mxCell>
        <mxCell id="WSGV7BfRgn2utAXJgyUl-55" value="" style="html=1;shadow=0;dashed=0;align=center;verticalAlign=middle;shape=mxgraph.arrows2.arrow;dy=0.6;dx=40;direction=south;notch=0;labelBackgroundColor=none;fillColor=#A8DADC;strokeColor=#457B9D;fontColor=#1D3557;sketch=1;curveFitting=1;jiggle=2;rounded=1;" vertex="1" parent="1">
          <mxGeometry x="970" y="480" width="35" height="120" as="geometry" />
        </mxCell>
        <mxCell id="WSGV7BfRgn2utAXJgyUl-56" value="&lt;b&gt;(Process Transaction)&lt;/b&gt;" style="text;html=1;align=center;verticalAlign=middle;resizable=0;points=[];autosize=1;strokeColor=none;fillColor=none;labelBackgroundColor=none;fontColor=#1D3557;sketch=1;curveFitting=1;jiggle=2;rounded=1;" vertex="1" parent="1">
          <mxGeometry x="990" y="508" width="150" height="30" as="geometry" />
        </mxCell>
        <mxCell id="WSGV7BfRgn2utAXJgyUl-57" value="&lt;h3&gt;User Payment Gateway Page&lt;/h3&gt;" style="rounded=1;whiteSpace=wrap;html=1;fillColor=#A8DADC;strokeColor=#457B9D;labelBackgroundColor=none;fontColor=#1D3557;sketch=1;curveFitting=1;jiggle=2;" vertex="1" parent="1">
          <mxGeometry x="520" y="600" width="120" height="60" as="geometry" />
        </mxCell>
        <mxCell id="WSGV7BfRgn2utAXJgyUl-58" value="" style="html=1;shadow=0;dashed=0;align=center;verticalAlign=middle;shape=mxgraph.arrows2.twoWayArrow;dy=0.65;dx=22;labelBackgroundColor=none;fillColor=#A8DADC;strokeColor=#457B9D;fontColor=#1D3557;sketch=1;curveFitting=1;jiggle=2;rounded=1;" vertex="1" parent="1">
          <mxGeometry x="640" y="620" width="90" height="20" as="geometry" />
        </mxCell>
        <mxCell id="WSGV7BfRgn2utAXJgyUl-59" value="&lt;h3&gt;API Processing Engine&lt;/h3&gt;" style="rounded=1;whiteSpace=wrap;html=1;fillColor=#A8DADC;strokeColor=#457B9D;labelBackgroundColor=none;fontColor=#1D3557;sketch=1;curveFitting=1;jiggle=2;" vertex="1" parent="1">
          <mxGeometry x="730" y="600" width="120" height="60" as="geometry" />
        </mxCell>
        <mxCell id="WSGV7BfRgn2utAXJgyUl-60" style="edgeStyle=orthogonalEdgeStyle;rounded=1;orthogonalLoop=1;jettySize=auto;html=1;exitX=0;exitY=0;exitDx=22;exitDy=6.5;exitPerimeter=0;entryX=0;entryY=0;entryDx=22;entryDy=13.5;entryPerimeter=0;labelBackgroundColor=none;strokeColor=#457B9D;fontColor=default;sketch=1;curveFitting=1;jiggle=2;" edge="1" source="WSGV7BfRgn2utAXJgyUl-58" target="WSGV7BfRgn2utAXJgyUl-58" parent="1">
          <mxGeometry relative="1" as="geometry" />
        </mxCell>
        <mxCell id="WSGV7BfRgn2utAXJgyUl-61" value="" style="html=1;shadow=0;dashed=0;align=center;verticalAlign=middle;shape=mxgraph.arrows2.twoWayArrow;dy=0.65;dx=22;labelBackgroundColor=none;fillColor=#A8DADC;strokeColor=#457B9D;fontColor=#1D3557;sketch=1;curveFitting=1;jiggle=2;rounded=1;" vertex="1" parent="1">
          <mxGeometry x="850" y="620" width="80" height="20" as="geometry" />
        </mxCell>
        <mxCell id="WSGV7BfRgn2utAXJgyUl-62" value="&lt;h3&gt;Bank Server&lt;/h3&gt;" style="rounded=1;whiteSpace=wrap;html=1;fillColor=#A8DADC;strokeColor=#457B9D;labelBackgroundColor=none;fontColor=#1D3557;sketch=1;curveFitting=1;jiggle=2;" vertex="1" parent="1">
          <mxGeometry x="930" y="600" width="120" height="60" as="geometry" />
        </mxCell>
        <mxCell id="WSGV7BfRgn2utAXJgyUl-63" value="" style="html=1;shadow=0;dashed=0;align=center;verticalAlign=middle;shape=mxgraph.arrows2.arrow;dy=0.6;dx=40;direction=south;notch=0;labelBackgroundColor=none;fillColor=#A8DADC;strokeColor=#457B9D;fontColor=#1D3557;sketch=1;curveFitting=1;jiggle=2;rounded=1;" vertex="1" parent="1">
          <mxGeometry x="560" y="680" width="35" height="120" as="geometry" />
        </mxCell>
        <mxCell id="WSGV7BfRgn2utAXJgyUl-64" value="&lt;b&gt;(Enter Card Details)&lt;/b&gt;" style="text;html=1;align=center;verticalAlign=middle;resizable=0;points=[];autosize=1;strokeColor=none;fillColor=none;labelBackgroundColor=none;fontColor=#1D3557;sketch=1;curveFitting=1;jiggle=2;rounded=1;" vertex="1" parent="1">
          <mxGeometry x="585" y="708" width="140" height="30" as="geometry" />
        </mxCell>
        <mxCell id="WSGV7BfRgn2utAXJgyUl-65" value="" style="html=1;shadow=0;dashed=0;align=center;verticalAlign=middle;shape=mxgraph.arrows2.arrow;dy=0.6;dx=40;direction=south;notch=0;labelBackgroundColor=none;fillColor=#A8DADC;strokeColor=#457B9D;fontColor=#1D3557;sketch=1;curveFitting=1;jiggle=2;rounded=1;" vertex="1" parent="1">
          <mxGeometry x="770" y="680" width="35" height="120" as="geometry" />
        </mxCell>
        <mxCell id="WSGV7BfRgn2utAXJgyUl-66" value="&lt;b&gt;(Authorize/Authenticate)&lt;/b&gt;" style="text;html=1;align=center;verticalAlign=middle;resizable=0;points=[];autosize=1;strokeColor=none;fillColor=none;labelBackgroundColor=none;fontColor=#1D3557;sketch=1;curveFitting=1;jiggle=2;rounded=1;" vertex="1" parent="1">
          <mxGeometry x="795" y="708" width="160" height="30" as="geometry" />
        </mxCell>
        <mxCell id="WSGV7BfRgn2utAXJgyUl-67" value="" style="html=1;shadow=0;dashed=0;align=center;verticalAlign=middle;shape=mxgraph.arrows2.arrow;dy=0.6;dx=40;direction=south;notch=0;labelBackgroundColor=none;fillColor=#A8DADC;strokeColor=#457B9D;fontColor=#1D3557;sketch=1;curveFitting=1;jiggle=2;rounded=1;" vertex="1" parent="1">
          <mxGeometry x="970" y="680" width="35" height="120" as="geometry" />
        </mxCell>
        <mxCell id="WSGV7BfRgn2utAXJgyUl-68" value="&lt;b&gt;(Approve/Decline)&lt;/b&gt;" style="text;html=1;align=center;verticalAlign=middle;resizable=0;points=[];autosize=1;strokeColor=none;fillColor=none;labelBackgroundColor=none;fontColor=#1D3557;sketch=1;curveFitting=1;jiggle=2;rounded=1;" vertex="1" parent="1">
          <mxGeometry x="1000" y="708" width="130" height="30" as="geometry" />
        </mxCell>
        <mxCell id="WSGV7BfRgn2utAXJgyUl-198" value="&lt;h3&gt;Client Notification Handler&lt;/h3&gt;" style="rounded=1;whiteSpace=wrap;html=1;fillColor=#A8DADC;strokeColor=#457B9D;labelBackgroundColor=none;fontColor=#1D3557;sketch=1;curveFitting=1;jiggle=2;" vertex="1" parent="1">
          <mxGeometry x="525" y="800" width="120" height="60" as="geometry" />
        </mxCell>
        <mxCell id="WSGV7BfRgn2utAXJgyUl-199" value="" style="html=1;shadow=0;dashed=0;align=center;verticalAlign=middle;shape=mxgraph.arrows2.twoWayArrow;dy=0.65;dx=22;labelBackgroundColor=none;fillColor=#A8DADC;strokeColor=#457B9D;fontColor=#1D3557;sketch=1;curveFitting=1;jiggle=2;rounded=1;" vertex="1" parent="1">
          <mxGeometry x="645" y="820" width="90" height="20" as="geometry" />
        </mxCell>
        <mxCell id="WSGV7BfRgn2utAXJgyUl-200" value="&lt;h3&gt;API Notification Service&lt;/h3&gt;" style="rounded=1;whiteSpace=wrap;html=1;fillColor=#A8DADC;strokeColor=#457B9D;labelBackgroundColor=none;fontColor=#1D3557;sketch=1;curveFitting=1;jiggle=2;" vertex="1" parent="1">
          <mxGeometry x="735" y="800" width="120" height="60" as="geometry" />
        </mxCell>
        <mxCell id="WSGV7BfRgn2utAXJgyUl-201" style="edgeStyle=orthogonalEdgeStyle;rounded=1;orthogonalLoop=1;jettySize=auto;html=1;exitX=0;exitY=0;exitDx=22;exitDy=6.5;exitPerimeter=0;entryX=0;entryY=0;entryDx=22;entryDy=13.5;entryPerimeter=0;labelBackgroundColor=none;strokeColor=#457B9D;fontColor=default;sketch=1;curveFitting=1;jiggle=2;" edge="1" source="WSGV7BfRgn2utAXJgyUl-199" target="WSGV7BfRgn2utAXJgyUl-199" parent="1">
          <mxGeometry relative="1" as="geometry" />
        </mxCell>
        <mxCell id="WSGV7BfRgn2utAXJgyUl-202" value="" style="html=1;shadow=0;dashed=0;align=center;verticalAlign=middle;shape=mxgraph.arrows2.twoWayArrow;dy=0.65;dx=22;labelBackgroundColor=none;fillColor=#A8DADC;strokeColor=#457B9D;fontColor=#1D3557;sketch=1;curveFitting=1;jiggle=2;rounded=1;" vertex="1" parent="1">
          <mxGeometry x="855" y="820" width="80" height="20" as="geometry" />
        </mxCell>
        <mxCell id="WSGV7BfRgn2utAXJgyUl-203" value="&lt;h3&gt;Financial Institution Notification Service&lt;/h3&gt;" style="rounded=1;whiteSpace=wrap;html=1;fillColor=#A8DADC;strokeColor=#457B9D;labelBackgroundColor=none;fontColor=#1D3557;sketch=1;curveFitting=1;jiggle=2;" vertex="1" parent="1">
          <mxGeometry x="935" y="800" width="120" height="60" as="geometry" />
        </mxCell>
        <mxCell id="WSGV7BfRgn2utAXJgyUl-204" value="" style="html=1;shadow=0;dashed=0;align=center;verticalAlign=middle;shape=mxgraph.arrows2.arrow;dy=0.6;dx=40;direction=south;notch=0;labelBackgroundColor=none;fillColor=#A8DADC;strokeColor=#457B9D;fontColor=#1D3557;sketch=1;curveFitting=1;jiggle=2;rounded=1;" vertex="1" parent="1">
          <mxGeometry x="565" y="880" width="35" height="120" as="geometry" />
        </mxCell>
        <mxCell id="WSGV7BfRgn2utAXJgyUl-205" value="&lt;b&gt;(Receive Status)&lt;/b&gt;" style="text;html=1;align=center;verticalAlign=middle;resizable=0;points=[];autosize=1;strokeColor=none;fillColor=none;labelBackgroundColor=none;fontColor=#1D3557;sketch=1;curveFitting=1;jiggle=2;rounded=1;" vertex="1" parent="1">
          <mxGeometry x="600" y="908" width="120" height="30" as="geometry" />
        </mxCell>
        <mxCell id="WSGV7BfRgn2utAXJgyUl-206" value="" style="html=1;shadow=0;dashed=0;align=center;verticalAlign=middle;shape=mxgraph.arrows2.arrow;dy=0.6;dx=40;direction=south;notch=0;labelBackgroundColor=none;fillColor=#A8DADC;strokeColor=#457B9D;fontColor=#1D3557;sketch=1;curveFitting=1;jiggle=2;rounded=1;" vertex="1" parent="1">
          <mxGeometry x="775" y="880" width="35" height="120" as="geometry" />
        </mxCell>
        <mxCell id="WSGV7BfRgn2utAXJgyUl-207" value="&lt;b&gt;(Update Status)&lt;/b&gt;" style="text;html=1;align=center;verticalAlign=middle;resizable=0;points=[];autosize=1;strokeColor=none;fillColor=none;labelBackgroundColor=none;fontColor=#1D3557;sketch=1;curveFitting=1;jiggle=2;rounded=1;" vertex="1" parent="1">
          <mxGeometry x="815" y="908" width="110" height="30" as="geometry" />
        </mxCell>
        <mxCell id="WSGV7BfRgn2utAXJgyUl-208" value="" style="html=1;shadow=0;dashed=0;align=center;verticalAlign=middle;shape=mxgraph.arrows2.arrow;dy=0.6;dx=40;direction=south;notch=0;labelBackgroundColor=none;fillColor=#A8DADC;strokeColor=#457B9D;fontColor=#1D3557;sketch=1;curveFitting=1;jiggle=2;rounded=1;" vertex="1" parent="1">
          <mxGeometry x="975" y="880" width="35" height="120" as="geometry" />
        </mxCell>
        <mxCell id="WSGV7BfRgn2utAXJgyUl-209" value="&lt;b&gt;Client Application&lt;/b&gt;" style="rounded=1;whiteSpace=wrap;html=1;fillColor=#A8DADC;strokeColor=#457B9D;labelBackgroundColor=none;fontColor=#1D3557;sketch=1;curveFitting=1;jiggle=2;" vertex="1" parent="1">
          <mxGeometry x="525" y="1000" width="120" height="60" as="geometry" />
        </mxCell>
        <mxCell id="WSGV7BfRgn2utAXJgyUl-210" value="" style="html=1;shadow=0;dashed=0;align=center;verticalAlign=middle;shape=mxgraph.arrows2.twoWayArrow;dy=0.65;dx=22;labelBackgroundColor=none;fillColor=#A8DADC;strokeColor=#457B9D;fontColor=#1D3557;sketch=1;curveFitting=1;jiggle=2;rounded=1;" vertex="1" parent="1">
          <mxGeometry x="645" y="1020" width="90" height="20" as="geometry" />
        </mxCell>
        <mxCell id="WSGV7BfRgn2utAXJgyUl-211" value="&lt;h3&gt;Payment Gateway API&lt;/h3&gt;" style="rounded=1;whiteSpace=wrap;html=1;fillColor=#A8DADC;strokeColor=#457B9D;labelBackgroundColor=none;fontColor=#1D3557;sketch=1;curveFitting=1;jiggle=2;" vertex="1" parent="1">
          <mxGeometry x="735" y="1000" width="120" height="60" as="geometry" />
        </mxCell>
        <mxCell id="WSGV7BfRgn2utAXJgyUl-212" style="edgeStyle=orthogonalEdgeStyle;rounded=1;orthogonalLoop=1;jettySize=auto;html=1;exitX=0;exitY=0;exitDx=22;exitDy=6.5;exitPerimeter=0;entryX=0;entryY=0;entryDx=22;entryDy=13.5;entryPerimeter=0;labelBackgroundColor=none;strokeColor=#457B9D;fontColor=default;sketch=1;curveFitting=1;jiggle=2;" edge="1" source="WSGV7BfRgn2utAXJgyUl-210" target="WSGV7BfRgn2utAXJgyUl-210" parent="1">
          <mxGeometry relative="1" as="geometry" />
        </mxCell>
        <mxCell id="WSGV7BfRgn2utAXJgyUl-213" value="" style="html=1;shadow=0;dashed=0;align=center;verticalAlign=middle;shape=mxgraph.arrows2.twoWayArrow;dy=0.65;dx=22;labelBackgroundColor=none;fillColor=#A8DADC;strokeColor=#457B9D;fontColor=#1D3557;sketch=1;curveFitting=1;jiggle=2;rounded=1;" vertex="1" parent="1">
          <mxGeometry x="855" y="1020" width="80" height="20" as="geometry" />
        </mxCell>
        <mxCell id="WSGV7BfRgn2utAXJgyUl-214" value="&lt;h3&gt;Financial Institution&lt;/h3&gt;" style="rounded=1;whiteSpace=wrap;html=1;fillColor=#A8DADC;strokeColor=#457B9D;labelBackgroundColor=none;fontColor=#1D3557;sketch=1;curveFitting=1;jiggle=2;" vertex="1" parent="1">
          <mxGeometry x="935" y="1000" width="120" height="60" as="geometry" />
        </mxCell>
        <mxCell id="WSGV7BfRgn2utAXJgyUl-215" value="" style="html=1;shadow=0;dashed=0;align=center;verticalAlign=middle;shape=mxgraph.arrows2.arrow;dy=0.6;dx=40;direction=south;notch=0;labelBackgroundColor=none;fillColor=#A8DADC;strokeColor=#457B9D;fontColor=#1D3557;sketch=1;curveFitting=1;jiggle=2;rounded=1;" vertex="1" parent="1">
          <mxGeometry x="565" y="1080" width="35" height="120" as="geometry" />
        </mxCell>
        <mxCell id="WSGV7BfRgn2utAXJgyUl-216" value="&lt;b&gt;(Show Result)&lt;/b&gt;" style="text;html=1;align=center;verticalAlign=middle;resizable=0;points=[];autosize=1;strokeColor=none;fillColor=none;labelBackgroundColor=none;fontColor=#1D3557;sketch=1;curveFitting=1;jiggle=2;rounded=1;" vertex="1" parent="1">
          <mxGeometry x="595" y="1108" width="100" height="30" as="geometry" />
        </mxCell>
        <mxCell id="WSGV7BfRgn2utAXJgyUl-217" value="" style="html=1;shadow=0;dashed=0;align=center;verticalAlign=middle;shape=mxgraph.arrows2.arrow;dy=0.6;dx=40;direction=south;notch=0;labelBackgroundColor=none;fillColor=#A8DADC;strokeColor=#457B9D;fontColor=#1D3557;sketch=1;curveFitting=1;jiggle=2;rounded=1;" vertex="1" parent="1">
          <mxGeometry x="775" y="1080" width="35" height="120" as="geometry" />
        </mxCell>
        <mxCell id="WSGV7BfRgn2utAXJgyUl-218" value="&lt;b&gt;(Finalize Payment)&lt;/b&gt;" style="text;html=1;align=center;verticalAlign=middle;resizable=0;points=[];autosize=1;strokeColor=none;fillColor=none;labelBackgroundColor=none;fontColor=#1D3557;sketch=1;curveFitting=1;jiggle=2;rounded=1;" vertex="1" parent="1">
          <mxGeometry x="815" y="1108" width="130" height="30" as="geometry" />
        </mxCell>
        <mxCell id="WSGV7BfRgn2utAXJgyUl-219" value="" style="html=1;shadow=0;dashed=0;align=center;verticalAlign=middle;shape=mxgraph.arrows2.arrow;dy=0.6;dx=40;direction=south;notch=0;labelBackgroundColor=none;fillColor=#A8DADC;strokeColor=#457B9D;fontColor=#1D3557;sketch=1;curveFitting=1;jiggle=2;rounded=1;" vertex="1" parent="1">
          <mxGeometry x="975" y="1080" width="35" height="120" as="geometry" />
        </mxCell>
        <mxCell id="WSGV7BfRgn2utAXJgyUl-220" value="&lt;h3&gt;User (Confirmation)&lt;/h3&gt;" style="rounded=1;whiteSpace=wrap;html=1;fillColor=#A8DADC;strokeColor=#457B9D;labelBackgroundColor=none;fontColor=#1D3557;sketch=1;curveFitting=1;jiggle=2;" vertex="1" parent="1">
          <mxGeometry x="525" y="1200" width="120" height="60" as="geometry" />
        </mxCell>
        <mxCell id="WSGV7BfRgn2utAXJgyUl-221" value="" style="html=1;shadow=0;dashed=0;align=center;verticalAlign=middle;shape=mxgraph.arrows2.twoWayArrow;dy=0.65;dx=22;labelBackgroundColor=none;fillColor=#A8DADC;strokeColor=#457B9D;fontColor=#1D3557;sketch=1;curveFitting=1;jiggle=2;rounded=1;" vertex="1" parent="1">
          <mxGeometry x="645" y="1220" width="90" height="20" as="geometry" />
        </mxCell>
        <mxCell id="WSGV7BfRgn2utAXJgyUl-222" value="&lt;h3&gt;API Provider(Receipt)&lt;/h3&gt;" style="rounded=1;whiteSpace=wrap;html=1;fillColor=#A8DADC;strokeColor=#457B9D;labelBackgroundColor=none;fontColor=#1D3557;sketch=1;curveFitting=1;jiggle=2;" vertex="1" parent="1">
          <mxGeometry x="735" y="1200" width="120" height="60" as="geometry" />
        </mxCell>
        <mxCell id="WSGV7BfRgn2utAXJgyUl-223" style="edgeStyle=orthogonalEdgeStyle;rounded=1;orthogonalLoop=1;jettySize=auto;html=1;exitX=0;exitY=0;exitDx=22;exitDy=6.5;exitPerimeter=0;entryX=0;entryY=0;entryDx=22;entryDy=13.5;entryPerimeter=0;labelBackgroundColor=none;strokeColor=#457B9D;fontColor=default;sketch=1;curveFitting=1;jiggle=2;" edge="1" source="WSGV7BfRgn2utAXJgyUl-221" target="WSGV7BfRgn2utAXJgyUl-221" parent="1">
          <mxGeometry relative="1" as="geometry" />
        </mxCell>
        <mxCell id="WSGV7BfRgn2utAXJgyUl-224" value="" style="html=1;shadow=0;dashed=0;align=center;verticalAlign=middle;shape=mxgraph.arrows2.twoWayArrow;dy=0.65;dx=22;labelBackgroundColor=none;fillColor=#A8DADC;strokeColor=#457B9D;fontColor=#1D3557;sketch=1;curveFitting=1;jiggle=2;rounded=1;" vertex="1" parent="1">
          <mxGeometry x="855" y="1220" width="80" height="20" as="geometry" />
        </mxCell>
        <mxCell id="WSGV7BfRgn2utAXJgyUl-225" value="&lt;h3&gt;Bank (Settlement)&lt;/h3&gt;" style="rounded=1;whiteSpace=wrap;html=1;fillColor=#A8DADC;strokeColor=#457B9D;labelBackgroundColor=none;fontColor=#1D3557;sketch=1;curveFitting=1;jiggle=2;" vertex="1" parent="1">
          <mxGeometry x="935" y="1200" width="120" height="60" as="geometry" />
        </mxCell>
        <mxCell id="WSGV7BfRgn2utAXJgyUl-231" value="&lt;b&gt;(Send Status)&lt;/b&gt;" style="text;html=1;align=center;verticalAlign=middle;resizable=0;points=[];autosize=1;strokeColor=none;fillColor=none;labelBackgroundColor=none;fontColor=#1D3557;sketch=1;curveFitting=1;jiggle=2;rounded=1;" vertex="1" parent="1">
          <mxGeometry x="1015" y="908" width="100" height="30" as="geometry" />
        </mxCell>
        <mxCell id="WSGV7BfRgn2utAXJgyUl-232" value="&lt;b&gt;(Settle Payment)&lt;/b&gt;" style="text;html=1;align=center;verticalAlign=middle;resizable=0;points=[];autosize=1;strokeColor=none;fillColor=none;labelBackgroundColor=none;fontColor=#1D3557;sketch=1;curveFitting=1;jiggle=2;rounded=1;" vertex="1" parent="1">
          <mxGeometry x="990" y="1108" width="120" height="30" as="geometry" />
        </mxCell>
      </root>
    </mxGraphModel>
  </diagram>
</mxfile>
